FontWithASyntaxHighlighter-LightItalic.ufo
<glyph name="exclam" format="2">
  <advance width="1240"/>
  <unicode hex="0021"/>
  <outline>
    <contour>
      <point x="683" y="550" type="line"/>
      <point x="872" y="1460" type="line"/>
      <point x="742" y="1460" type="line"/>
      <point x="579" y="550" type="line"/>
    </contour>
    <contour>
      <point x="522" y="-24" type="curve" smooth="yes"/>
      <point x="593" y="-24"/>
      <point x="654" y="19"/>
      <point x="669" y="97" type="curve" smooth="yes"/>
      <point x="684" y="176"/>
      <point x="635" y="224"/>
      <point x="563" y="224" type="curve" smooth="yes"/>
      <point x="493" y="224"/>
      <point x="432" y="183"/>
      <point x="417" y="103" type="curve" smooth="yes"/>
      <point x="402" y="26"/>
      <point x="451" y="-24"/>
    </contour>
  </outline>
</glyph>
<glyph name="numbersign" format="2">
  <advance width="1240"/>
  <unicode hex="0023"/>
  <outline>
    <contour>
      <point x="202" y="-200" type="line"/>
      <point x="748" y="1460" type="line"/>
      <point x="630" y="1460" type="line"/>
      <point x="84" y="-200" type="line"/>
    </contour>
    <contour>
      <point x="661" y="-200" type="line"/>
      <point x="1207" y="1460" type="line"/>
      <point x="1089" y="1460" type="line"/>
      <point x="543" y="-200" type="line"/>
    </contour>
    <contour>
      <point x="244" y="890" type="line"/>
      <point x="1233" y="890" type="line"/>
      <point x="1254" y="1000" type="line"/>
      <point x="265" y="1000" type="line"/>
    </contour>
    <contour>
      <point x="37" y="260" type="line"/>
      <point x="1026" y="260" type="line"/>
      <point x="1047" y="370" type="line"/>
      <point x="58" y="370" type="line"/>
    </contour>
  </outline>
</glyph>
<glyph name="parenleft" format="2">
  <advance width="1240"/>
  <unicode hex="0028"/>
  <outline>
    <contour>
      <point x="563" y="601" type="curve" smooth="yes"/>
      <point x="659" y="1098"/>
      <point x="940" y="1380"/>
      <point x="1236" y="1602" type="curve"/>
      <point x="1102" y="1602" type="line"/>
      <point x="819" y="1404"/>
      <point x="532" y="1100"/>
      <point x="439" y="621" type="curve" smooth="yes"/>
      <point x="338" y="101"/>
      <point x="517" y="-202"/>
      <point x="724" y="-400" type="curve"/>
      <point x="848" y="-400" type="line"/>
      <point x="636" y="-178"/>
      <point x="463" y="88"/>
    </contour>
  </outline>
</glyph>
<glyph name="period" format="2">
  <advance width="1240"/>
  <unicode hex="002E"/>
  <outline>
    <contour>
      <point x="521" y="-31" type="curve" smooth="yes"/>
      <point x="610" y="-31"/>
      <point x="686" y="23"/>
      <point x="705" y="120" type="curve" smooth="yes"/>
      <point x="725" y="219"/>
      <point x="662" y="279"/>
      <point x="573" y="279" type="curve" smooth="yes"/>
      <point x="485" y="279"/>
      <point x="409" y="227"/>
      <point x="390" y="128" type="curve" smooth="yes"/>
      <point x="371" y="31"/>
      <point x="433" y="-31"/>
    </contour>
  </outline>
</glyph>
<glyph name="slash" format="2">
  <advance width="1240"/>
  <unicode hex="002F"/>
  <outline>
    <contour>
      <point x="168" y="-200" type="line"/>
      <point x="1235" y="1460" type="line"/>
      <point x="1083" y="1460" type="line"/>
      <point x="16" y="-200" type="line"/>
    </contour>
  </outline>
</glyph>
<glyph name="four" format="2">
  <advance width="1240"/>
  <unicode hex="0034"/>
  <outline>
    <contour>
      <point x="58" y="429" type="line"/>
      <point x="1154" y="429" type="line"/>
      <point x="1176" y="539" type="line"/>
      <point x="886" y="539" type="line"/>
      <point x="860" y="539" type="line"/>
      <point x="143" y="539" type="line"/>
      <point x="199" y="502" type="line"/>
      <point x="975" y="1418" type="line"/>
      <point x="882" y="1484" type="line"/>
      <point x="76" y="522" type="line"/>
    </contour>
    <contour>
      <point x="707" y="0" type="line"/>
      <point x="833" y="0" type="line"/>
      <point x="1021" y="967" type="line"/>
      <point x="895" y="967" type="line"/>
    </contour>
  </outline>
</glyph>
<glyph name="six" format="2">
  <advance width="1240"/>
  <unicode hex="0036"/>
  <outline>
    <contour>
      <point x="368" y="0" type="line"/>
      <point x="718" y="0" type="line"/>
      <point x="1075" y="308" type="line"/>
      <point x="1137" y="628" type="line"/>
      <point x="915" y="879" type="line"/>
      <point x="262" y="690" type="line"/>
      <point x="246" y="608" type="line"/>
      <point x="851" y="745" type="line"/>
      <point x="1010" y="585" type="line"/>
      <point x="967" y="367" type="line"/>
      <point x="675" y="110" type="line"/>
      <point x="447" y="110" type="line"/>
      <point x="267" y="361" type="line"/>
      <point x="384" y="963" type="line"/>
      <point x="751" y="1350" type="line"/>
      <point x="1175" y="1350" type="line"/>
      <point x="1177" y="1460" type="line"/>
      <point x="707" y="1460" type="line"/>
      <point x="265" y="997" type="line"/>
      <point x="131" y="308" type="line"/>
    </contour>
  </outline>
</glyph>
<glyph name="seven" format="2">
  <advance width="1240"/>
  <unicode hex="0037"/>
  <outline>
    <contour>
      <point x="326" y="0" type="line"/>
      <point x="446" y="0" type="line"/>
      <point x="512" y="340" type="line"/>
      <point x="1271" y="1353" type="line"/>
      <point x="1232" y="1460" type="line"/>
      <point x="301" y="1460" type="line"/>
      <point x="259" y="1350" type="line"/>
      <point x="1196" y="1350" type="line"/>
      <point x="1172" y="1405" type="line"/>
      <point x="401" y="386" type="line"/>
    </contour>
  </outline>
</glyph>
<glyph name="less" format="2">
  <advance width="1240"/>
  <unicode hex="003C"/>
  <outline>
    <contour>
      <point x="1124" y="1255" type="line"/>
      <point x="230" y="703" type="line"/>
      <point x="210" y="604" type="line"/>
      <point x="890" y="52" type="line"/>
      <point x="969" y="134" type="line"/>
      <point x="349" y="639" type="line"/>
      <point x="352" y="653" type="line"/>
      <point x="1168" y="1157" type="line"/>
    </contour>
  </outline>
</glyph>
<glyph name="B" format="2">
  <advance width="1240"/>
  <unicode hex="0042"/>
  <outline>
    <contour>
      <point x="162" y="0" type="line"/>
      <point x="696" y="0" type="line"/>
      <point x="1045" y="268" type="line"/>
      <point x="1095" y="526" type="line"/>
      <point x="852" y="800" type="line"/>
      <point x="835" y="716" type="line"/>
      <point x="1125" y="988" type="line"/>
      <point x="1165" y="1192" type="line"/>
      <point x="980" y="1460" type="line"/>
      <point x="446" y="1460" type="line"/>
      <point x="426" y="1360" type="line"/>
      <point x="901" y="1360" type="line"/>
      <point x="1031" y="1153" type="line"/>
      <point x="1008" y="1033" type="line"/>
      <point x="779" y="807" type="line"/>
      <point x="319" y="807" type="line"/>
      <point x="299" y="707" type="line"/>
      <point x="774" y="707" type="line"/>
      <point x="962" y="491" type="line"/>
      <point x="929" y="317" type="line"/>
      <point x="641" y="100" type="line"/>
      <point x="181" y="100" type="line"/>
    </contour>
    <contour>
      <point x="120" y="0" type="line"/>
      <point x="246" y="0" type="line"/>
      <point x="530" y="1460" type="line"/>
      <point x="404" y="1460" type="line"/>
    </contour>
  </outline>
</glyph>
<glyph name="K" format="2">
  <advance width="1240"/>
  <unicode hex="004B"/>
  <outline>
    <contour>
      <point x="830" y="0" type="line"/>
      <point x="956" y="0" type="line"/>
      <point x="1008" y="266" type="line"/>
      <point x="690" y="784" type="line"/>
      <point x="678" y="719" type="line"/>
      <point x="1188" y="1194" type="line"/>
      <point x="1240" y="1460" type="line"/>
      <point x="1114" y="1460" type="line"/>
      <point x="1070" y="1237" type="line"/>
      <point x="575" y="768" type="line"/>
      <point x="658" y="805" type="line"/>
      <point x="359" y="805" type="line"/>
      <point x="339" y="700" type="line"/>
      <point x="650" y="700" type="line"/>
      <point x="577" y="721" type="line"/>
      <point x="878" y="248" type="line"/>
    </contour>
    <contour>
      <point x="120" y="0" type="line"/>
      <point x="246" y="0" type="line"/>
      <point x="530" y="1460" type="line"/>
      <point x="404" y="1460" type="line"/>
    </contour>
  </outline>
</glyph>
<glyph name="L" format="2">
  <advance width="1240"/>
  <unicode hex="004C"/>
  <outline>
    <contour>
      <point x="110" y="0" type="line"/>
      <point x="236" y="0" type="line"/>
      <point x="520" y="1460" type="line"/>
      <point x="394" y="1460" type="line"/>
    </contour>
    <contour>
      <point x="195" y="0" type="line"/>
      <point x="1001" y="0" type="line"/>
      <point x="1042" y="110" type="line"/>
      <point x="216" y="110" type="line"/>
    </contour>
  </outline>
</glyph>
<glyph name="M" format="2">
  <advance width="1240"/>
  <unicode hex="004D"/>
  <outline>
    <contour>
      <point x="66" y="0" type="line"/>
      <point x="189" y="0" type="line"/>
      <point x="410" y="1136" type="line"/>
      <point x="421" y="1136" type="line"/>
      <point x="550" y="389" type="line"/>
      <point x="655" y="389" type="line"/>
      <point x="1069" y="1136" type="line"/>
      <point x="1082" y="1136" type="line"/>
      <point x="861" y="0" type="line"/>
      <point x="980" y="0" type="line"/>
      <point x="1264" y="1459" type="line"/>
      <point x="1128" y="1459" type="line"/>
      <point x="644" y="563" type="line"/>
      <point x="625" y="563" type="line"/>
      <point x="483" y="1459" type="line"/>
      <point x="350" y="1459" type="line"/>
    </contour>
  </outline>
</glyph>
<glyph name="P" format="2">
  <advance width="1240"/>
  <unicode hex="0050"/>
  <outline>
    <contour>
      <point x="272" y="567" type="line"/>
      <point x="798" y="567" type="line"/>
      <point x="1169" y="908" type="line"/>
      <point x="1225" y="1192" type="line"/>
      <point x="980" y="1460" type="line"/>
      <point x="446" y="1460" type="line"/>
      <point x="426" y="1360" type="line"/>
      <point x="911" y="1360" type="line"/>
      <point x="1093" y="1163" type="line"/>
      <point x="1050" y="943" type="line"/>
      <point x="752" y="667" type="line"/>
      <point x="292" y="667" type="line"/>
    </contour>
    <contour>
      <point x="120" y="0" type="line"/>
      <point x="246" y="0" type="line"/>
      <point x="530" y="1460" type="line"/>
      <point x="404" y="1460" type="line"/>
    </contour>
  </outline>
</glyph>
<glyph name="V" format="2">
  <advance width="1240"/>
  <unicode hex="0056"/>
  <outline>
    <contour>
      <point x="450" y="0" type="line"/>
      <point x="596" y="0" type="line"/>
      <point x="1090" y="739" type="line"/>
      <point x="1230" y="1460" type="line"/>
      <point x="1104" y="1460" type="line"/>
      <point x="971" y="777" type="line"/>
      <point x="514" y="80" type="line"/>
      <point x="549" y="80" type="line"/>
      <point x="374" y="761" type="line"/>
      <point x="510" y="1460" type="line"/>
      <point x="384" y="1460" type="line"/>
      <point x="244" y="739" type="line"/>
    </contour>
  </outline>
</glyph>
<glyph name="X" format="2">
  <advance width="1240"/>
  <unicode hex="0058"/>
  <outline>
    <contour>
      <point x="840" y="0" type="line"/>
      <point x="956" y="0" type="line"/>
      <point x="1004" y="246" type="line"/>
      <point x="448" y="1246" type="line"/>
      <point x="490" y="1460" type="line"/>
      <point x="374" y="1460" type="line"/>
      <point x="326" y="1214" type="line"/>
      <point x="882" y="218" type="line"/>
    </contour>
    <contour>
      <point x="90" y="0" type="line"/>
      <point x="215" y="0" type="line"/>
      <point x="256" y="210" type="line"/>
      <point x="682" y="701" type="line"/>
      <point x="614" y="791" type="line"/>
      <point x="138" y="246" type="line"/>
    </contour>
    <contour>
      <point x="716" y="669" type="line"/>
      <point x="1192" y="1214" type="line"/>
      <point x="1240" y="1460" type="line"/>
      <point x="1115" y="1460" type="line"/>
      <point x="1073" y="1246" type="line"/>
      <point x="648" y="759" type="line"/>
    </contour>
  </outline>
</glyph>
<glyph name="bracketleft" format="2">
  <advance width="1240"/>
  <unicode hex="005B"/>
  <outline>
    <contour>
      <point x="192" y="-400" type="line"/>
      <point x="818" y="-400" type="line"/>
      <point x="838" y="-300" type="line"/>
      <point x="293" y="-300" type="line"/>
      <point x="331" y="-335" type="line"/>
      <point x="695" y="1537" type="line"/>
      <point x="643" y="1502" type="line"/>
      <point x="1188" y="1502" type="line"/>
      <point x="1207" y="1602" type="line"/>
      <point x="581" y="1602" type="line"/>
    </contour>
  </outline>
</glyph>
<glyph name="backslash" format="2">
  <advance width="1240"/>
  <unicode hex="005C"/>
  <outline>
    <contour>
      <point x="810" y="-200" type="line"/>
      <point x="942" y="-200" type="line"/>
      <point x="521" y="1460" type="line"/>
      <point x="389" y="1460" type="line"/>
    </contour>
  </outline>
</glyph>
<glyph name="bracketright" format="2">
  <advance width="1240"/>
  <unicode hex="005D"/>
  <outline>
    <contour>
      <point x="698" y="-400" type="line"/>
      <point x="1087" y="1602" type="line"/>
      <point x="461" y="1602" type="line"/>
      <point x="442" y="1502" type="line"/>
      <point x="987" y="1502" type="line"/>
      <point x="949" y="1537" type="line"/>
      <point x="585" y="-335" type="line"/>
      <point x="637" y="-300" type="line"/>
      <point x="92" y="-300" type="line"/>
      <point x="72" y="-400" type="line"/>
    </contour>
  </outline>
</glyph>
<glyph name="asciicircum" format="2">
  <advance width="1240"/>
  <unicode hex="005E"/>
  <outline>
    <contour>
      <point x="171" y="750" type="line"/>
      <point x="264" y="696" type="line"/>
      <point x="794" y="1383" type="line"/>
      <point x="807" y="1383" type="line"/>
      <point x="1069" y="696" type="line"/>
      <point x="1168" y="750" type="line"/>
      <point x="869" y="1530" type="line"/>
      <point x="772" y="1530" type="line"/>
    </contour>
  </outline>
</glyph>
<glyph name="underscore" format="2">
  <advance width="1240"/>
  <unicode hex="005F"/>
  <outline>
    <contour>
      <point x="-167" y="-360" type="line"/>
      <point x="1073" y="-360" type="line"/>
      <point x="1098" y="-230" type="line"/>
      <point x="-142" y="-230" type="line"/>
    </contour>
  </outline>
</glyph>
<glyph name="f" format="2">
  <advance width="1240"/>
  <unicode hex="0066"/>
  <outline>
    <contour>
      <point x="363" y="0" type="line"/>
      <point x="479" y="0" type="line"/>
      <point x="713" y="1204" type="line"/>
      <point x="944" y="1432" type="line"/>
      <point x="1331" y="1432" type="line"/>
      <point x="1330" y="1530" type="line"/>
      <point x="899" y="1530" type="line"/>
      <point x="604" y="1242" type="line"/>
    </contour>
    <contour>
      <point x="160" y="818" type="line"/>
      <point x="1173" y="818" type="line"/>
      <point x="1192" y="918" type="line"/>
      <point x="179" y="918" type="line"/>
    </contour>
  </outline>
</glyph>
<glyph name="r" format="2">
  <advance width="1240"/>
  <unicode hex="0072"/>
  <outline>
    <contour>
      <point x="914" y="605" type="line"/>
      <point x="1043" y="625" type="line"/>
      <point x="1068" y="772" type="line"/>
      <point x="878" y="1023" type="line"/>
      <point x="331" y="864" type="line"/>
      <point x="315" y="782" type="line"/>
      <point x="819" y="917" type="line"/>
      <point x="939" y="737" type="line"/>
    </contour>
    <contour>
      <point x="124" y="0" type="line"/>
      <point x="248" y="0" type="line"/>
      <point x="414" y="853" type="line"/>
      <point x="405" y="1000" type="line"/>
      <point x="318" y="1000" type="line"/>
    </contour>
  </outline>
</glyph>
<glyph name="asciitilde" format="2">
  <advance width="1240"/>
  <unicode hex="007E"/>
  <outline>
    <contour>
      <point x="830" y="440" type="curve" smooth="yes"/>
      <point x="965" y="440"/>
      <point x="1080" y="530"/>
      <point x="1159" y="809" type="curve"/>
      <point x="1050" y="823" type="line"/>
      <point x="987" y="625"/>
      <point x="929" y="556"/>
      <point x="848" y="556" type="curve" smooth="yes"/>
      <point x="681" y="556"/>
      <point x="709" y="850"/>
      <point x="468" y="850" type="curve" smooth="yes"/>
      <point x="334" y="850"/>
      <point x="217" y="760"/>
      <point x="137" y="481" type="curve"/>
      <point x="247" y="467" type="line"/>
      <point x="309" y="665"/>
      <point x="369" y="734"/>
      <point x="450" y="734" type="curve" smooth="yes"/>
      <point x="617" y="734"/>
      <point x="588" y="440"/>
    </contour>
  </outline>
</glyph>
<glyph name="brokenbar" format="2">
  <advance width="1240"/>
  <unicode hex="00A6"/>
  <outline>
    <contour>
      <point x="730" y="739" type="line"/>
      <point x="897" y="1602" type="line"/>
      <point x="771" y="1602" type="line"/>
      <point x="604" y="739" type="line"/>
    </contour>
    <contour>
      <point x="508" y="-400" type="line"/>
      <point x="676" y="463" type="line"/>
      <point x="550" y="463" type="line"/>
      <point x="382" y="-400" type="line"/>
    </contour>
  </outline>
</glyph>
<glyph name="dieresis" format="2">
  <advance width="1240"/>
  <unicode hex="00A8"/>
  <outline>
    <contour>
      <point x="524" y="1276" type="line"/>
      <point x="683" y="1406" type="line"/>
      <point x="574" y="1536" type="line"/>
      <point x="415" y="1406" type="line"/>
    </contour>
    <contour>
      <point x="1017" y="1276" type="line"/>
      <point x="1176" y="1406" type="line"/>
      <point x="1067" y="1536" type="line"/>
      <point x="908" y="1406" type="line"/>
    </contour>
  </outline>
</glyph>
<glyph name="ordfeminine" format="2">
  <advance width="1240"/>
  <unicode hex="00AA"/>
  <outline>
    <contour>
      <point x="686" y="1554" type="curve" smooth="yes"/>
      <point x="503" y="1554"/>
      <point x="422" y="1480"/>
      <point x="401" y="1374" type="curve" smooth="yes"/>
      <point x="395" y="1342" type="line"/>
      <point x="498" y="1342" type="line"/>
      <point x="503" y="1369" type="line" smooth="yes"/>
      <point x="520" y="1457"/>
      <point x="594" y="1475"/>
      <point x="665" y="1475" type="curve" smooth="yes"/>
      <point x="747" y="1475"/>
      <point x="800" y="1454"/>
      <point x="780" y="1353" type="curve" smooth="yes"/>
      <point x="717" y="1028" type="line"/>
      <point x="721" y="1018" type="line"/>
      <point x="709" y="959"/>
      <point x="721" y="911"/>
      <point x="802" y="911" type="curve" smooth="yes"/>
      <point x="823" y="911"/>
      <point x="851" y="914"/>
      <point x="880" y="923" type="curve"/>
      <point x="896" y="1003" type="line"/>
      <point x="838" y="995"/>
      <point x="823" y="1005"/>
      <point x="832" y="1051" type="curve" smooth="yes"/>
      <point x="892" y="1360" type="line" smooth="yes"/>
      <point x="921" y="1505"/>
      <point x="835" y="1554"/>
    </contour>
    <contour>
      <point x="793" y="1199" type="curve"/>
      <point x="777" y="1269" type="line"/>
      <point x="564" y="1271"/>
      <point x="358" y="1259"/>
      <point x="324" y="1083" type="curve" smooth="yes"/>
      <point x="303" y="978"/>
      <point x="362" y="911"/>
      <point x="476" y="911" type="curve" smooth="yes"/>
      <point x="578" y="911"/>
      <point x="649" y="958"/>
      <point x="708" y="1002" type="curve"/>
      <point x="730" y="1002" type="line"/>
      <point x="740" y="1069" type="line"/>
      <point x="675" y="1026"/>
      <point x="615" y="994"/>
      <point x="541" y="994" type="curve" smooth="yes"/>
      <point x="466" y="994"/>
      <point x="428" y="1028"/>
      <point x="440" y="1090" type="curve" smooth="yes"/>
      <point x="457" y="1176"/>
      <point x="551" y="1207"/>
      <point x="694" y="1207" type="curve" smooth="yes"/>
      <point x="726" y="1207"/>
      <point x="764" y="1203"/>
    </contour>
  </outline>
</glyph>
<glyph name="plusminus" format="2">
  <advance width="1240"/>
  <unicode hex="00B1"/>
  <outline>
    <contour>
      <point x="257" y="945" type="line"/>
      <point x="1157" y="945" type="line"/>
      <point x="1178" y="1055" type="line"/>
      <point x="278" y="1055" type="line"/>
    </contour>
    <contour>
      <point x="738" y="1415" type="line"/>
      <point x="577" y="585" type="line"/>
      <point x="697" y="585" type="line"/>
      <point x="858" y="1415" type="line"/>
    </contour>
    <contour>
      <point x="112" y="203" type="line"/>
      <point x="1012" y="203" type="line"/>
      <point x="1034" y="313" type="line"/>
      <point x="134" y="313" type="line"/>
    </contour>
  </outline>
</glyph>
<glyph name="threesuperior" format="2">
  <advance width="1240"/>
  <unicode hex="00B3"/>
  <outline>
    <contour>
      <point x="818" y="1664" type="curve" smooth="yes"/>
      <point x="689" y="1664"/>
      <point x="613" y="1608"/>
      <point x="590" y="1506" type="curve"/>
      <point x="679" y="1497" type="line"/>
      <point x="702" y="1568"/>
      <point x="746" y="1587"/>
      <point x="812" y="1587" type="curve" smooth="yes"/>
      <point x="882" y="1587"/>
      <point x="922" y="1567"/>
      <point x="910" y="1509" type="curve" smooth="yes"/>
      <point x="898" y="1448"/>
      <point x="829" y="1410"/>
      <point x="733" y="1410" type="curve" smooth="yes"/>
      <point x="719" y="1410" type="line"/>
      <point x="705" y="1339" type="line"/>
      <point x="720" y="1339" type="line" smooth="yes"/>
      <point x="812" y="1339"/>
      <point x="884" y="1314"/>
      <point x="873" y="1254" type="curve" smooth="yes"/>
      <point x="861" y="1196"/>
      <point x="813" y="1169"/>
      <point x="734" y="1169" type="curve" smooth="yes"/>
      <point x="659" y="1169"/>
      <point x="619" y="1189"/>
      <point x="622" y="1264" type="curve"/>
      <point x="527" y="1255" type="line"/>
      <point x="508" y="1147"/>
      <point x="578" y="1091"/>
      <point x="725" y="1091" type="curve" smooth="yes"/>
      <point x="869" y="1091"/>
      <point x="952" y="1142"/>
      <point x="972" y="1244" type="curve" smooth="yes"/>
      <point x="993" y="1352"/>
      <point x="906" y="1386"/>
      <point x="810" y="1392" type="curve"/>
      <point x="804" y="1365" type="line"/>
      <point x="887" y="1372"/>
      <point x="987" y="1408"/>
      <point x="1007" y="1510" type="curve" smooth="yes"/>
      <point x="1026" y="1608"/>
      <point x="950" y="1664"/>
    </contour>
  </outline>
</glyph>
<glyph name="acute" format="2">
  <advance width="1240"/>
  <unicode hex="00B4"/>
  <outline>
    <contour>
      <point x="815" y="1274" type="line"/>
      <point x="706" y="1274" type="line"/>
      <point x="990" y="1597" type="line"/>
      <point x="1130" y="1597" type="line"/>
    </contour>
  </outline>
</glyph>
<glyph name="micro" format="2">
  <advance width="1240"/>
  <unicode hex="00B5"/>
  <outline>
    <contour>
      <point x="853" y="276" type="line"/>
      <point x="857" y="262" type="line"/>
      <point x="806" y="0" type="line"/>
      <point x="923" y="0" type="line"/>
      <point x="1117" y="1000" type="line"/>
      <point x="993" y="1000" type="line"/>
    </contour>
    <contour>
      <point x="169" y="-400" type="line"/>
      <point x="278" y="162" type="line"/>
      <point x="197" y="195" type="line"/>
      <point x="184" y="72"/>
      <point x="245" y="-23"/>
      <point x="432" y="-23" type="curve" smooth="yes"/>
      <point x="619" y="-23"/>
      <point x="749" y="72"/>
      <point x="834" y="175" type="curve"/>
      <point x="874" y="175" type="line"/>
      <point x="876" y="328" type="line"/>
      <point x="777" y="169"/>
      <point x="645" y="83"/>
      <point x="490" y="83" type="curve" smooth="yes"/>
      <point x="371" y="83"/>
      <point x="273" y="134"/>
      <point x="312" y="333" type="curve" smooth="yes"/>
      <point x="441" y="1000" type="line"/>
      <point x="317" y="1000" type="line"/>
      <point x="45" y="-400" type="line"/>
    </contour>
  </outline>
</glyph>
<glyph name="periodcentered" format="2">
  <advance width="1240"/>
  <unicode hex="00B7"/>
  <outline>
    <contour>
      <point x="622" y="490" type="curve" smooth="yes"/>
      <point x="711" y="490"/>
      <point x="788" y="544"/>
      <point x="807" y="641" type="curve" smooth="yes"/>
      <point x="826" y="740"/>
      <point x="764" y="800"/>
      <point x="675" y="800" type="curve" smooth="yes"/>
      <point x="587" y="800"/>
      <point x="510" y="748"/>
      <point x="491" y="649" type="curve" smooth="yes"/>
      <point x="472" y="552"/>
      <point x="534" y="490"/>
    </contour>
  </outline>
</glyph>
<glyph name="guillemetright" format="2">
  <advance width="1240"/>
  <unicode hex="00BB"/>
  <outline>
    <contour>
      <point x="780" y="963" type="line"/>
      <point x="1030" y="459" type="line"/>
      <point x="1140" y="498" type="line"/>
      <point x="883" y="1022" type="line"/>
    </contour>
    <contour>
      <point x="679" y="-26" type="line"/>
      <point x="1140" y="498" type="line"/>
      <point x="1049" y="544" type="line"/>
      <point x="601" y="41" type="line"/>
    </contour>
    <contour>
      <point x="271" y="967" type="line"/>
      <point x="521" y="463" type="line"/>
      <point x="631" y="502" type="line"/>
      <point x="373" y="1026" type="line"/>
    </contour>
    <contour>
      <point x="170" y="-22" type="line"/>
      <point x="631" y="502" type="line"/>
      <point x="540" y="548" type="line"/>
      <point x="92" y="45" type="line"/>
    </contour>
  </outline>
</glyph>
<glyph name="Oacute" format="2">
  <advance width="1240"/>
  <unicode hex="00D3"/>
  <outline>
    <contour>
      <point x="413" y="0" type="line"/>
      <point x="632" y="0" type="line"/>
      <point x="1118" y="540" type="line"/>
      <point x="1194" y="930" type="line"/>
      <point x="936" y="1460" type="line"/>
      <point x="697" y="1460" type="line"/>
      <point x="214" y="930" type="line"/>
      <point x="138" y="540" type="line"/>
    </contour>
    <contour>
      <point x="480" y="110" type="line"/>
      <point x="266" y="550" type="line"/>
      <point x="330" y="880" type="line"/>
      <point x="749" y="1350" type="line"/>
      <point x="856" y="1350" type="line"/>
      <point x="1066" y="920" type="line"/>
      <point x="1002" y="590" type="line"/>
      <point x="587" y="110" type="line"/>
    </contour>
    <contour>
      <point x="889" y="1650" type="line"/>
      <point x="780" y="1650" type="line"/>
      <point x="1047" y="1883" type="line"/>
      <point x="1187" y="1883" type="line"/>
    </contour>
  </outline>
</glyph>
<glyph name="Otilde" format="2">
  <advance width="1240"/>
  <unicode hex="00D5"/>
  <outline>
    <contour>
      <point x="413" y="0" type="line"/>
      <point x="632" y="0" type="line"/>
      <point x="1118" y="540" type="line"/>
      <point x="1194" y="930" type="line"/>
      <point x="936" y="1460" type="line"/>
      <point x="697" y="1460" type="line"/>
      <point x="214" y="930" type="line"/>
      <point x="138" y="540" type="line"/>
    </contour>
    <contour>
      <point x="480" y="110" type="line"/>
      <point x="266" y="550" type="line"/>
      <point x="330" y="880" type="line"/>
      <point x="749" y="1350" type="line"/>
      <point x="856" y="1350" type="line"/>
      <point x="1066" y="920" type="line"/>
      <point x="1002" y="590" type="line"/>
      <point x="587" y="110" type="line"/>
    </contour>
    <contour>
      <point x="834" y="1893" type="line"/>
      <point x="664" y="1893" type="line"/>
      <point x="519" y="1765" type="line"/>
      <point x="495" y="1643" type="line"/>
      <point x="585" y="1643" type="line"/>
      <point x="603" y="1734" type="line"/>
      <point x="685" y="1805" type="line"/>
      <point x="776" y="1805" type="line"/>
      <point x="899" y="1643" type="line"/>
      <point x="1069" y="1643" type="line"/>
      <point x="1214" y="1771" type="line"/>
      <point x="1238" y="1893" type="line"/>
      <point x="1148" y="1893" type="line"/>
      <point x="1130" y="1802" type="line"/>
      <point x="1048" y="1731" type="line"/>
      <point x="957" y="1731" type="line"/>
    </contour>
  </outline>
</glyph>
<glyph name="multiply" format="2">
  <advance width="1240"/>
  <unicode hex="00D7"/>
  <outline>
    <contour>
      <point x="296" y="997" type="line"/>
      <point x="911" y="219" type="line"/>
      <point x="1001" y="295" type="line"/>
      <point x="387" y="1073" type="line"/>
    </contour>
    <contour>
      <point x="219" y="221" type="line"/>
      <point x="1139" y="987" type="line"/>
      <point x="1078" y="1071" type="line"/>
      <point x="158" y="306" type="line"/>
    </contour>
  </outline>
</glyph>
<glyph name="Oslash" format="2">
  <advance width="1240"/>
  <unicode hex="00D8"/>
  <outline>
    <contour>
      <point x="366" y="254" type="line"/>
      <point x="1046" y="1144" type="line"/>
      <point x="975" y="1221" type="line"/>
      <point x="302" y="340" type="line"/>
    </contour>
    <contour>
      <point x="116" y="-75" type="line"/>
      <point x="380" y="267" type="line"/>
      <point x="310" y="364" type="line"/>
      <point x="19" y="-13" type="line"/>
    </contour>
    <contour>
      <point x="1039" y="1120" type="line"/>
      <point x="1315" y="1478" type="line"/>
      <point x="1217" y="1540" type="line"/>
      <point x="961" y="1208" type="line"/>
    </contour>
    <contour>
      <point x="413" y="0" type="line"/>
      <point x="632" y="0" type="line"/>
      <point x="1118" y="540" type="line"/>
      <point x="1194" y="930" type="line"/>
      <point x="936" y="1460" type="line"/>
      <point x="697" y="1460" type="line"/>
      <point x="214" y="930" type="line"/>
      <point x="138" y="540" type="line"/>
    </contour>
    <contour>
      <point x="480" y="110" type="line"/>
      <point x="266" y="550" type="line"/>
      <point x="330" y="880" type="line"/>
      <point x="749" y="1350" type="line"/>
      <point x="856" y="1350" type="line"/>
      <point x="1066" y="920" type="line"/>
      <point x="1002" y="590" type="line"/>
      <point x="587" y="110" type="line"/>
    </contour>
  </outline>
</glyph>
<glyph name="Uacute" format="2">
  <advance width="1240"/>
  <unicode hex="00DA"/>
  <outline>
    <contour>
      <point x="270" y="0" type="line"/>
      <point x="776" y="0" type="line"/>
      <point x="974" y="198" type="line"/>
      <point x="1220" y="1460" type="line"/>
      <point x="1094" y="1460" type="line"/>
      <point x="859" y="252" type="line"/>
      <point x="724" y="110" type="line"/>
      <point x="354" y="110" type="line"/>
      <point x="283" y="242" type="line"/>
      <point x="520" y="1460" type="line"/>
      <point x="394" y="1460" type="line"/>
      <point x="150" y="208" type="line"/>
    </contour>
    <contour>
      <point x="889" y="1650" type="line"/>
      <point x="780" y="1650" type="line"/>
      <point x="1047" y="1883" type="line"/>
      <point x="1187" y="1883" type="line"/>
    </contour>
  </outline>
</glyph>
<glyph name="Ucircumflex" format="2">
  <advance width="1240"/>
  <unicode hex="00DB"/>
  <outline>
    <contour>
      <point x="270" y="0" type="line"/>
      <point x="776" y="0" type="line"/>
      <point x="974" y="198" type="line"/>
      <point x="1220" y="1460" type="line"/>
      <point x="1094" y="1460" type="line"/>
      <point x="859" y="252" type="line"/>
      <point x="724" y="110" type="line"/>
      <point x="354" y="110" type="line"/>
      <point x="283" y="242" type="line"/>
      <point x="520" y="1460" type="line"/>
      <point x="394" y="1460" type="line"/>
      <point x="150" y="208" type="line"/>
    </contour>
    <contour>
      <point x="522" y="1650" type="line"/>
      <point x="653" y="1650" type="line"/>
      <point x="911" y="1854" type="line"/>
      <point x="855" y="1854" type="line"/>
      <point x="1035" y="1650" type="line"/>
      <point x="1166" y="1650" type="line"/>
      <point x="947" y="1883" type="line"/>
      <point x="831" y="1883" type="line"/>
    </contour>
  </outline>
</glyph>
<glyph name="atilde" format="2">
  <advance width="1240"/>
  <unicode hex="00E3"/>
  <outline>
    <contour>
      <point x="877" y="0" type="line"/>
      <point x="953" y="0" type="line"/>
      <point x="1109" y="802" type="line"/>
      <point x="958" y="1000" type="line"/>
      <point x="387" y="1000" type="line"/>
      <point x="348" y="902" type="line"/>
      <point x="893" y="902" type="line"/>
      <point x="987" y="772" type="line"/>
      <point x="871" y="176" type="line"/>
    </contour>
    <contour>
      <point x="314" y="-23" type="line"/>
      <point x="916" y="154" type="line"/>
      <point x="932" y="236" type="line"/>
      <point x="364" y="83" type="line"/>
      <point x="197" y="243" type="line"/>
      <point x="221" y="365" type="line"/>
      <point x="428" y="486" type="line"/>
      <point x="980" y="486" type="line"/>
      <point x="1000" y="586" type="line"/>
      <point x="403" y="586" type="line"/>
      <point x="122" y="423" type="line"/>
      <point x="80" y="208" type="line"/>
    </contour>
    <contour>
      <point x="785" y="1577" type="line"/>
      <point x="607" y="1577" type="line"/>
      <point x="456" y="1419" type="line"/>
      <point x="426" y="1267" type="line"/>
      <point x="516" y="1267" type="line"/>
      <point x="540" y="1388" type="line"/>
      <point x="637" y="1489" type="line"/>
      <point x="710" y="1489" type="line"/>
      <point x="822" y="1267" type="line"/>
      <point x="1000" y="1267" type="line"/>
      <point x="1151" y="1425" type="line"/>
      <point x="1181" y="1577" type="line"/>
      <point x="1091" y="1577" type="line"/>
      <point x="1067" y="1456" type="line"/>
      <point x="969" y="1355" type="line"/>
      <point x="896" y="1355" type="line"/>
    </contour>
  </outline>
</glyph>
<glyph name="aring" format="2">
  <advance width="1240"/>
  <unicode hex="00E5"/>
  <outline>
    <contour>
      <point x="877" y="0" type="line"/>
      <point x="953" y="0" type="line"/>
      <point x="1109" y="802" type="line"/>
      <point x="958" y="1000" type="line"/>
      <point x="387" y="1000" type="line"/>
      <point x="348" y="902" type="line"/>
      <point x="893" y="902" type="line"/>
      <point x="987" y="772" type="line"/>
      <point x="871" y="176" type="line"/>
    </contour>
    <contour>
      <point x="314" y="-23" type="line"/>
      <point x="916" y="154" type="line"/>
      <point x="932" y="236" type="line"/>
      <point x="364" y="83" type="line"/>
      <point x="197" y="243" type="line"/>
      <point x="221" y="365" type="line"/>
      <point x="428" y="486" type="line"/>
      <point x="980" y="486" type="line"/>
      <point x="1000" y="586" type="line"/>
      <point x="403" y="586" type="line"/>
      <point x="122" y="423" type="line"/>
      <point x="80" y="208" type="line"/>
    </contour>
    <contour>
      <point x="672" y="1215" type="line"/>
      <point x="846" y="1215" type="line"/>
      <point x="1017" y="1372" type="line"/>
      <point x="1043" y="1506" type="line"/>
      <point x="933" y="1662" type="line"/>
      <point x="759" y="1662" type="line"/>
      <point x="589" y="1505" type="line"/>
      <point x="562" y="1371" type="line"/>
    </contour>
    <contour>
      <point x="664" y="1409" type="line"/>
      <point x="675" y="1468" type="line"/>
      <point x="789" y="1574" type="line"/>
      <point x="869" y="1574" type="line"/>
      <point x="941" y="1468" type="line"/>
      <point x="930" y="1409" type="line"/>
      <point x="816" y="1303" type="line"/>
      <point x="736" y="1303" type="line"/>
    </contour>
  </outline>
</glyph>
<glyph name="igrave" format="2">
  <advance width="1240"/>
  <unicode hex="00EC"/>
  <outline>
    <contour>
      <point x="530" y="0" type="line"/>
      <point x="654" y="0" type="line"/>
      <point x="836" y="935" type="line"/>
      <point x="787" y="1000" type="line"/>
      <point x="312" y="1000" type="line"/>
      <point x="273" y="902" type="line"/>
      <point x="751" y="902" type="line"/>
      <point x="712" y="938" type="line"/>
    </contour>
    <contour>
      <point x="666" y="1274" type="line"/>
      <point x="775" y="1274" type="line"/>
      <point x="615" y="1597" type="line"/>
      <point x="475" y="1597" type="line"/>
    </contour>
  </outline>
</glyph>
<glyph name="idieresis" format="2">
  <advance width="1240"/>
  <unicode hex="00EF"/>
  <outline>
    <contour>
      <point x="529" y="0" type="line"/>
      <point x="653" y="0" type="line"/>
      <point x="835" y="935" type="line"/>
      <point x="786" y="1000" type="line"/>
      <point x="311" y="1000" type="line"/>
      <point x="272" y="902" type="line"/>
      <point x="750" y="902" type="line"/>
      <point x="711" y="938" type="line"/>
    </contour>
    <contour>
      <point x="464" y="1276" type="line"/>
      <point x="623" y="1406" type="line"/>
      <point x="514" y="1536" type="line"/>
      <point x="355" y="1406" type="line"/>
    </contour>
    <contour>
      <point x="957" y="1276" type="line"/>
      <point x="1116" y="1406" type="line"/>
      <point x="1007" y="1536" type="line"/>
      <point x="848" y="1406" type="line"/>
    </contour>
  </outline>
</glyph>
<glyph name="ucircumflex" format="2">
  <advance width="1240"/>
  <unicode hex="00FB"/>
  <outline>
    <contour>
      <point x="444" y="1000" type="line"/>
      <point x="318" y="1000" type="line"/>
      <point x="168" y="228" type="line"/>
      <point x="363" y="-23" type="line"/>
      <point x="909" y="136" type="line"/>
      <point x="925" y="218" type="line"/>
      <point x="423" y="93" type="line"/>
      <point x="301" y="263" type="line"/>
    </contour>
    <contour>
      <point x="1116" y="1000" type="line"/>
      <point x="992" y="1000" type="line"/>
      <point x="821" y="117" type="line"/>
      <point x="835" y="0" type="line"/>
      <point x="922" y="0" type="line"/>
    </contour>
    <contour>
      <point x="449" y="1274" type="line"/>
      <point x="570" y="1274" type="line"/>
      <point x="855" y="1562" type="line"/>
      <point x="799" y="1562" type="line"/>
      <point x="972" y="1274" type="line"/>
      <point x="1093" y="1274" type="line"/>
      <point x="881" y="1597" type="line"/>
      <point x="785" y="1597" type="line"/>
    </contour>
  </outline>
</glyph>
<glyph name="ydieresis" format="2">
  <advance width="1240"/>
  <unicode hex="00FF"/>
  <outline>
    <contour>
      <point x="95" y="-400" type="line"/>
      <point x="606" y="-400" type="line"/>
      <point x="901" y="-112" type="line"/>
      <point x="1117" y="1000" type="line"/>
      <point x="1001" y="1000" type="line"/>
      <point x="864" y="294" type="line"/>
      <point x="856" y="254" type="line"/>
      <point x="791" y="-82" type="line"/>
      <point x="569" y="-302" type="line"/>
      <point x="94" y="-302" type="line"/>
    </contour>
    <contour>
      <point x="385" y="90" type="line"/>
      <point x="921" y="243" type="line"/>
      <point x="938" y="329" type="line"/>
      <point x="435" y="203" type="line"/>
      <point x="284" y="383" type="line"/>
      <point x="404" y="1000" type="line"/>
      <point x="281" y="1000" type="line"/>
      <point x="155" y="348" type="line"/>
    </contour>
    <contour>
      <point x="525" y="1276" type="line"/>
      <point x="684" y="1406" type="line"/>
      <point x="575" y="1536" type="line"/>
      <point x="416" y="1406" type="line"/>
    </contour>
    <contour>
      <point x="1018" y="1276" type="line"/>
      <point x="1177" y="1406" type="line"/>
      <point x="1068" y="1536" type="line"/>
      <point x="909" y="1406" type="line"/>
    </contour>
  </outline>
</glyph>
<glyph name="Abreve" format="2">
  <advance width="1240"/>
  <unicode hex="0102"/>
  <outline>
    <contour>
      <point x="110" y="0" type="line"/>
      <point x="240" y="0" type="line"/>
      <point x="399" y="819" type="line"/>
      <point x="813" y="1370" type="line"/>
      <point x="776" y="1385" type="line"/>
      <point x="979" y="848" type="line"/>
      <point x="814" y="0" type="line"/>
      <point x="936" y="0" type="line"/>
      <point x="1103" y="861" type="line"/>
      <point x="880" y="1460" type="line"/>
      <point x="734" y="1460" type="line"/>
      <point x="277" y="861" type="line"/>
    </contour>
    <contour>
      <point x="276" y="449" type="line"/>
      <point x="939" y="449" type="line"/>
      <point x="959" y="552" type="line"/>
      <point x="296" y="552" type="line"/>
    </contour>
    <contour>
      <point x="695" y="1643" type="line"/>
      <point x="989" y="1643" type="line"/>
      <point x="1132" y="1760" type="line"/>
      <point x="1156" y="1883" type="line"/>
      <point x="1066" y="1883" type="line"/>
      <point x="1049" y="1797" type="line"/>
      <point x="966" y="1731" type="line"/>
      <point x="752" y="1731" type="line"/>
      <point x="695" y="1797" type="line"/>
      <point x="712" y="1883" type="line"/>
      <point x="622" y="1883" type="line"/>
      <point x="598" y="1759" type="line"/>
    </contour>
  </outline>
</glyph>
<glyph name="dcaron" format="2">
  <advance width="1240"/>
  <unicode hex="010F"/>
  <outline>
    <contour>
      <point x="802" y="0" type="line"/>
      <point x="892" y="0" type="line"/>
      <point x="1189" y="1530" type="line"/>
      <point x="1062" y="1510" type="line"/>
      <point x="957" y="974" type="line"/>
      <point x="961" y="943" type="line"/>
      <point x="804" y="136" type="line"/>
    </contour>
    <contour>
      <point x="1009" y="1000" type="line"/>
      <point x="544" y="1000" type="line"/>
      <point x="183" y="692" type="line"/>
      <point x="92" y="228" type="line"/>
      <point x="335" y="-23" type="line"/>
      <point x="841" y="136" type="line"/>
      <point x="859" y="224" type="line"/>
      <point x="396" y="99" type="line"/>
      <point x="223" y="269" type="line"/>
      <point x="299" y="659" type="line"/>
      <point x="585" y="906" type="line"/>
      <point x="991" y="906" type="line"/>
    </contour>
    <contour>
      <point x="1306" y="1282" type="line"/>
      <point x="1403" y="1282" type="line"/>
      <point x="1510" y="1618" type="line"/>
      <point x="1389" y="1618" type="line"/>
    </contour>
  </outline>
</glyph>
<glyph name="dcroat" format="2">
  <advance width="1240"/>
  <unicode hex="0111"/>
  <outline>
    <contour>
      <point x="594" y="1231" type="line"/>
      <point x="1314" y="1231" type="line"/>
      <point x="1334" y="1330" type="line"/>
      <point x="1134" y="1330" type="line"/>
      <point x="1105" y="1330" type="line"/>
      <point x="614" y="1330" type="line"/>
    </contour>
    <contour>
      <point x="852" y="0" type="line"/>
      <point x="942" y="0" type="line"/>
      <point x="1239" y="1530" type="line"/>
      <point x="1112" y="1510" type="line"/>
      <point x="1000" y="934" type="line"/>
      <point x="1004" y="903" type="line"/>
      <point x="854" y="136" type="line"/>
    </contour>
    <contour>
      <point x="1052" y="960" type="line"/>
      <point x="567" y="960" type="line"/>
      <point x="205" y="652" type="line"/>
      <point x="122" y="228" type="line"/>
      <point x="365" y="-23" type="line"/>
      <point x="891" y="136" type="line"/>
      <point x="909" y="224" type="line"/>
      <point x="426" y="99" type="line"/>
      <point x="253" y="269" type="line"/>
      <point x="321" y="619" type="line"/>
      <point x="607" y="866" type="line"/>
      <point x="1033" y="866" type="line"/>
    </contour>
  </outline>
</glyph>
<glyph name="Edotaccent" format="2">
  <advance width="1240"/>
  <unicode hex="0116"/>
  <outline>
    <contour>
      <point x="246" y="0" type="line"/>
      <point x="530" y="1460" type="line"/>
      <point x="404" y="1460" type="line"/>
      <point x="120" y="0" type="line"/>
    </contour>
    <contour>
      <point x="1002" y="110" type="line"/>
      <point x="226" y="110" type="line"/>
      <point x="205" y="0" type="line"/>
      <point x="961" y="0" type="line"/>
    </contour>
    <contour>
      <point x="969" y="779" type="line"/>
      <point x="356" y="779" type="line"/>
      <point x="336" y="674" type="line"/>
      <point x="949" y="674" type="line"/>
    </contour>
    <contour>
      <point x="1203" y="1350" type="line"/>
      <point x="1205" y="1460" type="line"/>
      <point x="489" y="1460" type="line"/>
      <point x="467" y="1350" type="line"/>
    </contour>
    <contour>
      <point x="869" y="1626" type="line"/>
      <point x="1031" y="1756" type="line"/>
      <point x="920" y="1886" type="line"/>
      <point x="757" y="1756" type="line"/>
    </contour>
  </outline>
</glyph>
<glyph name="edotaccent" format="2">
  <advance width="1240"/>
  <unicode hex="0117"/>
  <outline>
    <contour>
      <point x="403" y="0" type="line"/>
      <point x="892" y="0" type="line"/>
      <point x="931" y="98" type="line"/>
      <point x="468" y="98" type="line"/>
      <point x="260" y="365" type="line"/>
      <point x="311" y="627" type="line"/>
      <point x="584" y="902" type="line"/>
      <point x="934" y="902" type="line"/>
      <point x="1012" y="814" type="line"/>
      <point x="985" y="674" type="line"/>
      <point x="874" y="594" type="line"/>
      <point x="246" y="594" type="line"/>
      <point x="228" y="497" type="line"/>
      <point x="921" y="497" type="line"/>
      <point x="1081" y="621" type="line"/>
      <point x="1126" y="855" type="line"/>
      <point x="1002" y="1000" type="line"/>
      <point x="547" y="1000" type="line"/>
      <point x="203" y="670" type="line"/>
      <point x="137" y="330" type="line"/>
    </contour>
    <contour>
      <point x="811" y="1276" type="line"/>
      <point x="973" y="1406" type="line"/>
      <point x="862" y="1536" type="line"/>
      <point x="699" y="1406" type="line"/>
    </contour>
  </outline>
</glyph>
<glyph name="Gbreve" format="2">
  <advance width="1240"/>
  <unicode hex="011E"/>
  <outline>
    <contour>
      <point x="413" y="0" type="line"/>
      <point x="903" y="0" type="line"/>
      <point x="1027" y="114" type="line"/>
      <point x="1153" y="763" type="line"/>
      <point x="707" y="763" type="line"/>
      <point x="687" y="659" type="line"/>
      <point x="1078" y="659" type="line"/>
      <point x="1030" y="704" type="line"/>
      <point x="927" y="176" type="line"/>
      <point x="854" y="110" type="line"/>
      <point x="495" y="110" type="line"/>
      <point x="269" y="565" type="line"/>
      <point x="331" y="885" type="line"/>
      <point x="755" y="1350" type="line"/>
      <point x="1215" y="1350" type="line"/>
      <point x="1217" y="1460" type="line"/>
      <point x="697" y="1460" type="line"/>
      <point x="214" y="930" type="line"/>
      <point x="138" y="540" type="line"/>
    </contour>
    <contour>
      <point x="765" y="1643" type="line"/>
      <point x="1059" y="1643" type="line"/>
      <point x="1202" y="1760" type="line"/>
      <point x="1226" y="1883" type="line"/>
      <point x="1136" y="1883" type="line"/>
      <point x="1119" y="1797" type="line"/>
      <point x="1036" y="1731" type="line"/>
      <point x="822" y="1731" type="line"/>
      <point x="765" y="1797" type="line"/>
      <point x="782" y="1883" type="line"/>
      <point x="692" y="1883" type="line"/>
      <point x="668" y="1759" type="line"/>
    </contour>
  </outline>
</glyph>
<glyph name="Hbar" format="2">
  <advance width="1240"/>
  <unicode hex="0126"/>
  <outline>
    <contour>
      <point x="157" y="1102" type="line"/>
      <point x="1317" y="1102" type="line"/>
      <point x="1339" y="1212" type="line"/>
      <point x="179" y="1212" type="line"/>
    </contour>
    <contour>
      <point x="810" y="0" type="line"/>
      <point x="936" y="0" type="line"/>
      <point x="1220" y="1460" type="line"/>
      <point x="1094" y="1460" type="line"/>
    </contour>
    <contour>
      <point x="110" y="0" type="line"/>
      <point x="236" y="0" type="line"/>
      <point x="520" y="1460" type="line"/>
      <point x="394" y="1460" type="line"/>
    </contour>
    <contour>
      <point x="317" y="709" type="line"/>
      <point x="1009" y="709" type="line"/>
      <point x="1028" y="810" type="line"/>
      <point x="336" y="810" type="line"/>
    </contour>
  </outline>
</glyph>
<glyph name="hbar" format="2">
  <advance width="1240"/>
  <unicode hex="0127"/>
  <outline>
    <contour>
      <point x="210" y="1231" type="line"/>
      <point x="930" y="1231" type="line"/>
      <point x="950" y="1330" type="line"/>
      <point x="459" y="1330" type="line"/>
      <point x="430" y="1330" type="line"/>
      <point x="230" y="1330" type="line"/>
    </contour>
    <contour>
      <point x="796" y="0" type="line"/>
      <point x="922" y="0" type="line"/>
      <point x="1064" y="732" type="line"/>
      <point x="870" y="983" type="line"/>
      <point x="323" y="824" type="line"/>
      <point x="307" y="742" type="line"/>
      <point x="810" y="867" type="line"/>
      <point x="931" y="697" type="line"/>
    </contour>
    <contour>
      <point x="124" y="0" type="line"/>
      <point x="248" y="0" type="line"/>
      <point x="545" y="1530" type="line"/>
      <point x="418" y="1510" type="line"/>
    </contour>
  </outline>
</glyph>
<glyph name="Idotaccent" format="2">
  <advance width="1240"/>
  <unicode hex="0130"/>
  <outline>
    <contour>
      <point x="450" y="0" type="line"/>
      <point x="576" y="0" type="line"/>
      <point x="860" y="1460" type="line"/>
      <point x="734" y="1460" type="line"/>
    </contour>
    <contour>
      <point x="75" y="0" type="line"/>
      <point x="971" y="0" type="line"/>
      <point x="1012" y="110" type="line"/>
      <point x="76" y="110" type="line"/>
    </contour>
    <contour>
      <point x="317" y="1350" type="line"/>
      <point x="1253" y="1350" type="line"/>
      <point x="1255" y="1460" type="line"/>
      <point x="359" y="1460" type="line"/>
    </contour>
    <contour>
      <point x="839" y="1626" type="line"/>
      <point x="1001" y="1756" type="line"/>
      <point x="890" y="1886" type="line"/>
      <point x="727" y="1756" type="line"/>
    </contour>
  </outline>
</glyph>
<glyph name="kgreenlandic" format="2">
  <advance width="1240"/>
  <unicode hex="0138"/>
  <outline>
    <contour>
      <point x="842" y="0" type="line"/>
      <point x="966" y="0" type="line"/>
      <point x="1006" y="206" type="line"/>
      <point x="690" y="574" type="line"/>
      <point x="681" y="532" type="line"/>
      <point x="1216" y="1000" type="line"/>
      <point x="1072" y="1000" type="line"/>
      <point x="557" y="552" type="line"/>
      <point x="653" y="598" type="line"/>
      <point x="320" y="598" type="line"/>
      <point x="300" y="493" type="line"/>
      <point x="625" y="493" type="line"/>
      <point x="574" y="516" type="line"/>
      <point x="877" y="178" type="line"/>
    </contour>
    <contour>
      <point x="124" y="0" type="line"/>
      <point x="248" y="0" type="line"/>
      <point x="442" y="1000" type="line"/>
      <point x="318" y="1000" type="line"/>
    </contour>
  </outline>
</glyph>
<glyph name="Lacute" format="2">
  <advance width="1240"/>
  <unicode hex="0139"/>
  <outline>
    <contour>
      <point x="110" y="0" type="line"/>
      <point x="236" y="0" type="line"/>
      <point x="520" y="1460" type="line"/>
      <point x="394" y="1460" type="line"/>
    </contour>
    <contour>
      <point x="195" y="0" type="line"/>
      <point x="1001" y="0" type="line"/>
      <point x="1042" y="110" type="line"/>
      <point x="216" y="110" type="line"/>
    </contour>
    <contour>
      <point x="562" y="1650" type="line"/>
      <point x="453" y="1650" type="line"/>
      <point x="720" y="1883" type="line"/>
      <point x="860" y="1883" type="line"/>
    </contour>
  </outline>
</glyph>
<glyph name="Lcommaaccent" format="2">
  <advance width="1240"/>
  <unicode hex="013B"/>
  <outline>
    <contour>
      <point x="110" y="0" type="line"/>
      <point x="236" y="0" type="line"/>
      <point x="520" y="1460" type="line"/>
      <point x="394" y="1460" type="line"/>
    </contour>
    <contour>
      <point x="195" y="0" type="line"/>
      <point x="1001" y="0" type="line"/>
      <point x="1042" y="110" type="line"/>
      <point x="216" y="110" type="line"/>
    </contour>
    <contour>
      <point x="328" y="-527" type="line"/>
      <point x="481" y="-527" type="line"/>
      <point x="491" y="-471" type="line"/>
      <point x="264" y="-707" type="line"/>
      <point x="331" y="-747" type="line"/>
      <point x="543" y="-527" type="line"/>
      <point x="584" y="-312" type="line"/>
      <point x="369" y="-312" type="line"/>
    </contour>
  </outline>
</glyph>
<glyph name="lcommaaccent" format="2">
  <advance width="1240"/>
  <unicode hex="013C"/>
  <outline>
    <contour>
      <point x="617" y="0" type="line"/>
      <point x="978" y="0" type="line"/>
      <point x="1017" y="98" type="line"/>
      <point x="686" y="98" type="line"/>
      <point x="555" y="312" type="line"/>
      <point x="779" y="1465" type="line"/>
      <point x="730" y="1530" type="line"/>
      <point x="325" y="1530" type="line"/>
      <point x="286" y="1432" type="line"/>
      <point x="694" y="1432" type="line"/>
      <point x="663" y="1468" type="line"/>
      <point x="434" y="288" type="line"/>
    </contour>
    <contour>
      <point x="328" y="-527" type="line"/>
      <point x="481" y="-527" type="line"/>
      <point x="491" y="-471" type="line"/>
      <point x="264" y="-707" type="line"/>
      <point x="331" y="-747" type="line"/>
      <point x="543" y="-527" type="line"/>
      <point x="584" y="-312" type="line"/>
      <point x="369" y="-312" type="line"/>
    </contour>
  </outline>
</glyph>
<glyph name="Lcaron" format="2">
  <advance width="1240"/>
  <unicode hex="013D"/>
  <outline>
    <contour>
      <point x="110" y="0" type="line"/>
      <point x="236" y="0" type="line"/>
      <point x="520" y="1460" type="line"/>
      <point x="394" y="1460" type="line"/>
    </contour>
    <contour>
      <point x="195" y="0" type="line"/>
      <point x="1001" y="0" type="line"/>
      <point x="1042" y="110" type="line"/>
      <point x="216" y="110" type="line"/>
    </contour>
    <contour>
      <point x="705" y="1212" type="line"/>
      <point x="802" y="1212" type="line"/>
      <point x="908" y="1548" type="line"/>
      <point x="787" y="1548" type="line"/>
    </contour>
  </outline>
</glyph>
<glyph name="lslash" format="2">
  <advance width="1240"/>
  <unicode hex="0142"/>
  <outline>
    <contour>
      <point x="282" y="607" type="line"/>
      <point x="1068" y="957" type="line"/>
      <point x="1090" y="1072" type="line"/>
      <point x="304" y="722" type="line"/>
    </contour>
    <contour>
      <point x="617" y="0" type="line"/>
      <point x="978" y="0" type="line"/>
      <point x="1017" y="98" type="line"/>
      <point x="686" y="98" type="line"/>
      <point x="555" y="312" type="line"/>
      <point x="779" y="1465" type="line"/>
      <point x="730" y="1530" type="line"/>
      <point x="325" y="1530" type="line"/>
      <point x="286" y="1432" type="line"/>
      <point x="694" y="1432" type="line"/>
      <point x="663" y="1468" type="line"/>
      <point x="434" y="288" type="line"/>
    </contour>
  </outline>
</glyph>
<glyph name="Ncaron" format="2">
  <advance width="1240"/>
  <unicode hex="0147"/>
  <outline>
    <contour>
      <point x="110" y="0" type="line"/>
      <point x="230" y="0" type="line"/>
      <point x="471" y="1240" type="line"/>
      <point x="483" y="1240" type="line"/>
      <point x="799" y="1" type="line"/>
      <point x="936" y="1" type="line"/>
      <point x="1220" y="1461" type="line"/>
      <point x="1100" y="1461" type="line"/>
      <point x="867" y="264" type="line"/>
      <point x="855" y="264" type="line"/>
      <point x="546" y="1460" type="line"/>
      <point x="394" y="1460" type="line"/>
    </contour>
    <contour>
      <point x="567" y="1883" type="line"/>
      <point x="698" y="1883" type="line"/>
      <point x="877" y="1679" type="line"/>
      <point x="821" y="1679" type="line"/>
      <point x="1080" y="1883" type="line"/>
      <point x="1211" y="1883" type="line"/>
      <point x="902" y="1650" type="line"/>
      <point x="786" y="1650" type="line"/>
    </contour>
  </outline>
</glyph>
<glyph name="ncaron" format="2">
  <advance width="1240"/>
  <unicode hex="0148"/>
  <outline>
    <contour>
      <point x="796" y="0" type="line"/>
      <point x="922" y="0" type="line"/>
      <point x="1072" y="772" type="line"/>
      <point x="878" y="1023" type="line"/>
      <point x="331" y="864" type="line"/>
      <point x="315" y="782" type="line"/>
      <point x="817" y="907" type="line"/>
      <point x="939" y="737" type="line"/>
    </contour>
    <contour>
      <point x="124" y="0" type="line"/>
      <point x="248" y="0" type="line"/>
      <point x="420" y="883" type="line"/>
      <point x="405" y="1000" type="line"/>
      <point x="318" y="1000" type="line"/>
    </contour>
    <contour>
      <point x="511" y="1597" type="line"/>
      <point x="632" y="1597" type="line"/>
      <point x="805" y="1309" type="line"/>
      <point x="749" y="1309" type="line"/>
      <point x="1034" y="1597" type="line"/>
      <point x="1155" y="1597" type="line"/>
      <point x="819" y="1274" type="line"/>
      <point x="723" y="1274" type="line"/>
    </contour>
  </outline>
</glyph>
<glyph name="Eng" format="2">
  <advance width="1240"/>
  <unicode hex="014A"/>
  <outline>
    <contour>
      <point x="841" y="-147" type="line"/>
      <point x="953" y="0" type="line"/>
      <point x="1237" y="1460" type="line"/>
      <point x="1117" y="1460" type="line"/>
      <point x="881" y="247" type="line"/>
      <point x="869" y="247" type="line"/>
      <point x="527" y="1460" type="line"/>
      <point x="377" y="1460" type="line"/>
      <point x="93" y="0" type="line"/>
      <point x="213" y="0" type="line"/>
      <point x="456" y="1248" type="line"/>
      <point x="468" y="1248" type="line"/>
    </contour>
    <contour>
      <point x="722" y="-400" type="line"/>
      <point x="916" y="-192" type="line"/>
      <point x="961" y="40" type="line"/>
      <point x="843" y="40" type="line"/>
      <point x="804" y="-162" type="line"/>
      <point x="677" y="-302" type="line"/>
      <point x="542" y="-302" type="line"/>
      <point x="543" y="-400" type="line"/>
    </contour>
  </outline>
</glyph>
<glyph name="eng" format="2">
  <advance width="1240"/>
  <unicode hex="014B"/>
  <outline>
    <contour>
      <point x="932" y="50" type="line"/>
      <point x="806" y="50" type="line"/>
      <point x="765" y="-162" type="line"/>
      <point x="642" y="-302" type="line"/>
      <point x="507" y="-302" type="line"/>
      <point x="508" y="-400" type="line"/>
      <point x="687" y="-400" type="line"/>
      <point x="885" y="-192" type="line"/>
    </contour>
    <contour>
      <point x="796" y="0" type="line"/>
      <point x="922" y="0" type="line"/>
      <point x="1072" y="772" type="line"/>
      <point x="878" y="1023" type="line"/>
      <point x="331" y="864" type="line"/>
      <point x="315" y="782" type="line"/>
      <point x="817" y="907" type="line"/>
      <point x="939" y="737" type="line"/>
    </contour>
    <contour>
      <point x="124" y="0" type="line"/>
      <point x="248" y="0" type="line"/>
      <point x="420" y="883" type="line"/>
      <point x="405" y="1000" type="line"/>
      <point x="318" y="1000" type="line"/>
    </contour>
  </outline>
</glyph>
<glyph name="rcaron" format="2">
  <advance width="1240"/>
  <unicode hex="0159"/>
  <outline>
    <contour>
      <point x="914" y="605" type="line"/>
      <point x="1043" y="625" type="line"/>
      <point x="1068" y="772" type="line"/>
      <point x="878" y="1023" type="line"/>
      <point x="331" y="864" type="line"/>
      <point x="315" y="782" type="line"/>
      <point x="819" y="917" type="line"/>
      <point x="939" y="737" type="line"/>
    </contour>
    <contour>
      <point x="124" y="0" type="line"/>
      <point x="248" y="0" type="line"/>
      <point x="414" y="853" type="line"/>
      <point x="405" y="1000" type="line"/>
      <point x="318" y="1000" type="line"/>
    </contour>
    <contour>
      <point x="511" y="1597" type="line"/>
      <point x="632" y="1597" type="line"/>
      <point x="805" y="1309" type="line"/>
      <point x="749" y="1309" type="line"/>
      <point x="1034" y="1597" type="line"/>
      <point x="1155" y="1597" type="line"/>
      <point x="819" y="1274" type="line"/>
      <point x="723" y="1274" type="line"/>
    </contour>
  </outline>
</glyph>
<glyph name="Sacute" format="2">
  <advance width="1240"/>
  <unicode hex="015A"/>
  <outline>
    <contour>
      <point x="93" y="0" type="line"/>
      <point x="723" y="0" type="line"/>
      <point x="1017" y="279" type="line"/>
      <point x="1056" y="476" type="line"/>
      <point x="405" y="1027" type="line"/>
      <point x="424" y="1129" type="line"/>
      <point x="666" y="1362" type="line"/>
      <point x="1198" y="1362" type="line"/>
      <point x="1197" y="1460" type="line"/>
      <point x="607" y="1460" type="line"/>
      <point x="313" y="1181" type="line"/>
      <point x="274" y="984" type="line"/>
      <point x="925" y="433" type="line"/>
      <point x="905" y="331" type="line"/>
      <point x="664" y="98" type="line"/>
      <point x="92" y="98" type="line"/>
    </contour>
    <contour>
      <point x="929" y="1650" type="line"/>
      <point x="820" y="1650" type="line"/>
      <point x="1087" y="1883" type="line"/>
      <point x="1227" y="1883" type="line"/>
    </contour>
  </outline>
</glyph>
<glyph name="Scedilla" format="2">
  <advance width="1240"/>
  <unicode hex="015E"/>
  <outline>
    <contour>
      <point x="93" y="0" type="line"/>
      <point x="723" y="0" type="line"/>
      <point x="1017" y="279" type="line"/>
      <point x="1056" y="476" type="line"/>
      <point x="405" y="1027" type="line"/>
      <point x="424" y="1129" type="line"/>
      <point x="666" y="1362" type="line"/>
      <point x="1198" y="1362" type="line"/>
      <point x="1197" y="1460" type="line"/>
      <point x="607" y="1460" type="line"/>
      <point x="313" y="1181" type="line"/>
      <point x="274" y="984" type="line"/>
      <point x="925" y="433" type="line"/>
      <point x="905" y="331" type="line"/>
      <point x="664" y="98" type="line"/>
      <point x="92" y="98" type="line"/>
    </contour>
    <contour>
      <point x="307" y="-565" type="line"/>
      <point x="491" y="-565" type="line"/>
      <point x="649" y="-455" type="line"/>
      <point x="683" y="-279" type="line"/>
      <point x="567" y="-169" type="line"/>
      <point x="499" y="-169" type="line"/>
      <point x="513" y="-196" type="line"/>
      <point x="560" y="48" type="line"/>
      <point x="466" y="48" type="line"/>
      <point x="407" y="-259" type="line"/>
      <point x="513" y="-259" type="line"/>
      <point x="585" y="-329" type="line"/>
      <point x="570" y="-405" type="line"/>
      <point x="471" y="-475" type="line"/>
      <point x="325" y="-475" type="line"/>
    </contour>
  </outline>
</glyph>
<glyph name="Tcedilla" format="2">
  <advance width="1240"/>
  <unicode hex="0162"/>
  <outline>
    <contour>
      <point x="450" y="0" type="line"/>
      <point x="576" y="0" type="line"/>
      <point x="860" y="1460" type="line"/>
      <point x="734" y="1460" type="line"/>
    </contour>
    <contour>
      <point x="267" y="1350" type="line"/>
      <point x="1303" y="1350" type="line"/>
      <point x="1310" y="1460" type="line"/>
      <point x="304" y="1460" type="line"/>
    </contour>
    <contour>
      <point x="298" y="-565" type="line"/>
      <point x="482" y="-565" type="line"/>
      <point x="640" y="-455" type="line"/>
      <point x="674" y="-279" type="line"/>
      <point x="558" y="-169" type="line"/>
      <point x="490" y="-169" type="line"/>
      <point x="504" y="-196" type="line"/>
      <point x="551" y="48" type="line"/>
      <point x="457" y="48" type="line"/>
      <point x="398" y="-259" type="line"/>
      <point x="504" y="-259" type="line"/>
      <point x="576" y="-329" type="line"/>
      <point x="561" y="-405" type="line"/>
      <point x="462" y="-475" type="line"/>
      <point x="316" y="-475" type="line"/>
    </contour>
  </outline>
</glyph>
<glyph name="Tcaron" format="2">
  <advance width="1240"/>
  <unicode hex="0164"/>
  <outline>
    <contour>
      <point x="450" y="0" type="line"/>
      <point x="576" y="0" type="line"/>
      <point x="860" y="1460" type="line"/>
      <point x="734" y="1460" type="line"/>
    </contour>
    <contour>
      <point x="267" y="1350" type="line"/>
      <point x="1303" y="1350" type="line"/>
      <point x="1310" y="1460" type="line"/>
      <point x="304" y="1460" type="line"/>
    </contour>
    <contour>
      <point x="567" y="1883" type="line"/>
      <point x="698" y="1883" type="line"/>
      <point x="877" y="1679" type="line"/>
      <point x="821" y="1679" type="line"/>
      <point x="1080" y="1883" type="line"/>
      <point x="1211" y="1883" type="line"/>
      <point x="902" y="1650" type="line"/>
      <point x="786" y="1650" type="line"/>
    </contour>
  </outline>
</glyph>
<glyph name="Tbar" format="2">
  <advance width="1240"/>
  <unicode hex="0166"/>
  <outline>
    <contour>
      <point x="314" y="705" type="line"/>
      <point x="1006" y="705" type="line"/>
      <point x="1027" y="815" type="line"/>
      <point x="335" y="815" type="line"/>
    </contour>
    <contour>
      <point x="450" y="0" type="line"/>
      <point x="576" y="0" type="line"/>
      <point x="860" y="1460" type="line"/>
      <point x="734" y="1460" type="line"/>
    </contour>
    <contour>
      <point x="267" y="1350" type="line"/>
      <point x="1303" y="1350" type="line"/>
      <point x="1310" y="1460" type="line"/>
      <point x="304" y="1460" type="line"/>
    </contour>
  </outline>
</glyph>
<glyph name="tbar" format="2">
  <advance width="1240"/>
  <unicode hex="0167"/>
  <outline>
    <contour>
      <point x="125" y="639" type="line"/>
      <point x="1078" y="639" type="line"/>
      <point x="1097" y="738" type="line"/>
      <point x="533" y="738" type="line"/>
      <point x="504" y="738" type="line"/>
      <point x="144" y="738" type="line"/>
    </contour>
    <contour>
      <point x="199" y="1020" type="line"/>
      <point x="1152" y="1020" type="line"/>
      <point x="1172" y="1119" type="line"/>
      <point x="608" y="1119" type="line"/>
      <point x="579" y="1119" type="line"/>
      <point x="219" y="1119" type="line"/>
    </contour>
    <contour>
      <point x="532" y="0" type="line"/>
      <point x="954" y="0" type="line"/>
      <point x="973" y="98" type="line"/>
      <point x="607" y="98" type="line"/>
      <point x="471" y="318" type="line"/>
      <point x="660" y="1291" type="line"/>
      <point x="540" y="1271" type="line"/>
      <point x="349" y="288" type="line"/>
    </contour>
  </outline>
</glyph>
<glyph name="zdotaccent" format="2">
  <advance width="1240"/>
  <unicode hex="017C"/>
  <outline>
    <contour>
      <point x="115" y="0" type="line"/>
      <point x="946" y="0" type="line"/>
      <point x="966" y="103" type="line"/>
      <point x="225" y="103" type="line"/>
      <point x="236" y="79" type="line"/>
      <point x="1077" y="918" type="line"/>
      <point x="1063" y="1000" type="line"/>
      <point x="280" y="999" type="line"/>
      <point x="260" y="896" type="line"/>
      <point x="934" y="896" type="line"/>
      <point x="955" y="931" type="line"/>
      <point x="102" y="85" type="line"/>
    </contour>
    <contour>
      <point x="770" y="1276" type="line"/>
      <point x="932" y="1406" type="line"/>
      <point x="821" y="1536" type="line"/>
      <point x="658" y="1406" type="line"/>
    </contour>
  </outline>
</glyph>
<glyph name="Zcaron" format="2">
  <advance width="1240"/>
  <unicode hex="017D"/>
  <outline>
    <contour>
      <point x="109" y="0" type="line"/>
      <point x="1010" y="0" type="line"/>
      <point x="1031" y="106" type="line"/>
      <point x="195" y="106" type="line"/>
      <point x="205" y="56" type="line"/>
      <point x="1230" y="1374" type="line"/>
      <point x="1207" y="1460" type="line"/>
      <point x="354" y="1459" type="line"/>
      <point x="333" y="1353" type="line"/>
      <point x="1105" y="1353" type="line"/>
      <point x="1109" y="1393" type="line"/>
      <point x="86" y="90" type="line"/>
    </contour>
    <contour>
      <point x="567" y="1883" type="line"/>
      <point x="698" y="1883" type="line"/>
      <point x="877" y="1679" type="line"/>
      <point x="821" y="1679" type="line"/>
      <point x="1080" y="1883" type="line"/>
      <point x="1211" y="1883" type="line"/>
      <point x="902" y="1650" type="line"/>
      <point x="786" y="1650" type="line"/>
    </contour>
  </outline>
</glyph>
<glyph name="florin" format="2">
  <advance width="1240"/>
  <unicode hex="0192"/>
  <outline>
    <contour>
      <point x="1098" y="838" type="line"/>
      <point x="1078" y="738" type="line"/>
      <point x="329" y="738" type="line"/>
      <point x="349" y="838" type="line"/>
    </contour>
    <contour>
      <point x="1135" y="1484" type="curve" smooth="yes"/>
      <point x="1186" y="1484"/>
      <point x="1220" y="1476"/>
      <point x="1256" y="1455" type="curve"/>
      <point x="1218" y="1361" type="line"/>
      <point x="1187" y="1375"/>
      <point x="1163" y="1381"/>
      <point x="1127" y="1381" type="curve" smooth="yes"/>
      <point x="1024" y="1381"/>
      <point x="956" y="1333"/>
      <point x="884" y="1123" type="curve" smooth="yes"/>
      <point x="468" y="-97" type="line" smooth="yes"/>
      <point x="375" y="-370"/>
      <point x="249" y="-424"/>
      <point x="117" y="-424" type="curve" smooth="yes"/>
      <point x="66" y="-424"/>
      <point x="32" y="-416"/>
      <point x="-4" y="-395" type="curve"/>
      <point x="34" y="-301" type="line"/>
      <point x="65" y="-315"/>
      <point x="89" y="-321"/>
      <point x="125" y="-321" type="curve" smooth="yes"/>
      <point x="228" y="-321"/>
      <point x="296" y="-273"/>
      <point x="368" y="-63" type="curve" smooth="yes"/>
      <point x="784" y="1157" type="line" smooth="yes"/>
      <point x="877" y="1430"/>
      <point x="1003" y="1484"/>
    </contour>
  </outline>
</glyph>
<glyph name="Gcaron" format="2">
  <advance width="1240"/>
  <unicode hex="01E6"/>
  <outline>
    <contour>
      <point x="413" y="0" type="line"/>
      <point x="903" y="0" type="line"/>
      <point x="1027" y="114" type="line"/>
      <point x="1153" y="763" type="line"/>
      <point x="707" y="763" type="line"/>
      <point x="687" y="659" type="line"/>
      <point x="1078" y="659" type="line"/>
      <point x="1030" y="704" type="line"/>
      <point x="927" y="176" type="line"/>
      <point x="854" y="110" type="line"/>
      <point x="495" y="110" type="line"/>
      <point x="269" y="565" type="line"/>
      <point x="331" y="885" type="line"/>
      <point x="755" y="1350" type="line"/>
      <point x="1215" y="1350" type="line"/>
      <point x="1217" y="1460" type="line"/>
      <point x="697" y="1460" type="line"/>
      <point x="214" y="930" type="line"/>
      <point x="138" y="540" type="line"/>
    </contour>
    <contour>
      <point x="637" y="1883" type="line"/>
      <point x="768" y="1883" type="line"/>
      <point x="947" y="1679" type="line"/>
      <point x="891" y="1679" type="line"/>
      <point x="1150" y="1883" type="line"/>
      <point x="1281" y="1883" type="line"/>
      <point x="972" y="1650" type="line"/>
      <point x="856" y="1650" type="line"/>
    </contour>
  </outline>
</glyph>
<glyph name="oslashacute" format="2">
  <advance width="1240"/>
  <unicode hex="01FF"/>
  <outline>
    <contour>
      <point x="357" y="125" type="line"/>
      <point x="965" y="809" type="line"/>
      <point x="886" y="876" type="line"/>
      <point x="266" y="180" type="line"/>
    </contour>
    <contour>
      <point x="76" y="-193" type="line"/>
      <point x="369" y="133" type="line"/>
      <point x="286" y="209" type="line"/>
      <point x="-11" y="-121" type="line"/>
    </contour>
    <contour>
      <point x="947" y="780" type="line"/>
      <point x="1251" y="1121" type="line"/>
      <point x="1164" y="1193" type="line"/>
      <point x="874" y="867" type="line"/>
    </contour>
    <contour>
      <point x="393" y="0" type="line"/>
      <point x="652" y="0" type="line"/>
      <point x="1047" y="330" type="line"/>
      <point x="1113" y="670" type="line"/>
      <point x="866" y="1000" type="line"/>
      <point x="587" y="1000" type="line"/>
      <point x="193" y="670" type="line"/>
      <point x="127" y="330" type="line"/>
    </contour>
    <contour>
      <point x="448" y="98" type="line"/>
      <point x="247" y="350" type="line"/>
      <point x="301" y="630" type="line"/>
      <point x="624" y="902" type="line"/>
      <point x="791" y="902" type="line"/>
      <point x="993" y="650" type="line"/>
      <point x="939" y="370" type="line"/>
      <point x="615" y="98" type="line"/>
    </contour>
    <contour>
      <point x="816" y="1274" type="line"/>
      <point x="707" y="1274" type="line"/>
      <point x="991" y="1597" type="line"/>
      <point x="1131" y="1597" type="line"/>
    </contour>
  </outline>
</glyph>
<glyph name="Scommaaccent" format="2">
  <advance width="1240"/>
  <unicode hex="0218"/>
  <outline>
    <contour>
      <point x="93" y="0" type="line"/>
      <point x="723" y="0" type="line"/>
      <point x="1017" y="279" type="line"/>
      <point x="1056" y="476" type="line"/>
      <point x="405" y="1027" type="line"/>
      <point x="424" y="1129" type="line"/>
      <point x="666" y="1362" type="line"/>
      <point x="1198" y="1362" type="line"/>
      <point x="1197" y="1460" type="line"/>
      <point x="607" y="1460" type="line"/>
      <point x="313" y="1181" type="line"/>
      <point x="274" y="984" type="line"/>
      <point x="925" y="433" type="line"/>
      <point x="905" y="331" type="line"/>
      <point x="664" y="98" type="line"/>
      <point x="92" y="98" type="line"/>
    </contour>
    <contour>
      <point x="328" y="-527" type="line"/>
      <point x="481" y="-527" type="line"/>
      <point x="491" y="-471" type="line"/>
      <point x="264" y="-707" type="line"/>
      <point x="331" y="-747" type="line"/>
      <point x="543" y="-527" type="line"/>
      <point x="584" y="-312" type="line"/>
      <point x="369" y="-312" type="line"/>
    </contour>
  </outline>
</glyph>
<glyph name="jdotless" format="2">
  <advance width="1240"/>
  <unicode hex="0237"/>
  <outline>
    <contour>
      <point x="46" y="-400" type="line"/>
      <point x="425" y="-400" type="line"/>
      <point x="720" y="-112" type="line"/>
      <point x="924" y="935" type="line"/>
      <point x="875" y="1000" type="line"/>
      <point x="350" y="1000" type="line"/>
      <point x="311" y="902" type="line"/>
      <point x="839" y="902" type="line"/>
      <point x="800" y="938" type="line"/>
      <point x="603" y="-76" type="line"/>
      <point x="381" y="-296" type="line"/>
      <point x="46" y="-296" type="line"/>
    </contour>
  </outline>
</glyph>
<glyph name="nhookleft" format="2">
  <advance width="1240"/>
  <unicode hex="0272"/>
  <outline>
    <contour>
      <point x="258" y="50" type="line"/>
      <point x="134" y="50" type="line"/>
      <point x="93" y="-162" type="line"/>
      <point x="-32" y="-302" type="line"/>
      <point x="-167" y="-302" type="line"/>
      <point x="-166" y="-400" type="line"/>
      <point x="13" y="-400" type="line"/>
      <point x="211" y="-192" type="line"/>
    </contour>
    <contour>
      <point x="796" y="0" type="line"/>
      <point x="922" y="0" type="line"/>
      <point x="1072" y="772" type="line"/>
      <point x="878" y="1023" type="line"/>
      <point x="331" y="864" type="line"/>
      <point x="315" y="782" type="line"/>
      <point x="817" y="907" type="line"/>
      <point x="939" y="737" type="line"/>
    </contour>
    <contour>
      <point x="124" y="0" type="line"/>
      <point x="248" y="0" type="line"/>
      <point x="420" y="883" type="line"/>
      <point x="405" y="1000" type="line"/>
      <point x="318" y="1000" type="line"/>
    </contour>
  </outline>
</glyph>
<glyph name="caron" format="2">
  <advance width="1240"/>
  <unicode hex="02C7"/>
  <outline>
    <contour>
      <point x="511" y="1597" type="line"/>
      <point x="632" y="1597" type="line"/>
      <point x="805" y="1309" type="line"/>
      <point x="749" y="1309" type="line"/>
      <point x="1034" y="1597" type="line"/>
      <point x="1155" y="1597" type="line"/>
      <point x="819" y="1274" type="line"/>
      <point x="723" y="1274" type="line"/>
    </contour>
  </outline>
</glyph>
<glyph name="dotaccent" format="2">
  <advance width="1240"/>
  <unicode hex="02D9"/>
  <outline>
    <contour>
      <point x="771" y="1276" type="line"/>
      <point x="933" y="1406" type="line"/>
      <point x="822" y="1536" type="line"/>
      <point x="659" y="1406" type="line"/>
    </contour>
  </outline>
</glyph>
<glyph name="hungarumlaut" format="2">
  <advance width="1240"/>
  <unicode hex="02DD"/>
  <outline>
    <contour>
      <point x="893" y="1274" type="line"/>
      <point x="993" y="1274" type="line"/>
      <point x="1231" y="1597" type="line"/>
      <point x="1101" y="1597" type="line"/>
    </contour>
    <contour>
      <point x="531" y="1274" type="line"/>
      <point x="632" y="1274" type="line"/>
      <point x="869" y="1597" type="line"/>
      <point x="740" y="1597" type="line"/>
    </contour>
  </outline>
</glyph>
<glyph name="acutecomb" format="2">
  <unicode hex="0301"/>
  <outline>
    <contour>
      <point x="815" y="1274" type="line"/>
      <point x="706" y="1274" type="line"/>
      <point x="990" y="1597" type="line"/>
      <point x="1130" y="1597" type="line"/>
    </contour>
  </outline>
</glyph>
<glyph name="dieresiscomb" format="2">
  <unicode hex="0308"/>
  <outline>
    <contour>
      <point x="524" y="1276" type="line"/>
      <point x="683" y="1406" type="line"/>
      <point x="574" y="1536" type="line"/>
      <point x="415" y="1406" type="line"/>
    </contour>
    <contour>
      <point x="1017" y="1276" type="line"/>
      <point x="1176" y="1406" type="line"/>
      <point x="1067" y="1536" type="line"/>
      <point x="908" y="1406" type="line"/>
    </contour>
  </outline>
</glyph>
<glyph name="hungarumlautcomb" format="2">
  <unicode hex="030B"/>
  <outline>
    <contour>
      <point x="893" y="1274" type="line"/>
      <point x="993" y="1274" type="line"/>
      <point x="1231" y="1597" type="line"/>
      <point x="1101" y="1597" type="line"/>
    </contour>
    <contour>
      <point x="531" y="1274" type="line"/>
      <point x="632" y="1274" type="line"/>
      <point x="869" y="1597" type="line"/>
      <point x="740" y="1597" type="line"/>
    </contour>
  </outline>
</glyph>
<glyph name="commaaccentcomb" format="2">
  <unicode hex="0326"/>
  <outline>
    <contour>
      <point x="327" y="-527" type="line"/>
      <point x="480" y="-527" type="line"/>
      <point x="490" y="-471" type="line"/>
      <point x="263" y="-707" type="line"/>
      <point x="330" y="-747" type="line"/>
      <point x="542" y="-527" type="line"/>
      <point x="583" y="-312" type="line"/>
      <point x="368" y="-312" type="line"/>
    </contour>
  </outline>
</glyph>
<glyph name="Adotbelow" format="2">
  <advance width="1240"/>
  <unicode hex="1EA0"/>
  <outline>
    <contour>
      <point x="110" y="0" type="line"/>
      <point x="240" y="0" type="line"/>
      <point x="399" y="819" type="line"/>
      <point x="813" y="1370" type="line"/>
      <point x="776" y="1385" type="line"/>
      <point x="979" y="848" type="line"/>
      <point x="814" y="0" type="line"/>
      <point x="936" y="0" type="line"/>
      <point x="1103" y="861" type="line"/>
      <point x="880" y="1460" type="line"/>
      <point x="734" y="1460" type="line"/>
      <point x="277" y="861" type="line"/>
    </contour>
    <contour>
      <point x="276" y="449" type="line"/>
      <point x="939" y="449" type="line"/>
      <point x="959" y="552" type="line"/>
      <point x="296" y="552" type="line"/>
    </contour>
    <contour>
      <point x="417" y="-546" type="line"/>
      <point x="579" y="-416" type="line"/>
      <point x="467" y="-286" type="line"/>
      <point x="305" y="-416" type="line"/>
    </contour>
  </outline>
</glyph>
<glyph name="Edotbelow" format="2">
  <advance width="1240"/>
  <unicode hex="1EB8"/>
  <outline>
    <contour>
      <point x="246" y="0" type="line"/>
      <point x="530" y="1460" type="line"/>
      <point x="404" y="1460" type="line"/>
      <point x="120" y="0" type="line"/>
    </contour>
    <contour>
      <point x="1002" y="110" type="line"/>
      <point x="226" y="110" type="line"/>
      <point x="205" y="0" type="line"/>
      <point x="961" y="0" type="line"/>
    </contour>
    <contour>
      <point x="969" y="779" type="line"/>
      <point x="356" y="779" type="line"/>
      <point x="336" y="674" type="line"/>
      <point x="949" y="674" type="line"/>
    </contour>
    <contour>
      <point x="1203" y="1350" type="line"/>
      <point x="1205" y="1460" type="line"/>
      <point x="489" y="1460" type="line"/>
      <point x="467" y="1350" type="line"/>
    </contour>
    <contour>
      <point x="417" y="-546" type="line"/>
      <point x="579" y="-416" type="line"/>
      <point x="467" y="-286" type="line"/>
      <point x="305" y="-416" type="line"/>
    </contour>
  </outline>
</glyph>
<glyph name="Idotbelow" format="2">
  <advance width="1240"/>
  <unicode hex="1ECA"/>
  <outline>
    <contour>
      <point x="450" y="0" type="line"/>
      <point x="576" y="0" type="line"/>
      <point x="860" y="1460" type="line"/>
      <point x="734" y="1460" type="line"/>
    </contour>
    <contour>
      <point x="75" y="0" type="line"/>
      <point x="971" y="0" type="line"/>
      <point x="1012" y="110" type="line"/>
      <point x="76" y="110" type="line"/>
    </contour>
    <contour>
      <point x="317" y="1350" type="line"/>
      <point x="1253" y="1350" type="line"/>
      <point x="1255" y="1460" type="line"/>
      <point x="359" y="1460" type="line"/>
    </contour>
    <contour>
      <point x="417" y="-546" type="line"/>
      <point x="579" y="-416" type="line"/>
      <point x="467" y="-286" type="line"/>
      <point x="305" y="-416" type="line"/>
    </contour>
  </outline>
</glyph>
<glyph name="Udotbelow" format="2">
  <advance width="1240"/>
  <unicode hex="1EE4"/>
  <outline>
    <contour>
      <point x="270" y="0" type="line"/>
      <point x="776" y="0" type="line"/>
      <point x="974" y="198" type="line"/>
      <point x="1220" y="1460" type="line"/>
      <point x="1094" y="1460" type="line"/>
      <point x="859" y="252" type="line"/>
      <point x="724" y="110" type="line"/>
      <point x="354" y="110" type="line"/>
      <point x="283" y="242" type="line"/>
      <point x="520" y="1460" type="line"/>
      <point x="394" y="1460" type="line"/>
      <point x="150" y="208" type="line"/>
    </contour>
    <contour>
      <point x="417" y="-546" type="line"/>
      <point x="579" y="-416" type="line"/>
      <point x="467" y="-286" type="line"/>
      <point x="305" y="-416" type="line"/>
    </contour>
  </outline>
</glyph>
<glyph name="udotbelow" format="2">
  <advance width="1240"/>
  <unicode hex="1EE5"/>
  <outline>
    <contour>
      <point x="444" y="1000" type="line"/>
      <point x="318" y="1000" type="line"/>
      <point x="168" y="228" type="line"/>
      <point x="363" y="-23" type="line"/>
      <point x="909" y="136" type="line"/>
      <point x="925" y="218" type="line"/>
      <point x="423" y="93" type="line"/>
      <point x="301" y="263" type="line"/>
    </contour>
    <contour>
      <point x="1116" y="1000" type="line"/>
      <point x="992" y="1000" type="line"/>
      <point x="821" y="117" type="line"/>
      <point x="835" y="0" type="line"/>
      <point x="922" y="0" type="line"/>
    </contour>
    <contour>
      <point x="417" y="-546" type="line"/>
      <point x="579" y="-416" type="line"/>
      <point x="467" y="-286" type="line"/>
      <point x="305" y="-416" type="line"/>
    </contour>
  </outline>
</glyph>
<glyph name="ytilde" format="2">
  <advance width="1240"/>
  <unicode hex="1EF9"/>
  <outline>
    <contour>
      <point x="95" y="-400" type="line"/>
      <point x="606" y="-400" type="line"/>
      <point x="901" y="-112" type="line"/>
      <point x="1117" y="1000" type="line"/>
      <point x="1001" y="1000" type="line"/>
      <point x="864" y="294" type="line"/>
      <point x="856" y="254" type="line"/>
      <point x="791" y="-82" type="line"/>
      <point x="569" y="-302" type="line"/>
      <point x="94" y="-302" type="line"/>
    </contour>
    <contour>
      <point x="385" y="90" type="line"/>
      <point x="921" y="243" type="line"/>
      <point x="938" y="329" type="line"/>
      <point x="435" y="203" type="line"/>
      <point x="284" y="383" type="line"/>
      <point x="404" y="1000" type="line"/>
      <point x="281" y="1000" type="line"/>
      <point x="155" y="348" type="line"/>
    </contour>
    <contour>
      <point x="785" y="1577" type="line"/>
      <point x="607" y="1577" type="line"/>
      <point x="456" y="1419" type="line"/>
      <point x="426" y="1267" type="line"/>
      <point x="516" y="1267" type="line"/>
      <point x="540" y="1388" type="line"/>
      <point x="637" y="1489" type="line"/>
      <point x="710" y="1489" type="line"/>
      <point x="822" y="1267" type="line"/>
      <point x="1000" y="1267" type="line"/>
      <point x="1151" y="1425" type="line"/>
      <point x="1181" y="1577" type="line"/>
      <point x="1091" y="1577" type="line"/>
      <point x="1067" y="1456" type="line"/>
      <point x="969" y="1355" type="line"/>
      <point x="896" y="1355" type="line"/>
    </contour>
  </outline>
</glyph>
<glyph name="daggerdbl" format="2">
  <advance width="1240"/>
  <unicode hex="2021"/>
  <outline>
    <contour>
      <point x="547" y="-200" type="line"/>
      <point x="870" y="1460" type="line"/>
      <point x="744" y="1460" type="line"/>
      <point x="421" y="-200" type="line"/>
    </contour>
    <contour>
      <point x="245" y="900" type="line"/>
      <point x="1151" y="900" type="line"/>
      <point x="1172" y="1010" type="line"/>
      <point x="266" y="1010" type="line"/>
    </contour>
    <contour>
      <point x="119" y="250" type="line"/>
      <point x="1025" y="250" type="line"/>
      <point x="1046" y="360" type="line"/>
      <point x="140" y="360" type="line"/>
    </contour>
  </outline>
</glyph>
<glyph name="bullet" format="2">
  <advance width="1240"/>
  <unicode hex="2022"/>
  <outline>
    <contour>
      <point x="608" y="417" type="curve" smooth="yes"/>
      <point x="739" y="417"/>
      <point x="852" y="497"/>
      <point x="879" y="639" type="curve" smooth="yes"/>
      <point x="907" y="785"/>
      <point x="816" y="873"/>
      <point x="685" y="873" type="curve" smooth="yes"/>
      <point x="556" y="873"/>
      <point x="444" y="796"/>
      <point x="416" y="651" type="curve" smooth="yes"/>
      <point x="388" y="509"/>
      <point x="479" y="417"/>
    </contour>
  </outline>
</glyph>
<glyph name="triangularbullet" format="2">
  <advance width="1240"/>
  <unicode hex="2023"/>
  <outline>
    <contour>
      <point x="480" y="950" type="line"/>
      <point x="361" y="339" type="line"/>
      <point x="954" y="645" type="line"/>
    </contour>
  </outline>
</glyph>
<glyph name="guilsinglright" format="2">
  <advance width="1240"/>
  <unicode hex="203A"/>
  <outline>
    <contour>
      <point x="511" y="969" type="line"/>
      <point x="788" y="465" type="line"/>
      <point x="900" y="500" type="line"/>
      <point x="613" y="1024" type="line"/>
    </contour>
    <contour>
      <point x="409" y="-24" type="line"/>
      <point x="900" y="500" type="line"/>
      <point x="807" y="550" type="line"/>
      <point x="332" y="47" type="line"/>
    </contour>
  </outline>
</glyph>
<glyph name="sevensuperior" format="2">
  <advance width="1240"/>
  <unicode hex="2077"/>
  <outline>
    <contour>
      <point x="634" y="1655" type="line"/>
      <point x="618" y="1575" type="line"/>
      <point x="983" y="1575" type="line"/>
      <point x="953" y="1602" type="line"/>
      <point x="632" y="1100" type="line"/>
      <point x="734" y="1100" type="line"/>
      <point x="1048" y="1595" type="line"/>
      <point x="1060" y="1655" type="line"/>
    </contour>
  </outline>
</glyph>
<glyph name="fourinferior" format="2">
  <advance width="1240"/>
  <unicode hex="2084"/>
  <outline>
    <contour>
      <point x="625" y="-280" type="line"/>
      <point x="732" y="275" type="line"/>
      <point x="630" y="275" type="line"/>
      <point x="274" y="-60" type="line"/>
      <point x="259" y="-139" type="line"/>
      <point x="725" y="-139" type="line"/>
      <point x="740" y="-60" type="line"/>
      <point x="622" y="-60" type="line"/>
      <point x="599" y="-70" type="line"/>
      <point x="330" y="-70" type="line"/>
      <point x="351" y="-83" type="line"/>
      <point x="648" y="189" type="line"/>
      <point x="621" y="193" type="line"/>
      <point x="529" y="-280" type="line"/>
    </contour>
  </outline>
</glyph>
<glyph name="seveninferior" format="2">
  <advance width="1240"/>
  <unicode hex="2087"/>
  <outline>
    <contour>
      <point x="365" y="275" type="line"/>
      <point x="350" y="195" type="line"/>
      <point x="715" y="195" type="line"/>
      <point x="685" y="222" type="line"/>
      <point x="364" y="-280" type="line"/>
      <point x="466" y="-280" type="line"/>
      <point x="780" y="215" type="line"/>
      <point x="791" y="275" type="line"/>
    </contour>
  </outline>
</glyph>
<glyph name="numero" format="2">
  <advance width="1240"/>
  <unicode hex="2116"/>
  <outline>
    <contour>
      <point x="428" y="0" type="line"/>
      <point x="566" y="0" type="line"/>
      <point x="850" y="1460" type="line"/>
      <point x="745" y="1460" type="line"/>
      <point x="523" y="320" type="line"/>
      <point x="505" y="320" type="line"/>
      <point x="427" y="1460" type="line"/>
      <point x="287" y="1460" type="line"/>
      <point x="3" y="0" type="line"/>
      <point x="108" y="0" type="line"/>
      <point x="334" y="1163" type="line"/>
      <point x="352" y="1163" type="line"/>
    </contour>
    <contour>
      <point x="1305" y="1065" type="curve" smooth="yes"/>
      <point x="1361" y="1352"/>
      <point x="1304" y="1484"/>
      <point x="1182" y="1484" type="curve" smooth="yes"/>
      <point x="1060" y="1484"/>
      <point x="968" y="1364"/>
      <point x="912" y="1077" type="curve" smooth="yes"/>
      <point x="857" y="790"/>
      <point x="912" y="658"/>
      <point x="1034" y="658" type="curve" smooth="yes"/>
      <point x="1156" y="658"/>
      <point x="1249" y="778"/>
    </contour>
    <contour>
      <point x="1220" y="1071" type="curve" smooth="yes"/>
      <point x="1181" y="871"/>
      <point x="1124" y="769"/>
      <point x="1049" y="769" type="curve" smooth="yes"/>
      <point x="974" y="769"/>
      <point x="958" y="871"/>
      <point x="997" y="1071" type="curve" smooth="yes"/>
      <point x="1036" y="1271"/>
      <point x="1092" y="1374"/>
      <point x="1167" y="1374" type="curve" smooth="yes"/>
      <point x="1242" y="1374"/>
      <point x="1259" y="1271"/>
    </contour>
    <contour>
      <point x="948" y="247" type="curve" smooth="yes"/>
      <point x="1009" y="247"/>
      <point x="1064" y="289"/>
      <point x="1079" y="363" type="curve" smooth="yes"/>
      <point x="1093" y="437"/>
      <point x="1054" y="479"/>
      <point x="993" y="479" type="curve" smooth="yes"/>
      <point x="932" y="479"/>
      <point x="878" y="437"/>
      <point x="864" y="363" type="curve" smooth="yes"/>
      <point x="849" y="289"/>
      <point x="887" y="247"/>
    </contour>
  </outline>
</glyph>
<glyph name="northEastArrow" format="2">
  <advance width="1240"/>
  <unicode hex="2197"/>
  <outline>
    <contour>
      <point x="1080" y="1078" type="line"/>
      <point x="409" y="1079" type="line"/>
      <point x="387" y="965" type="line"/>
      <point x="983" y="968" type="line"/>
      <point x="954" y="1003" type="line"/>
      <point x="836" y="408" type="line"/>
      <point x="950" y="408" type="line"/>
    </contour>
    <contour>
      <point x="945" y="1035" type="line"/>
      <point x="233" y="439" type="line"/>
      <point x="300" y="356" type="line"/>
      <point x="1012" y="952" type="line"/>
    </contour>
    <contour>
      <point x="1006" y="830" type="line"/>
      <point x="968" y="985" type="line"/>
      <point x="825" y="1052" type="line"/>
      <point x="866" y="899" type="line"/>
    </contour>
  </outline>
</glyph>
<glyph name="southEastArrow" format="2">
  <advance width="1240"/>
  <unicode hex="2198"/>
  <outline>
    <contour>
      <point x="944" y="382" type="line"/>
      <point x="1076" y="1053" type="line"/>
      <point x="962" y="1053" type="line"/>
      <point x="849" y="457" type="line"/>
      <point x="891" y="493" type="line"/>
      <point x="296" y="495" type="line"/>
      <point x="274" y="381" type="line"/>
    </contour>
    <contour>
      <point x="926" y="508" type="line"/>
      <point x="446" y="1104" type="line"/>
      <point x="346" y="1021" type="line"/>
      <point x="827" y="425" type="line"/>
    </contour>
    <contour>
      <point x="701" y="407" type="line"/>
      <point x="869" y="475" type="line"/>
      <point x="967" y="631" type="line"/>
      <point x="800" y="561" type="line"/>
    </contour>
  </outline>
</glyph>
<glyph name="rightOverLeftArrow" format="2">
  <advance width="1240"/>
  <unicode hex="21C4"/>
  <outline>
    <contour>
      <point x="43" y="412" type="line"/>
      <point x="335" y="46" type="line"/>
      <point x="432" y="127" type="line"/>
      <point x="180" y="437" type="line"/>
      <point x="170" y="386" type="line"/>
      <point x="542" y="696" type="line"/>
      <point x="477" y="777" type="line"/>
    </contour>
    <contour>
      <point x="147" y="353" type="line"/>
      <point x="1120" y="353" type="line"/>
      <point x="1143" y="471" type="line"/>
      <point x="170" y="471" type="line"/>
    </contour>
    <contour>
      <point x="268" y="570" type="line"/>
      <point x="172" y="412" type="line"/>
      <point x="207" y="254" type="line"/>
      <point x="299" y="412" type="line"/>
    </contour>
    <contour>
      <point x="1287" y="1048" type="line"/>
      <point x="995" y="1414" type="line"/>
      <point x="898" y="1333" type="line"/>
      <point x="1150" y="1023" type="line"/>
      <point x="1160" y="1074" type="line"/>
      <point x="788" y="764" type="line"/>
      <point x="853" y="683" type="line"/>
    </contour>
    <contour>
      <point x="1183" y="1107" type="line"/>
      <point x="210" y="1107" type="line"/>
      <point x="187" y="989" type="line"/>
      <point x="1160" y="989" type="line"/>
    </contour>
    <contour>
      <point x="1062" y="890" type="line"/>
      <point x="1158" y="1048" type="line"/>
      <point x="1122" y="1206" type="line"/>
      <point x="1031" y="1048" type="line"/>
    </contour>
  </outline>
</glyph>
<glyph name="universal" format="2">
  <advance width="1240"/>
  <unicode hex="2200"/>
  <outline>
    <contour>
      <point x="169" y="1000" type="line"/>
      <point x="465" y="0" type="line"/>
      <point x="581" y="0" type="line"/>
      <point x="1265" y="1000" type="line"/>
      <point x="1133" y="1000" type="line"/>
      <point x="546" y="128" type="line"/>
      <point x="535" y="128" type="line"/>
      <point x="287" y="1000" type="line"/>
    </contour>
    <contour>
      <point x="998" y="727" type="line"/>
      <point x="335" y="727" type="line"/>
      <point x="315" y="622" type="line"/>
      <point x="978" y="622" type="line"/>
    </contour>
  </outline>
</glyph>
<glyph name="existential" format="2">
  <advance width="1240"/>
  <unicode hex="2203"/>
  <outline>
    <contour>
      <point x="65" y="0" type="line"/>
      <point x="926" y="0" type="line"/>
      <point x="1210" y="1460" type="line"/>
      <point x="349" y="1460" type="line"/>
      <point x="327" y="1350" type="line"/>
      <point x="1107" y="1350" type="line"/>
      <point x="1071" y="1395" type="line"/>
      <point x="947" y="754" type="line"/>
      <point x="1000" y="799" type="line"/>
      <point x="343" y="799" type="line"/>
      <point x="323" y="694" type="line"/>
      <point x="980" y="694" type="line"/>
      <point x="944" y="739" type="line"/>
      <point x="813" y="65" type="line"/>
      <point x="866" y="110" type="line"/>
      <point x="86" y="110" type="line"/>
    </contour>
  </outline>
</glyph>
<glyph name="gradient" format="2">
  <advance width="1240"/>
  <unicode hex="2207"/>
  <outline>
    <contour>
      <point x="272" y="1351" type="line"/>
      <point x="455" y="1" type="line"/>
      <point x="593" y="1" type="line"/>
      <point x="1301" y="1351" type="line"/>
      <point x="1171" y="1388" type="line"/>
      <point x="1162" y="1342" type="line"/>
      <point x="552" y="152" type="line"/>
      <point x="541" y="152" type="line"/>
      <point x="394" y="1342" type="line"/>
      <point x="402" y="1384" type="line"/>
    </contour>
    <contour>
      <point x="1322" y="1461" type="line"/>
      <point x="293" y="1461" type="line"/>
      <point x="272" y="1351" type="line"/>
      <point x="1301" y="1351" type="line"/>
    </contour>
  </outline>
</glyph>
<glyph name="element" format="2">
  <advance width="1240"/>
  <unicode hex="2208"/>
  <outline>
    <contour>
      <point x="369" y="730" type="curve" smooth="yes"/>
      <point x="462" y="1210"/>
      <point x="664" y="1350"/>
      <point x="1024" y="1350" type="curve" smooth="yes"/>
      <point x="1180" y="1350" type="line"/>
      <point x="1202" y="1460" type="line"/>
      <point x="1002" y="1460" type="line" smooth="yes"/>
      <point x="607" y="1460"/>
      <point x="343" y="1288"/>
      <point x="237" y="740" type="curve" smooth="yes"/>
      <point x="130" y="192"/>
      <point x="333" y="0"/>
      <point x="728" y="0" type="curve" smooth="yes"/>
      <point x="918" y="0" type="line"/>
      <point x="939" y="110" type="line"/>
      <point x="783" y="110" type="line" smooth="yes"/>
      <point x="423" y="110"/>
      <point x="276" y="250"/>
    </contour>
    <contour>
      <point x="303" y="679" type="line"/>
      <point x="1050" y="679" type="line"/>
      <point x="1071" y="789" type="line"/>
      <point x="324" y="789" type="line"/>
    </contour>
  </outline>
</glyph>
<glyph name="angle" format="2">
  <advance width="1240"/>
  <unicode hex="2220"/>
  <outline>
    <contour>
      <point x="943" y="0" type="line"/>
      <point x="964" y="110" type="line"/>
      <point x="256" y="110" type="line"/>
      <point x="252" y="123" type="line"/>
      <point x="855" y="965" type="line"/>
      <point x="754" y="1013" type="line"/>
      <point x="61" y="41" type="line"/>
      <point x="70" y="0" type="line"/>
    </contour>
  </outline>
</glyph>
<glyph name="logicaland" format="2">
  <advance width="1240"/>
  <unicode hex="2227"/>
  <outline>
    <contour>
      <point x="1060" y="235" type="line"/>
      <point x="776" y="1235" type="line"/>
      <point x="737" y="1235" type="line"/>
      <point x="77" y="235" type="line"/>
      <point x="206" y="235" type="line"/>
      <point x="713" y="1009" type="line"/>
      <point x="727" y="1009" type="line"/>
      <point x="942" y="235" type="line"/>
    </contour>
  </outline>
</glyph>
<glyph name="logicalor" format="2">
  <advance width="1240"/>
  <unicode hex="2228"/>
  <outline>
    <contour>
      <point x="269" y="1225" type="line"/>
      <point x="553" y="225" type="line"/>
      <point x="592" y="225" type="line"/>
      <point x="1252" y="1225" type="line"/>
      <point x="1123" y="1225" type="line"/>
      <point x="616" y="451" type="line"/>
      <point x="602" y="451" type="line"/>
      <point x="387" y="1225" type="line"/>
    </contour>
  </outline>
</glyph>
<glyph name="upBlackTriangle" format="2">
  <advance width="1240"/>
  <unicode hex="25B2"/>
  <outline>
    <contour>
      <point x="31" y="265" type="line"/>
      <point x="1117" y="265" type="line"/>
      <point x="758" y="1217" type="line"/>
    </contour>
  </outline>
</glyph>
<glyph name="upBlackSmallTriangle" format="2">
  <advance width="1240"/>
  <unicode hex="25B4"/>
  <outline>
    <contour>
      <point x="310" y="480" type="line"/>
      <point x="921" y="480" type="line"/>
      <point x="719" y="1014" type="line"/>
    </contour>
  </outline>
</glyph>
<glyph name="downBlackSmallTriangle" format="2">
  <advance width="1240"/>
  <unicode hex="25BE"/>
  <outline>
    <contour>
      <point x="1018" y="978" type="line"/>
      <point x="407" y="978" type="line"/>
      <point x="609" y="444" type="line"/>
    </contour>
  </outline>
</glyph>
<glyph name="leftArrowTipUp" format="2">
  <advance width="1240"/>
  <unicode hex="2B11"/>
  <outline>
    <contour>
      <point x="720" y="1248" type="line"/>
      <point x="153" y="775" type="line"/>
      <point x="218" y="694" type="line"/>
      <point x="719" y="1117" type="line"/>
      <point x="669" y="1117" type="line"/>
      <point x="1006" y="694" type="line"/>
      <point x="1103" y="775" type="line"/>
    </contour>
    <contour>
      <point x="755" y="1129" type="line"/>
      <point x="637" y="1129" type="line"/>
      <point x="462" y="228" type="line"/>
      <point x="580" y="228" type="line"/>
    </contour>
    <contour>
      <point x="524" y="1055" type="line"/>
      <point x="670" y="995" type="line"/>
      <point x="840" y="1054" type="line"/>
      <point x="694" y="1117" type="line"/>
    </contour>
    <contour>
      <point x="486" y="349" type="line"/>
      <point x="462" y="228" type="line"/>
      <point x="1066" y="228" type="line"/>
      <point x="1090" y="349" type="line"/>
    </contour>
  </outline>
</glyph>
<glyph name="Aacute.alt5" format="2">
  <advance width="1240"/>
  <outline>
    <contour>
      <point x="110" y="0" type="line"/>
      <point x="240" y="0" type="line"/>
      <point x="399" y="819" type="line"/>
      <point x="813" y="1370" type="line"/>
      <point x="776" y="1385" type="line"/>
      <point x="979" y="848" type="line"/>
      <point x="814" y="0" type="line"/>
      <point x="936" y="0" type="line"/>
      <point x="1103" y="861" type="line"/>
      <point x="880" y="1460" type="line"/>
      <point x="734" y="1460" type="line"/>
      <point x="277" y="861" type="line"/>
    </contour>
    <contour>
      <point x="276" y="449" type="line"/>
      <point x="939" y="449" type="line"/>
      <point x="959" y="552" type="line"/>
      <point x="296" y="552" type="line"/>
    </contour>
    <contour>
      <point x="889" y="1650" type="line"/>
      <point x="780" y="1650" type="line"/>
      <point x="1047" y="1883" type="line"/>
      <point x="1187" y="1883" type="line"/>
    </contour>
  </outline>
</glyph>
<glyph name="Adotbelow.alt5" format="2">
  <advance width="1240"/>
  <outline>
    <contour>
      <point x="110" y="0" type="line"/>
      <point x="240" y="0" type="line"/>
      <point x="399" y="819" type="line"/>
      <point x="813" y="1370" type="line"/>
      <point x="776" y="1385" type="line"/>
      <point x="979" y="848" type="line"/>
      <point x="814" y="0" type="line"/>
      <point x="936" y="0" type="line"/>
      <point x="1103" y="861" type="line"/>
      <point x="880" y="1460" type="line"/>
      <point x="734" y="1460" type="line"/>
      <point x="277" y="861" type="line"/>
    </contour>
    <contour>
      <point x="276" y="449" type="line"/>
      <point x="939" y="449" type="line"/>
      <point x="959" y="552" type="line"/>
      <point x="296" y="552" type="line"/>
    </contour>
    <contour>
      <point x="417" y="-546" type="line"/>
      <point x="579" y="-416" type="line"/>
      <point x="467" y="-286" type="line"/>
      <point x="305" y="-416" type="line"/>
    </contour>
  </outline>
</glyph>
<glyph name="Aogonek.alt5" format="2">
  <advance width="1240"/>
  <outline>
    <contour>
      <point x="110" y="0" type="line"/>
      <point x="240" y="0" type="line"/>
      <point x="399" y="819" type="line"/>
      <point x="813" y="1370" type="line"/>
      <point x="776" y="1385" type="line"/>
      <point x="979" y="848" type="line"/>
      <point x="814" y="0" type="line"/>
      <point x="936" y="0" type="line"/>
      <point x="1103" y="861" type="line"/>
      <point x="880" y="1460" type="line"/>
      <point x="734" y="1460" type="line"/>
      <point x="277" y="861" type="line"/>
    </contour>
    <contour>
      <point x="276" y="449" type="line"/>
      <point x="939" y="449" type="line"/>
      <point x="959" y="552" type="line"/>
      <point x="296" y="552" type="line"/>
    </contour>
    <contour>
      <point x="662" y="-122" type="line"/>
      <point x="626" y="-310" type="line"/>
      <point x="746" y="-400" type="line"/>
      <point x="858" y="-400" type="line"/>
      <point x="876" y="-310" type="line"/>
      <point x="795" y="-310" type="line"/>
      <point x="737" y="-262" type="line"/>
      <point x="759" y="-151" type="line"/>
      <point x="936" y="0" type="line"/>
      <point x="861" y="37" type="line"/>
    </contour>
  </outline>
</glyph>
<glyph name="Ccaron.alt5" format="2">
  <advance width="1240"/>
  <outline>
    <contour>
      <point x="413" y="0" type="line"/>
      <point x="973" y="0" type="line"/>
      <point x="1014" y="110" type="line"/>
      <point x="499" y="110" type="line"/>
      <point x="269" y="565" type="line"/>
      <point x="331" y="885" type="line"/>
      <point x="760" y="1350" type="line"/>
      <point x="1255" y="1350" type="line"/>
      <point x="1257" y="1460" type="line"/>
      <point x="697" y="1460" type="line"/>
      <point x="214" y="933" type="line"/>
      <point x="137" y="537" type="line"/>
    </contour>
    <contour>
      <point x="647" y="1883" type="line"/>
      <point x="778" y="1883" type="line"/>
      <point x="957" y="1679" type="line"/>
      <point x="901" y="1679" type="line"/>
      <point x="1160" y="1883" type="line"/>
      <point x="1291" y="1883" type="line"/>
      <point x="982" y="1650" type="line"/>
      <point x="866" y="1650" type="line"/>
    </contour>
  </outline>
</glyph>
<glyph name="Ccedilla.alt1" format="2">
  <advance width="1240"/>
  <outline>
    <contour>
      <point x="413" y="0" type="line"/>
      <point x="973" y="0" type="line"/>
      <point x="1014" y="110" type="line"/>
      <point x="499" y="110" type="line"/>
      <point x="269" y="565" type="line"/>
      <point x="331" y="885" type="line"/>
      <point x="760" y="1350" type="line"/>
      <point x="1255" y="1350" type="line"/>
      <point x="1257" y="1460" type="line"/>
      <point x="697" y="1460" type="line"/>
      <point x="214" y="933" type="line"/>
      <point x="137" y="537" type="line"/>
    </contour>
    <contour>
      <point x="427" y="-565" type="line"/>
      <point x="611" y="-565" type="line"/>
      <point x="769" y="-455" type="line"/>
      <point x="803" y="-279" type="line"/>
      <point x="687" y="-169" type="line"/>
      <point x="619" y="-169" type="line"/>
      <point x="633" y="-196" type="line"/>
      <point x="680" y="48" type="line"/>
      <point x="586" y="48" type="line"/>
      <point x="527" y="-259" type="line"/>
      <point x="633" y="-259" type="line"/>
      <point x="705" y="-329" type="line"/>
      <point x="690" y="-405" type="line"/>
      <point x="591" y="-475" type="line"/>
      <point x="445" y="-475" type="line"/>
    </contour>
  </outline>
</glyph>
<glyph name="Ccircumflex.alt1" format="2">
  <advance width="1240"/>
  <outline>
    <contour>
      <point x="413" y="0" type="line"/>
      <point x="973" y="0" type="line"/>
      <point x="1014" y="110" type="line"/>
      <point x="499" y="110" type="line"/>
      <point x="269" y="565" type="line"/>
      <point x="331" y="885" type="line"/>
      <point x="760" y="1350" type="line"/>
      <point x="1255" y="1350" type="line"/>
      <point x="1257" y="1460" type="line"/>
      <point x="697" y="1460" type="line"/>
      <point x="214" y="933" type="line"/>
      <point x="137" y="537" type="line"/>
    </contour>
    <contour>
      <point x="602" y="1650" type="line"/>
      <point x="733" y="1650" type="line"/>
      <point x="991" y="1854" type="line"/>
      <point x="935" y="1854" type="line"/>
      <point x="1115" y="1650" type="line"/>
      <point x="1246" y="1650" type="line"/>
      <point x="1027" y="1883" type="line"/>
      <point x="911" y="1883" type="line"/>
    </contour>
  </outline>
</glyph>
<glyph name="Dcroat.alt5" format="2">
  <advance width="1240"/>
  <outline>
    <contour>
      <point x="80" y="705" type="line"/>
      <point x="712" y="705" type="line"/>
      <point x="733" y="815" type="line"/>
      <point x="101" y="815" type="line"/>
    </contour>
    <contour>
      <point x="163" y="0" type="line"/>
      <point x="633" y="0" type="line"/>
      <point x="1118" y="540" type="line"/>
      <point x="1194" y="930" type="line"/>
      <point x="917" y="1460" type="line"/>
      <point x="447" y="1460" type="line"/>
      <point x="425" y="1350" type="line"/>
      <point x="829" y="1350" type="line"/>
      <point x="1062" y="900" type="line"/>
      <point x="1001" y="585" type="line"/>
      <point x="573" y="110" type="line"/>
      <point x="184" y="110" type="line"/>
    </contour>
    <contour>
      <point x="110" y="0" type="line"/>
      <point x="236" y="0" type="line"/>
      <point x="520" y="1460" type="line"/>
      <point x="394" y="1460" type="line"/>
    </contour>
  </outline>
</glyph>
<glyph name="E.alt5" format="2">
  <advance width="1240"/>
  <outline>
    <contour>
      <point x="246" y="0" type="line"/>
      <point x="530" y="1460" type="line"/>
      <point x="404" y="1460" type="line"/>
      <point x="120" y="0" type="line"/>
    </contour>
    <contour>
      <point x="1002" y="110" type="line"/>
      <point x="226" y="110" type="line"/>
      <point x="205" y="0" type="line"/>
      <point x="961" y="0" type="line"/>
    </contour>
    <contour>
      <point x="969" y="779" type="line"/>
      <point x="356" y="779" type="line"/>
      <point x="336" y="674" type="line"/>
      <point x="949" y="674" type="line"/>
    </contour>
    <contour>
      <point x="1203" y="1350" type="line"/>
      <point x="1205" y="1460" type="line"/>
      <point x="489" y="1460" type="line"/>
      <point x="467" y="1350" type="line"/>
    </contour>
  </outline>
</glyph>
<glyph name="Ebreve.alt1" format="2">
  <advance width="1240"/>
  <outline>
    <contour>
      <point x="246" y="0" type="line"/>
      <point x="530" y="1460" type="line"/>
      <point x="404" y="1460" type="line"/>
      <point x="120" y="0" type="line"/>
    </contour>
    <contour>
      <point x="1002" y="110" type="line"/>
      <point x="226" y="110" type="line"/>
      <point x="205" y="0" type="line"/>
      <point x="961" y="0" type="line"/>
    </contour>
    <contour>
      <point x="969" y="779" type="line"/>
      <point x="356" y="779" type="line"/>
      <point x="336" y="674" type="line"/>
      <point x="949" y="674" type="line"/>
    </contour>
    <contour>
      <point x="1203" y="1350" type="line"/>
      <point x="1205" y="1460" type="line"/>
      <point x="489" y="1460" type="line"/>
      <point x="467" y="1350" type="line"/>
    </contour>
    <contour>
      <point x="725" y="1643" type="line"/>
      <point x="1019" y="1643" type="line"/>
      <point x="1162" y="1760" type="line"/>
      <point x="1186" y="1883" type="line"/>
      <point x="1096" y="1883" type="line"/>
      <point x="1079" y="1797" type="line"/>
      <point x="996" y="1731" type="line"/>
      <point x="782" y="1731" type="line"/>
      <point x="725" y="1797" type="line"/>
      <point x="742" y="1883" type="line"/>
      <point x="652" y="1883" type="line"/>
      <point x="628" y="1759" type="line"/>
    </contour>
  </outline>
</glyph>
<glyph name="Ecaron.alt1" format="2">
  <advance width="1240"/>
  <outline>
    <contour>
      <point x="246" y="0" type="line"/>
      <point x="530" y="1460" type="line"/>
      <point x="404" y="1460" type="line"/>
      <point x="120" y="0" type="line"/>
    </contour>
    <contour>
      <point x="1002" y="110" type="line"/>
      <point x="226" y="110" type="line"/>
      <point x="205" y="0" type="line"/>
      <point x="961" y="0" type="line"/>
    </contour>
    <contour>
      <point x="969" y="779" type="line"/>
      <point x="356" y="779" type="line"/>
      <point x="336" y="674" type="line"/>
      <point x="949" y="674" type="line"/>
    </contour>
    <contour>
      <point x="1203" y="1350" type="line"/>
      <point x="1205" y="1460" type="line"/>
      <point x="489" y="1460" type="line"/>
      <point x="467" y="1350" type="line"/>
    </contour>
    <contour>
      <point x="597" y="1883" type="line"/>
      <point x="728" y="1883" type="line"/>
      <point x="907" y="1679" type="line"/>
      <point x="851" y="1679" type="line"/>
      <point x="1110" y="1883" type="line"/>
      <point x="1241" y="1883" type="line"/>
      <point x="932" y="1650" type="line"/>
      <point x="816" y="1650" type="line"/>
    </contour>
  </outline>
</glyph>
<glyph name="Ecircumflex.alt1" format="2">
  <advance width="1240"/>
  <outline>
    <contour>
      <point x="246" y="0" type="line"/>
      <point x="530" y="1460" type="line"/>
      <point x="404" y="1460" type="line"/>
      <point x="120" y="0" type="line"/>
    </contour>
    <contour>
      <point x="1002" y="110" type="line"/>
      <point x="226" y="110" type="line"/>
      <point x="205" y="0" type="line"/>
      <point x="961" y="0" type="line"/>
    </contour>
    <contour>
      <point x="969" y="779" type="line"/>
      <point x="356" y="779" type="line"/>
      <point x="336" y="674" type="line"/>
      <point x="949" y="674" type="line"/>
    </contour>
    <contour>
      <point x="1203" y="1350" type="line"/>
      <point x="1205" y="1460" type="line"/>
      <point x="489" y="1460" type="line"/>
      <point x="467" y="1350" type="line"/>
    </contour>
    <contour>
      <point x="552" y="1650" type="line"/>
      <point x="683" y="1650" type="line"/>
      <point x="941" y="1854" type="line"/>
      <point x="885" y="1854" type="line"/>
      <point x="1065" y="1650" type="line"/>
      <point x="1196" y="1650" type="line"/>
      <point x="977" y="1883" type="line"/>
      <point x="861" y="1883" type="line"/>
    </contour>
  </outline>
</glyph>
<glyph name="Etilde.alt1" format="2">
  <advance width="1240"/>
  <outline>
    <contour>
      <point x="246" y="0" type="line"/>
      <point x="530" y="1460" type="line"/>
      <point x="404" y="1460" type="line"/>
      <point x="120" y="0" type="line"/>
    </contour>
    <contour>
      <point x="1002" y="110" type="line"/>
      <point x="226" y="110" type="line"/>
      <point x="205" y="0" type="line"/>
      <point x="961" y="0" type="line"/>
    </contour>
    <contour>
      <point x="969" y="779" type="line"/>
      <point x="356" y="779" type="line"/>
      <point x="336" y="674" type="line"/>
      <point x="949" y="674" type="line"/>
    </contour>
    <contour>
      <point x="1203" y="1350" type="line"/>
      <point x="1205" y="1460" type="line"/>
      <point x="489" y="1460" type="line"/>
      <point x="467" y="1350" type="line"/>
    </contour>
    <contour>
      <point x="864" y="1893" type="line"/>
      <point x="694" y="1893" type="line"/>
      <point x="549" y="1765" type="line"/>
      <point x="525" y="1643" type="line"/>
      <point x="615" y="1643" type="line"/>
      <point x="633" y="1734" type="line"/>
      <point x="715" y="1805" type="line"/>
      <point x="806" y="1805" type="line"/>
      <point x="929" y="1643" type="line"/>
      <point x="1099" y="1643" type="line"/>
      <point x="1244" y="1771" type="line"/>
      <point x="1268" y="1893" type="line"/>
      <point x="1178" y="1893" type="line"/>
      <point x="1160" y="1802" type="line"/>
      <point x="1078" y="1731" type="line"/>
      <point x="987" y="1731" type="line"/>
    </contour>
  </outline>
</glyph>
<glyph name="F.alt1" format="2">
  <advance width="1240"/>
  <outline>
    <contour>
      <point x="130" y="0" type="line"/>
      <point x="256" y="0" type="line"/>
      <point x="540" y="1460" type="line"/>
      <point x="414" y="1460" type="line"/>
    </contour>
    <contour>
      <point x="337" y="627" type="line"/>
      <point x="990" y="627" type="line"/>
      <point x="1009" y="726" type="line"/>
      <point x="356" y="726" type="line"/>
    </contour>
    <contour>
      <point x="479" y="1360" type="line"/>
      <point x="1255" y="1360" type="line"/>
      <point x="1255" y="1460" type="line"/>
      <point x="499" y="1460" type="line"/>
    </contour>
  </outline>
</glyph>
<glyph name="G.alt1" format="2">
  <advance width="1240"/>
  <outline>
    <contour>
      <point x="413" y="0" type="line"/>
      <point x="903" y="0" type="line"/>
      <point x="1027" y="114" type="line"/>
      <point x="1153" y="763" type="line"/>
      <point x="707" y="763" type="line"/>
      <point x="687" y="659" type="line"/>
      <point x="1078" y="659" type="line"/>
      <point x="1030" y="704" type="line"/>
      <point x="927" y="176" type="line"/>
      <point x="854" y="110" type="line"/>
      <point x="495" y="110" type="line"/>
      <point x="269" y="565" type="line"/>
      <point x="331" y="885" type="line"/>
      <point x="755" y="1350" type="line"/>
      <point x="1215" y="1350" type="line"/>
      <point x="1217" y="1460" type="line"/>
      <point x="697" y="1460" type="line"/>
      <point x="214" y="930" type="line"/>
      <point x="138" y="540" type="line"/>
    </contour>
  </outline>
</glyph>
<glyph name="Germandbls.alt5" format="2">
  <advance width="1240"/>
  <outline>
    <contour>
      <point x="1189" y="1460" type="line"/>
      <point x="404" y="1460" type="line"/>
      <point x="120" y="0" type="line"/>
      <point x="246" y="0" type="line"/>
      <point x="519" y="1405" type="line"/>
      <point x="465" y="1360" type="line"/>
      <point x="1076" y="1360" type="line"/>
      <point x="1064" y="1403" type="line"/>
      <point x="729" y="887" type="line"/>
      <point x="710" y="787" type="line"/>
      <point x="976" y="561" type="line"/>
      <point x="929" y="317" type="line"/>
      <point x="656" y="100" type="line"/>
      <point x="455" y="100" type="line"/>
      <point x="436" y="0" type="line"/>
      <point x="696" y="0" type="line"/>
      <point x="1047" y="278" type="line"/>
      <point x="1109" y="596" type="line"/>
      <point x="787" y="880" type="line"/>
      <point x="791" y="796" type="line"/>
      <point x="1175" y="1390" type="line"/>
    </contour>
  </outline>
</glyph>
<glyph name="H.alt4" format="2">
  <advance width="1240"/>
  <outline>
    <contour>
      <point x="810" y="0" type="line"/>
      <point x="936" y="0" type="line"/>
      <point x="1220" y="1460" type="line"/>
      <point x="1094" y="1460" type="line"/>
    </contour>
    <contour>
      <point x="110" y="0" type="line"/>
      <point x="236" y="0" type="line"/>
      <point x="520" y="1460" type="line"/>
      <point x="394" y="1460" type="line"/>
    </contour>
    <contour>
      <point x="317" y="709" type="line"/>
      <point x="1009" y="709" type="line"/>
      <point x="1028" y="810" type="line"/>
      <point x="336" y="810" type="line"/>
    </contour>
  </outline>
</glyph>
<glyph name="Hcircumflex.alt1" format="2">
  <advance width="1240"/>
  <outline>
    <contour>
      <point x="810" y="0" type="line"/>
      <point x="936" y="0" type="line"/>
      <point x="1220" y="1460" type="line"/>
      <point x="1094" y="1460" type="line"/>
    </contour>
    <contour>
      <point x="110" y="0" type="line"/>
      <point x="236" y="0" type="line"/>
      <point x="520" y="1460" type="line"/>
      <point x="394" y="1460" type="line"/>
    </contour>
    <contour>
      <point x="317" y="709" type="line"/>
      <point x="1009" y="709" type="line"/>
      <point x="1028" y="810" type="line"/>
      <point x="336" y="810" type="line"/>
    </contour>
    <contour>
      <point x="522" y="1650" type="line"/>
      <point x="653" y="1650" type="line"/>
      <point x="911" y="1854" type="line"/>
      <point x="855" y="1854" type="line"/>
      <point x="1035" y="1650" type="line"/>
      <point x="1166" y="1650" type="line"/>
      <point x="947" y="1883" type="line"/>
      <point x="831" y="1883" type="line"/>
    </contour>
  </outline>
</glyph>
<glyph name="I.alt1" format="2">
  <advance width="1240"/>
  <outline>
    <contour>
      <point x="450" y="0" type="line"/>
      <point x="576" y="0" type="line"/>
      <point x="860" y="1460" type="line"/>
      <point x="734" y="1460" type="line"/>
    </contour>
    <contour>
      <point x="75" y="0" type="line"/>
      <point x="971" y="0" type="line"/>
      <point x="1012" y="110" type="line"/>
      <point x="76" y="110" type="line"/>
    </contour>
    <contour>
      <point x="317" y="1350" type="line"/>
      <point x="1253" y="1350" type="line"/>
      <point x="1255" y="1460" type="line"/>
      <point x="359" y="1460" type="line"/>
    </contour>
  </outline>
</glyph>
<glyph name="I.alt2" format="2">
  <advance width="1240"/>
  <outline>
    <contour>
      <point x="450" y="0" type="line"/>
      <point x="576" y="0" type="line"/>
      <point x="860" y="1460" type="line"/>
      <point x="734" y="1460" type="line"/>
    </contour>
    <contour>
      <point x="75" y="0" type="line"/>
      <point x="971" y="0" type="line"/>
      <point x="1012" y="110" type="line"/>
      <point x="76" y="110" type="line"/>
    </contour>
    <contour>
      <point x="317" y="1350" type="line"/>
      <point x="1253" y="1350" type="line"/>
      <point x="1255" y="1460" type="line"/>
      <point x="359" y="1460" type="line"/>
    </contour>
  </outline>
</glyph>
<glyph name="IJ.alt5" format="2">
  <advance width="1240"/>
  <outline>
    <contour>
      <point x="238" y="650" type="line"/>
      <point x="364" y="650" type="line"/>
      <point x="522" y="1460" type="line"/>
      <point x="396" y="1460" type="line"/>
    </contour>
    <contour>
      <point x="370" y="0" type="line"/>
      <point x="666" y="0" type="line"/>
      <point x="974" y="198" type="line"/>
      <point x="1220" y="1460" type="line"/>
      <point x="1094" y="1460" type="line"/>
      <point x="859" y="252" type="line"/>
      <point x="614" y="110" type="line"/>
      <point x="464" y="110" type="line"/>
      <point x="285" y="252" type="line"/>
      <point x="314" y="401" type="line"/>
      <point x="188" y="401" type="line"/>
      <point x="148" y="198" type="line"/>
    </contour>
    <contour>
      <point x="708" y="1350" type="line"/>
      <point x="1154" y="1350" type="line"/>
      <point x="1176" y="1460" type="line"/>
      <point x="750" y="1460" type="line"/>
    </contour>
  </outline>
</glyph>
<glyph name="Icircumflex.alt1" format="2">
  <advance width="1240"/>
  <outline>
    <contour>
      <point x="450" y="0" type="line"/>
      <point x="576" y="0" type="line"/>
      <point x="860" y="1460" type="line"/>
      <point x="734" y="1460" type="line"/>
    </contour>
    <contour>
      <point x="75" y="0" type="line"/>
      <point x="971" y="0" type="line"/>
      <point x="1012" y="110" type="line"/>
      <point x="76" y="110" type="line"/>
    </contour>
    <contour>
      <point x="317" y="1350" type="line"/>
      <point x="1253" y="1350" type="line"/>
      <point x="1255" y="1460" type="line"/>
      <point x="359" y="1460" type="line"/>
    </contour>
    <contour>
      <point x="522" y="1650" type="line"/>
      <point x="653" y="1650" type="line"/>
      <point x="911" y="1854" type="line"/>
      <point x="855" y="1854" type="line"/>
      <point x="1035" y="1650" type="line"/>
      <point x="1166" y="1650" type="line"/>
      <point x="947" y="1883" type="line"/>
      <point x="831" y="1883" type="line"/>
    </contour>
  </outline>
</glyph>
<glyph name="Itilde.alt5" format="2">
  <advance width="1240"/>
  <outline>
    <contour>
      <point x="450" y="0" type="line"/>
      <point x="576" y="0" type="line"/>
      <point x="860" y="1460" type="line"/>
      <point x="734" y="1460" type="line"/>
    </contour>
    <contour>
      <point x="75" y="0" type="line"/>
      <point x="971" y="0" type="line"/>
      <point x="1012" y="110" type="line"/>
      <point x="76" y="110" type="line"/>
    </contour>
    <contour>
      <point x="317" y="1350" type="line"/>
      <point x="1253" y="1350" type="line"/>
      <point x="1255" y="1460" type="line"/>
      <point x="359" y="1460" type="line"/>
    </contour>
    <contour>
      <point x="834" y="1893" type="line"/>
      <point x="664" y="1893" type="line"/>
      <point x="519" y="1765" type="line"/>
      <point x="495" y="1643" type="line"/>
      <point x="585" y="1643" type="line"/>
      <point x="603" y="1734" type="line"/>
      <point x="685" y="1805" type="line"/>
      <point x="776" y="1805" type="line"/>
      <point x="899" y="1643" type="line"/>
      <point x="1069" y="1643" type="line"/>
      <point x="1214" y="1771" type="line"/>
      <point x="1238" y="1893" type="line"/>
      <point x="1148" y="1893" type="line"/>
      <point x="1130" y="1802" type="line"/>
      <point x="1048" y="1731" type="line"/>
      <point x="957" y="1731" type="line"/>
    </contour>
  </outline>
</glyph>
<glyph name="J.alt1" format="2">
  <advance width="1240"/>
  <outline>
    <contour>
      <point x="460" y="0" type="line"/>
      <point x="606" y="0" type="line"/>
      <point x="1031" y="489" type="line"/>
      <point x="1220" y="1460" type="line"/>
      <point x="1094" y="1460" type="line"/>
      <point x="912" y="527" type="line"/>
      <point x="519" y="80" type="line"/>
      <point x="569" y="80" type="line"/>
      <point x="337" y="521" type="line"/>
      <point x="387" y="778" type="line"/>
      <point x="261" y="778" type="line"/>
      <point x="205" y="489" type="line"/>
    </contour>
    <contour>
      <point x="468" y="1350" type="line"/>
      <point x="1154" y="1350" type="line"/>
      <point x="1176" y="1460" type="line"/>
      <point x="510" y="1460" type="line"/>
    </contour>
  </outline>
</glyph>
<glyph name="K.alt1" format="2">
  <advance width="1240"/>
  <outline>
    <contour>
      <point x="830" y="0" type="line"/>
      <point x="956" y="0" type="line"/>
      <point x="1008" y="266" type="line"/>
      <point x="690" y="784" type="line"/>
      <point x="678" y="719" type="line"/>
      <point x="1188" y="1194" type="line"/>
      <point x="1240" y="1460" type="line"/>
      <point x="1114" y="1460" type="line"/>
      <point x="1070" y="1237" type="line"/>
      <point x="575" y="768" type="line"/>
      <point x="658" y="805" type="line"/>
      <point x="359" y="805" type="line"/>
      <point x="339" y="700" type="line"/>
      <point x="650" y="700" type="line"/>
      <point x="577" y="721" type="line"/>
      <point x="878" y="248" type="line"/>
    </contour>
    <contour>
      <point x="120" y="0" type="line"/>
      <point x="246" y="0" type="line"/>
      <point x="530" y="1460" type="line"/>
      <point x="404" y="1460" type="line"/>
    </contour>
  </outline>
</glyph>
<glyph name="L.alt" format="2">
  <advance width="1240"/>
  <outline>
    <contour>
      <point x="110" y="0" type="line"/>
      <point x="236" y="0" type="line"/>
      <point x="520" y="1460" type="line"/>
      <point x="394" y="1460" type="line"/>
    </contour>
    <contour>
      <point x="195" y="0" type="line"/>
      <point x="1001" y="0" type="line"/>
      <point x="1042" y="110" type="line"/>
      <point x="216" y="110" type="line"/>
    </contour>
  </outline>
</glyph>
<glyph name="Lacute.alt5" format="2">
  <advance width="1240"/>
  <outline>
    <contour>
      <point x="110" y="0" type="line"/>
      <point x="236" y="0" type="line"/>
      <point x="520" y="1460" type="line"/>
      <point x="394" y="1460" type="line"/>
    </contour>
    <contour>
      <point x="195" y="0" type="line"/>
      <point x="1001" y="0" type="line"/>
      <point x="1042" y="110" type="line"/>
      <point x="216" y="110" type="line"/>
    </contour>
    <contour>
      <point x="562" y="1650" type="line"/>
      <point x="453" y="1650" type="line"/>
      <point x="720" y="1883" type="line"/>
      <point x="860" y="1883" type="line"/>
    </contour>
  </outline>
</glyph>
<glyph name="Lcommaaccent.alt5" format="2">
  <advance width="1240"/>
  <outline>
    <contour>
      <point x="110" y="0" type="line"/>
      <point x="236" y="0" type="line"/>
      <point x="520" y="1460" type="line"/>
      <point x="394" y="1460" type="line"/>
    </contour>
    <contour>
      <point x="195" y="0" type="line"/>
      <point x="1001" y="0" type="line"/>
      <point x="1042" y="110" type="line"/>
      <point x="216" y="110" type="line"/>
    </contour>
    <contour>
      <point x="328" y="-527" type="line"/>
      <point x="481" y="-527" type="line"/>
      <point x="491" y="-471" type="line"/>
      <point x="264" y="-707" type="line"/>
      <point x="331" y="-747" type="line"/>
      <point x="543" y="-527" type="line"/>
      <point x="584" y="-312" type="line"/>
      <point x="369" y="-312" type="line"/>
    </contour>
  </outline>
</glyph>
<glyph name="Ldot.alt5" format="2">
  <advance width="1240"/>
  <outline>
    <contour>
      <point x="110" y="0" type="line"/>
      <point x="236" y="0" type="line"/>
      <point x="520" y="1460" type="line"/>
      <point x="394" y="1460" type="line"/>
    </contour>
    <contour>
      <point x="195" y="0" type="line"/>
      <point x="1001" y="0" type="line"/>
      <point x="1042" y="110" type="line"/>
      <point x="216" y="110" type="line"/>
    </contour>
    <contour>
      <point x="944" y="679" type="line"/>
      <point x="1106" y="809" type="line"/>
      <point x="995" y="939" type="line"/>
      <point x="832" y="809" type="line"/>
    </contour>
  </outline>
</glyph>
<glyph name="N.alt1" format="2">
  <advance width="1240"/>
  <outline>
    <contour>
      <point x="110" y="0" type="line"/>
      <point x="230" y="0" type="line"/>
      <point x="471" y="1240" type="line"/>
      <point x="483" y="1240" type="line"/>
      <point x="799" y="1" type="line"/>
      <point x="936" y="1" type="line"/>
      <point x="1220" y="1461" type="line"/>
      <point x="1100" y="1461" type="line"/>
      <point x="867" y="264" type="line"/>
      <point x="855" y="264" type="line"/>
      <point x="546" y="1460" type="line"/>
      <point x="394" y="1460" type="line"/>
    </contour>
  </outline>
</glyph>
<glyph name="Ograve.alt1" format="2">
  <advance width="1240"/>
  <outline>
    <contour>
      <point x="413" y="0" type="line"/>
      <point x="632" y="0" type="line"/>
      <point x="1118" y="540" type="line"/>
      <point x="1194" y="930" type="line"/>
      <point x="936" y="1460" type="line"/>
      <point x="697" y="1460" type="line"/>
      <point x="214" y="930" type="line"/>
      <point x="138" y="540" type="line"/>
    </contour>
    <contour>
      <point x="480" y="110" type="line"/>
      <point x="266" y="550" type="line"/>
      <point x="330" y="880" type="line"/>
      <point x="749" y="1350" type="line"/>
      <point x="856" y="1350" type="line"/>
      <point x="1066" y="920" type="line"/>
      <point x="1002" y="590" type="line"/>
      <point x="587" y="110" type="line"/>
    </contour>
    <contour>
      <point x="799" y="1650" type="line"/>
      <point x="908" y="1650" type="line"/>
      <point x="731" y="1883" type="line"/>
      <point x="591" y="1883" type="line"/>
    </contour>
  </outline>
</glyph>
<glyph name="Omacron.alt5" format="2">
  <advance width="1240"/>
  <outline>
    <contour>
      <point x="413" y="0" type="line"/>
      <point x="632" y="0" type="line"/>
      <point x="1118" y="540" type="line"/>
      <point x="1194" y="930" type="line"/>
      <point x="936" y="1460" type="line"/>
      <point x="697" y="1460" type="line"/>
      <point x="214" y="930" type="line"/>
      <point x="138" y="540" type="line"/>
    </contour>
    <contour>
      <point x="480" y="110" type="line"/>
      <point x="266" y="550" type="line"/>
      <point x="330" y="880" type="line"/>
      <point x="749" y="1350" type="line"/>
      <point x="856" y="1350" type="line"/>
      <point x="1066" y="920" type="line"/>
      <point x="1002" y="590" type="line"/>
      <point x="587" y="110" type="line"/>
    </contour>
    <contour>
      <point x="552" y="1731" type="line"/>
      <point x="1166" y="1731" type="line"/>
      <point x="1186" y="1831" type="line"/>
      <point x="572" y="1831" type="line"/>
    </contour>
  </outline>
</glyph>
<glyph name="Omega.alt5" format="2">
  <advance width="1240"/>
  <outline>
    <contour>
      <point x="789" y="1367" type="curve" smooth="yes"/>
      <point x="1016" y="1367"/>
      <point x="1144" y="1225"/>
      <point x="1073" y="857" type="curve" smooth="yes"/>
      <point x="1017" y="571"/>
      <point x="891" y="405"/>
      <point x="716" y="249" type="curve"/>
      <point x="668" y="0" type="line"/>
      <point x="1015" y="0" type="line"/>
      <point x="1036" y="106" type="line"/>
      <point x="749" y="106" type="line"/>
      <point x="766" y="197" type="line"/>
      <point x="941" y="318"/>
      <point x="1141" y="506"/>
      <point x="1211" y="866" type="curve" smooth="yes"/>
      <point x="1291" y="1278"/>
      <point x="1107" y="1484"/>
      <point x="801" y="1484" type="curve" smooth="yes"/>
      <point x="495" y="1484"/>
      <point x="255" y="1298"/>
      <point x="175" y="886" type="curve" smooth="yes"/>
      <point x="105" y="526"/>
      <point x="229" y="318"/>
      <point x="356" y="197" type="curve"/>
      <point x="339" y="106" type="line"/>
      <point x="52" y="106" type="line"/>
      <point x="31" y="0" type="line"/>
      <point x="378" y="0" type="line"/>
      <point x="426" y="249" type="line"/>
      <point x="313" y="405"/>
      <point x="251" y="571"/>
      <point x="307" y="857" type="curve" smooth="yes"/>
      <point x="378" y="1225"/>
      <point x="562" y="1367"/>
    </contour>
  </outline>
</glyph>
<glyph name="P.alt4" format="2">
  <advance width="1240"/>
  <outline>
    <contour>
      <point x="272" y="567" type="line"/>
      <point x="798" y="567" type="line"/>
      <point x="1169" y="908" type="line"/>
      <point x="1225" y="1192" type="line"/>
      <point x="980" y="1460" type="line"/>
      <point x="446" y="1460" type="line"/>
      <point x="426" y="1360" type="line"/>
      <point x="911" y="1360" type="line"/>
      <point x="1093" y="1163" type="line"/>
      <point x="1050" y="943" type="line"/>
      <point x="752" y="667" type="line"/>
      <point x="292" y="667" type="line"/>
    </contour>
    <contour>
      <point x="120" y="0" type="line"/>
      <point x="246" y="0" type="line"/>
      <point x="530" y="1460" type="line"/>
      <point x="404" y="1460" type="line"/>
    </contour>
  </outline>
</glyph>
<glyph name="R.alt" format="2">
  <advance width="1240"/>
  <outline>
    <contour>
      <point x="286" y="637" type="line"/>
      <point x="792" y="637" type="line"/>
      <point x="1165" y="938" type="line"/>
      <point x="1211" y="1172" type="line"/>
      <point x="960" y="1460" type="line"/>
      <point x="446" y="1460" type="line"/>
      <point x="426" y="1360" type="line"/>
      <point x="891" y="1360" type="line"/>
      <point x="1079" y="1143" type="line"/>
      <point x="1046" y="973" type="line"/>
      <point x="755" y="737" type="line"/>
      <point x="305" y="737" type="line"/>
    </contour>
    <contour>
      <point x="120" y="0" type="line"/>
      <point x="246" y="0" type="line"/>
      <point x="530" y="1460" type="line"/>
      <point x="404" y="1460" type="line"/>
    </contour>
    <contour>
      <point x="830" y="0" type="line"/>
      <point x="956" y="0" type="line"/>
      <point x="1008" y="266" type="line"/>
      <point x="778" y="697" type="line"/>
      <point x="636" y="697" type="line"/>
      <point x="876" y="238" type="line"/>
    </contour>
  </outline>
</glyph>
<glyph name="Rcaron.alt1" format="2">
  <advance width="1240"/>
  <outline>
    <contour>
      <point x="286" y="637" type="line"/>
      <point x="792" y="637" type="line"/>
      <point x="1165" y="938" type="line"/>
      <point x="1211" y="1172" type="line"/>
      <point x="960" y="1460" type="line"/>
      <point x="446" y="1460" type="line"/>
      <point x="426" y="1360" type="line"/>
      <point x="891" y="1360" type="line"/>
      <point x="1079" y="1143" type="line"/>
      <point x="1046" y="973" type="line"/>
      <point x="755" y="737" type="line"/>
      <point x="305" y="737" type="line"/>
    </contour>
    <contour>
      <point x="120" y="0" type="line"/>
      <point x="246" y="0" type="line"/>
      <point x="530" y="1460" type="line"/>
      <point x="404" y="1460" type="line"/>
    </contour>
    <contour>
      <point x="830" y="0" type="line"/>
      <point x="956" y="0" type="line"/>
      <point x="1008" y="266" type="line"/>
      <point x="778" y="697" type="line"/>
      <point x="636" y="697" type="line"/>
      <point x="876" y="238" type="line"/>
    </contour>
    <contour>
      <point x="567" y="1883" type="line"/>
      <point x="698" y="1883" type="line"/>
      <point x="877" y="1679" type="line"/>
      <point x="821" y="1679" type="line"/>
      <point x="1080" y="1883" type="line"/>
      <point x="1211" y="1883" type="line"/>
      <point x="902" y="1650" type="line"/>
      <point x="786" y="1650" type="line"/>
    </contour>
  </outline>
</glyph>
<glyph name="S.alt" format="2">
  <advance width="1240"/>
  <outline>
    <contour>
      <point x="93" y="0" type="line"/>
      <point x="723" y="0" type="line"/>
      <point x="1017" y="279" type="line"/>
      <point x="1056" y="476" type="line"/>
      <point x="405" y="1027" type="line"/>
      <point x="424" y="1129" type="line"/>
      <point x="666" y="1362" type="line"/>
      <point x="1198" y="1362" type="line"/>
      <point x="1197" y="1460" type="line"/>
      <point x="607" y="1460" type="line"/>
      <point x="313" y="1181" type="line"/>
      <point x="274" y="984" type="line"/>
      <point x="925" y="433" type="line"/>
      <point x="905" y="331" type="line"/>
      <point x="664" y="98" type="line"/>
      <point x="92" y="98" type="line"/>
    </contour>
  </outline>
</glyph>
<glyph name="Schwa.alt1" format="2">
  <advance width="1240"/>
  <outline>
    <contour>
      <point x="205" y="0" type="line"/>
      <point x="625" y="0" type="line"/>
      <point x="1110" y="540" type="line"/>
      <point x="1186" y="930" type="line"/>
      <point x="909" y="1460" type="line"/>
      <point x="389" y="1460" type="line"/>
      <point x="347" y="1350" type="line"/>
      <point x="821" y="1350" type="line"/>
      <point x="1054" y="900" type="line"/>
      <point x="990" y="570" type="line"/>
      <point x="580" y="110" type="line"/>
      <point x="286" y="110" type="line"/>
      <point x="189" y="236" type="line"/>
      <point x="256" y="581" type="line"/>
      <point x="416" y="709" type="line"/>
      <point x="1087" y="709" type="line"/>
      <point x="1107" y="813" type="line"/>
      <point x="375" y="813" type="line"/>
      <point x="156" y="631" type="line"/>
      <point x="69" y="184" type="line"/>
    </contour>
  </outline>
</glyph>
<glyph name="T.alt3" format="2">
  <advance width="1240"/>
  <outline>
    <contour>
      <point x="450" y="0" type="line"/>
      <point x="576" y="0" type="line"/>
      <point x="860" y="1460" type="line"/>
      <point x="734" y="1460" type="line"/>
    </contour>
    <contour>
      <point x="267" y="1350" type="line"/>
      <point x="1303" y="1350" type="line"/>
      <point x="1310" y="1460" type="line"/>
      <point x="304" y="1460" type="line"/>
    </contour>
  </outline>
</glyph>
<glyph name="Tbar.alt1" format="2">
  <advance width="1240"/>
  <outline>
    <contour>
      <point x="314" y="705" type="line"/>
      <point x="1006" y="705" type="line"/>
      <point x="1027" y="815" type="line"/>
      <point x="335" y="815" type="line"/>
    </contour>
    <contour>
      <point x="450" y="0" type="line"/>
      <point x="576" y="0" type="line"/>
      <point x="860" y="1460" type="line"/>
      <point x="734" y="1460" type="line"/>
    </contour>
    <contour>
      <point x="267" y="1350" type="line"/>
      <point x="1303" y="1350" type="line"/>
      <point x="1310" y="1460" type="line"/>
      <point x="304" y="1460" type="line"/>
    </contour>
  </outline>
</glyph>
<glyph name="Tcaron.alt5" format="2">
  <advance width="1240"/>
  <outline>
    <contour>
      <point x="450" y="0" type="line"/>
      <point x="576" y="0" type="line"/>
      <point x="860" y="1460" type="line"/>
      <point x="734" y="1460" type="line"/>
    </contour>
    <contour>
      <point x="267" y="1350" type="line"/>
      <point x="1303" y="1350" type="line"/>
      <point x="1310" y="1460" type="line"/>
      <point x="304" y="1460" type="line"/>
    </contour>
    <contour>
      <point x="567" y="1883" type="line"/>
      <point x="698" y="1883" type="line"/>
      <point x="877" y="1679" type="line"/>
      <point x="821" y="1679" type="line"/>
      <point x="1080" y="1883" type="line"/>
      <point x="1211" y="1883" type="line"/>
      <point x="902" y="1650" type="line"/>
      <point x="786" y="1650" type="line"/>
    </contour>
  </outline>
</glyph>
<glyph name="Tcedilla.alt5" format="2">
  <advance width="1240"/>
  <outline>
    <contour>
      <point x="450" y="0" type="line"/>
      <point x="576" y="0" type="line"/>
      <point x="860" y="1460" type="line"/>
      <point x="734" y="1460" type="line"/>
    </contour>
    <contour>
      <point x="267" y="1350" type="line"/>
      <point x="1303" y="1350" type="line"/>
      <point x="1310" y="1460" type="line"/>
      <point x="304" y="1460" type="line"/>
    </contour>
    <contour>
      <point x="298" y="-565" type="line"/>
      <point x="482" y="-565" type="line"/>
      <point x="640" y="-455" type="line"/>
      <point x="674" y="-279" type="line"/>
      <point x="558" y="-169" type="line"/>
      <point x="490" y="-169" type="line"/>
      <point x="504" y="-196" type="line"/>
      <point x="551" y="48" type="line"/>
      <point x="457" y="48" type="line"/>
      <point x="398" y="-259" type="line"/>
      <point x="504" y="-259" type="line"/>
      <point x="576" y="-329" type="line"/>
      <point x="561" y="-405" type="line"/>
      <point x="462" y="-475" type="line"/>
      <point x="316" y="-475" type="line"/>
    </contour>
  </outline>
</glyph>
<glyph name="U.alt4" format="2">
  <advance width="1240"/>
  <outline>
    <contour>
      <point x="270" y="0" type="line"/>
      <point x="776" y="0" type="line"/>
      <point x="974" y="198" type="line"/>
      <point x="1220" y="1460" type="line"/>
      <point x="1094" y="1460" type="line"/>
      <point x="859" y="252" type="line"/>
      <point x="724" y="110" type="line"/>
      <point x="354" y="110" type="line"/>
      <point x="283" y="242" type="line"/>
      <point x="520" y="1460" type="line"/>
      <point x="394" y="1460" type="line"/>
      <point x="150" y="208" type="line"/>
    </contour>
  </outline>
</glyph>
<glyph name="Ubreve.alt5" format="2">
  <advance width="1240"/>
  <outline>
    <contour>
      <point x="270" y="0" type="line"/>
      <point x="776" y="0" type="line"/>
      <point x="974" y="198" type="line"/>
      <point x="1220" y="1460" type="line"/>
      <point x="1094" y="1460" type="line"/>
      <point x="859" y="252" type="line"/>
      <point x="724" y="110" type="line"/>
      <point x="354" y="110" type="line"/>
      <point x="283" y="242" type="line"/>
      <point x="520" y="1460" type="line"/>
      <point x="394" y="1460" type="line"/>
      <point x="150" y="208" type="line"/>
    </contour>
    <contour>
      <point x="695" y="1643" type="line"/>
      <point x="989" y="1643" type="line"/>
      <point x="1132" y="1760" type="line"/>
      <point x="1156" y="1883" type="line"/>
      <point x="1066" y="1883" type="line"/>
      <point x="1049" y="1797" type="line"/>
      <point x="966" y="1731" type="line"/>
      <point x="752" y="1731" type="line"/>
      <point x="695" y="1797" type="line"/>
      <point x="712" y="1883" type="line"/>
      <point x="622" y="1883" type="line"/>
      <point x="598" y="1759" type="line"/>
    </contour>
  </outline>
</glyph>
<glyph name="Ucircumflex.alt5" format="2">
  <advance width="1240"/>
  <outline>
    <contour>
      <point x="270" y="0" type="line"/>
      <point x="776" y="0" type="line"/>
      <point x="974" y="198" type="line"/>
      <point x="1220" y="1460" type="line"/>
      <point x="1094" y="1460" type="line"/>
      <point x="859" y="252" type="line"/>
      <point x="724" y="110" type="line"/>
      <point x="354" y="110" type="line"/>
      <point x="283" y="242" type="line"/>
      <point x="520" y="1460" type="line"/>
      <point x="394" y="1460" type="line"/>
      <point x="150" y="208" type="line"/>
    </contour>
    <contour>
      <point x="522" y="1650" type="line"/>
      <point x="653" y="1650" type="line"/>
      <point x="911" y="1854" type="line"/>
      <point x="855" y="1854" type="line"/>
      <point x="1035" y="1650" type="line"/>
      <point x="1166" y="1650" type="line"/>
      <point x="947" y="1883" type="line"/>
      <point x="831" y="1883" type="line"/>
    </contour>
  </outline>
</glyph>
<glyph name="Udieresis.alt5" format="2">
  <advance width="1240"/>
  <outline>
    <contour>
      <point x="270" y="0" type="line"/>
      <point x="776" y="0" type="line"/>
      <point x="974" y="198" type="line"/>
      <point x="1220" y="1460" type="line"/>
      <point x="1094" y="1460" type="line"/>
      <point x="859" y="252" type="line"/>
      <point x="724" y="110" type="line"/>
      <point x="354" y="110" type="line"/>
      <point x="283" y="242" type="line"/>
      <point x="520" y="1460" type="line"/>
      <point x="394" y="1460" type="line"/>
      <point x="150" y="208" type="line"/>
    </contour>
    <contour>
      <point x="593" y="1626" type="line"/>
      <point x="752" y="1756" type="line"/>
      <point x="643" y="1886" type="line"/>
      <point x="484" y="1756" type="line"/>
    </contour>
    <contour>
      <point x="1086" y="1626" type="line"/>
      <point x="1245" y="1756" type="line"/>
      <point x="1136" y="1886" type="line"/>
      <point x="977" y="1756" type="line"/>
    </contour>
  </outline>
</glyph>
<glyph name="Udotbelow.alt5" format="2">
  <advance width="1240"/>
  <outline>
    <contour>
      <point x="270" y="0" type="line"/>
      <point x="776" y="0" type="line"/>
      <point x="974" y="198" type="line"/>
      <point x="1220" y="1460" type="line"/>
      <point x="1094" y="1460" type="line"/>
      <point x="859" y="252" type="line"/>
      <point x="724" y="110" type="line"/>
      <point x="354" y="110" type="line"/>
      <point x="283" y="242" type="line"/>
      <point x="520" y="1460" type="line"/>
      <point x="394" y="1460" type="line"/>
      <point x="150" y="208" type="line"/>
    </contour>
    <contour>
      <point x="417" y="-546" type="line"/>
      <point x="579" y="-416" type="line"/>
      <point x="467" y="-286" type="line"/>
      <point x="305" y="-416" type="line"/>
    </contour>
  </outline>
</glyph>
<glyph name="Umacron.alt1" format="2">
  <advance width="1240"/>
  <outline>
    <contour>
      <point x="270" y="0" type="line"/>
      <point x="776" y="0" type="line"/>
      <point x="974" y="198" type="line"/>
      <point x="1220" y="1460" type="line"/>
      <point x="1094" y="1460" type="line"/>
      <point x="859" y="252" type="line"/>
      <point x="724" y="110" type="line"/>
      <point x="354" y="110" type="line"/>
      <point x="283" y="242" type="line"/>
      <point x="520" y="1460" type="line"/>
      <point x="394" y="1460" type="line"/>
      <point x="150" y="208" type="line"/>
    </contour>
    <contour>
      <point x="552" y="1731" type="line"/>
      <point x="1166" y="1731" type="line"/>
      <point x="1186" y="1831" type="line"/>
      <point x="572" y="1831" type="line"/>
    </contour>
  </outline>
</glyph>
<glyph name="Uogonek.alt5" format="2">
  <advance width="1240"/>
  <outline>
    <contour>
      <point x="270" y="0" type="line"/>
      <point x="776" y="0" type="line"/>
      <point x="974" y="198" type="line"/>
      <point x="1220" y="1460" type="line"/>
      <point x="1094" y="1460" type="line"/>
      <point x="859" y="252" type="line"/>
      <point x="724" y="110" type="line"/>
      <point x="354" y="110" type="line"/>
      <point x="283" y="242" type="line"/>
      <point x="520" y="1460" type="line"/>
      <point x="394" y="1460" type="line"/>
      <point x="150" y="208" type="line"/>
    </contour>
    <contour>
      <point x="364" y="-122" type="line"/>
      <point x="328" y="-310" type="line"/>
      <point x="448" y="-400" type="line"/>
      <point x="560" y="-400" type="line"/>
      <point x="578" y="-310" type="line"/>
      <point x="497" y="-310" type="line"/>
      <point x="439" y="-262" type="line"/>
      <point x="461" y="-151" type="line"/>
      <point x="638" y="0" type="line"/>
      <point x="563" y="37" type="line"/>
    </contour>
  </outline>
</glyph>
<glyph name="Utilde.alt1" format="2">
  <advance width="1240"/>
  <outline>
    <contour>
      <point x="270" y="0" type="line"/>
      <point x="776" y="0" type="line"/>
      <point x="974" y="198" type="line"/>
      <point x="1220" y="1460" type="line"/>
      <point x="1094" y="1460" type="line"/>
      <point x="859" y="252" type="line"/>
      <point x="724" y="110" type="line"/>
      <point x="354" y="110" type="line"/>
      <point x="283" y="242" type="line"/>
      <point x="520" y="1460" type="line"/>
      <point x="394" y="1460" type="line"/>
      <point x="150" y="208" type="line"/>
    </contour>
    <contour>
      <point x="834" y="1893" type="line"/>
      <point x="664" y="1893" type="line"/>
      <point x="519" y="1765" type="line"/>
      <point x="495" y="1643" type="line"/>
      <point x="585" y="1643" type="line"/>
      <point x="603" y="1734" type="line"/>
      <point x="685" y="1805" type="line"/>
      <point x="776" y="1805" type="line"/>
      <point x="899" y="1643" type="line"/>
      <point x="1069" y="1643" type="line"/>
      <point x="1214" y="1771" type="line"/>
      <point x="1238" y="1893" type="line"/>
      <point x="1148" y="1893" type="line"/>
      <point x="1130" y="1802" type="line"/>
      <point x="1048" y="1731" type="line"/>
      <point x="957" y="1731" type="line"/>
    </contour>
  </outline>
</glyph>
<glyph name="V.alt1" format="2">
  <advance width="1240"/>
  <outline>
    <contour>
      <point x="450" y="0" type="line"/>
      <point x="596" y="0" type="line"/>
      <point x="1090" y="739" type="line"/>
      <point x="1230" y="1460" type="line"/>
      <point x="1104" y="1460" type="line"/>
      <point x="971" y="777" type="line"/>
      <point x="514" y="80" type="line"/>
      <point x="549" y="80" type="line"/>
      <point x="374" y="761" type="line"/>
      <point x="510" y="1460" type="line"/>
      <point x="384" y="1460" type="line"/>
      <point x="244" y="739" type="line"/>
    </contour>
  </outline>
</glyph>
<glyph name="V.alt3" format="2">
  <advance width="1240"/>
  <outline>
    <contour>
      <point x="450" y="0" type="line"/>
      <point x="596" y="0" type="line"/>
      <point x="1090" y="739" type="line"/>
      <point x="1230" y="1460" type="line"/>
      <point x="1104" y="1460" type="line"/>
      <point x="971" y="777" type="line"/>
      <point x="514" y="80" type="line"/>
      <point x="549" y="80" type="line"/>
      <point x="374" y="761" type="line"/>
      <point x="510" y="1460" type="line"/>
      <point x="384" y="1460" type="line"/>
      <point x="244" y="739" type="line"/>
    </contour>
  </outline>
</glyph>
<glyph name="V.alt5" format="2">
  <advance width="1240"/>
  <outline>
    <contour>
      <point x="450" y="0" type="line"/>
      <point x="596" y="0" type="line"/>
      <point x="1090" y="739" type="line"/>
      <point x="1230" y="1460" type="line"/>
      <point x="1104" y="1460" type="line"/>
      <point x="971" y="777" type="line"/>
      <point x="514" y="80" type="line"/>
      <point x="549" y="80" type="line"/>
      <point x="374" y="761" type="line"/>
      <point x="510" y="1460" type="line"/>
      <point x="384" y="1460" type="line"/>
      <point x="244" y="739" type="line"/>
    </contour>
  </outline>
</glyph>
<glyph name="W.alt5" format="2">
  <advance width="1240"/>
  <outline>
    <contour>
      <point x="210" y="0" type="line"/>
      <point x="329" y="0" type="line"/>
      <point x="692" y="714" type="line"/>
      <point x="635" y="714" type="line"/>
      <point x="717" y="0" type="line"/>
      <point x="836" y="0" type="line"/>
      <point x="1200" y="739" type="line"/>
      <point x="1340" y="1460" type="line"/>
      <point x="1214" y="1460" type="line"/>
      <point x="1079" y="767" type="line"/>
      <point x="759" y="80" type="line"/>
      <point x="813" y="80" type="line"/>
      <point x="736" y="771" type="line"/>
      <point x="783" y="1013" type="line"/>
      <point x="652" y="1013" type="line"/>
      <point x="604" y="767" type="line"/>
      <point x="260" y="80" type="line"/>
      <point x="314" y="80" type="line"/>
      <point x="261" y="771" type="line"/>
      <point x="395" y="1460" type="line"/>
      <point x="274" y="1460" type="line"/>
      <point x="134" y="739" type="line"/>
    </contour>
  </outline>
</glyph>
<glyph name="Y.alt5" format="2">
  <advance width="1240"/>
  <outline>
    <contour>
      <point x="574" y="589" type="line"/>
      <point x="700" y="589" type="line"/>
      <point x="1171" y="1104" type="line"/>
      <point x="1240" y="1460" type="line"/>
      <point x="1109" y="1460" type="line"/>
      <point x="1046" y="1137" type="line"/>
      <point x="627" y="679" type="line"/>
      <point x="675" y="679" type="line"/>
      <point x="437" y="1136" type="line"/>
      <point x="500" y="1460" type="line"/>
      <point x="374" y="1460" type="line"/>
      <point x="305" y="1104" type="line"/>
    </contour>
    <contour>
      <point x="460" y="0" type="line"/>
      <point x="586" y="0" type="line"/>
      <point x="716" y="669" type="line"/>
      <point x="590" y="669" type="line"/>
    </contour>
  </outline>
</glyph>
<glyph name="Ytilde.alt1" format="2">
  <advance width="1240"/>
  <outline>
    <contour>
      <point x="574" y="589" type="line"/>
      <point x="700" y="589" type="line"/>
      <point x="1171" y="1104" type="line"/>
      <point x="1240" y="1460" type="line"/>
      <point x="1109" y="1460" type="line"/>
      <point x="1046" y="1137" type="line"/>
      <point x="627" y="679" type="line"/>
      <point x="675" y="679" type="line"/>
      <point x="437" y="1136" type="line"/>
      <point x="500" y="1460" type="line"/>
      <point x="374" y="1460" type="line"/>
      <point x="305" y="1104" type="line"/>
    </contour>
    <contour>
      <point x="460" y="0" type="line"/>
      <point x="586" y="0" type="line"/>
      <point x="716" y="669" type="line"/>
      <point x="590" y="669" type="line"/>
    </contour>
    <contour>
      <point x="834" y="1893" type="line"/>
      <point x="664" y="1893" type="line"/>
      <point x="519" y="1765" type="line"/>
      <point x="495" y="1643" type="line"/>
      <point x="585" y="1643" type="line"/>
      <point x="603" y="1734" type="line"/>
      <point x="685" y="1805" type="line"/>
      <point x="776" y="1805" type="line"/>
      <point x="899" y="1643" type="line"/>
      <point x="1069" y="1643" type="line"/>
      <point x="1214" y="1771" type="line"/>
      <point x="1238" y="1893" type="line"/>
      <point x="1148" y="1893" type="line"/>
      <point x="1130" y="1802" type="line"/>
      <point x="1048" y="1731" type="line"/>
      <point x="957" y="1731" type="line"/>
    </contour>
  </outline>
</glyph>
<glyph name="Zdotaccent.alt1" format="2">
  <advance width="1240"/>
  <outline>
    <contour>
      <point x="109" y="0" type="line"/>
      <point x="1010" y="0" type="line"/>
      <point x="1031" y="106" type="line"/>
      <point x="195" y="106" type="line"/>
      <point x="205" y="56" type="line"/>
      <point x="1230" y="1374" type="line"/>
      <point x="1207" y="1460" type="line"/>
      <point x="354" y="1459" type="line"/>
      <point x="333" y="1353" type="line"/>
      <point x="1105" y="1353" type="line"/>
      <point x="1109" y="1393" type="line"/>
      <point x="86" y="90" type="line"/>
    </contour>
    <contour>
      <point x="839" y="1626" type="line"/>
      <point x="1001" y="1756" type="line"/>
      <point x="890" y="1886" type="line"/>
      <point x="727" y="1756" type="line"/>
    </contour>
  </outline>
</glyph>
<glyph name="acute.alt1" format="2">
  <advance width="1240"/>
  <outline>
    <contour>
      <point x="815" y="1274" type="line"/>
      <point x="706" y="1274" type="line"/>
      <point x="990" y="1597" type="line"/>
      <point x="1130" y="1597" type="line"/>
    </contour>
  </outline>
</glyph>
<glyph name="acutecomb.case" format="2">
  <outline>
    <contour>
      <point x="889" y="1650" type="line"/>
      <point x="780" y="1650" type="line"/>
      <point x="1047" y="1883" type="line"/>
      <point x="1187" y="1883" type="line"/>
    </contour>
  </outline>
</glyph>
<glyph name="aeacute.alt1" format="2">
  <advance width="1240"/>
  <outline>
    <contour>
      <point x="594" y="1000" type="line"/>
      <point x="253" y="1000" type="line"/>
      <point x="214" y="902" type="line"/>
      <point x="509" y="902" type="line"/>
      <point x="605" y="758" type="line"/>
      <point x="585" y="654" type="line"/>
      <point x="691" y="654" type="line"/>
      <point x="720" y="802" type="line"/>
    </contour>
    <contour>
      <point x="229" y="586" type="line"/>
      <point x="38" y="423" type="line"/>
      <point x="-4" y="208" type="line"/>
      <point x="212" y="-11" type="line"/>
      <point x="518" y="128" type="line"/>
      <point x="575" y="128" type="line"/>
      <point x="590" y="208" type="line"/>
      <point x="537" y="207" type="line"/>
      <point x="249" y="106" type="line"/>
      <point x="103" y="243" type="line"/>
      <point x="129" y="378" type="line"/>
      <point x="253" y="486" type="line"/>
      <point x="596" y="486" type="line"/>
      <point x="616" y="586" type="line"/>
    </contour>
    <contour>
      <point x="817" y="1000" type="line"/>
      <point x="614" y="803" type="line"/>
      <point x="494" y="186" type="line"/>
      <point x="689" y="0" type="line"/>
      <point x="1012" y="0" type="line"/>
      <point x="1051" y="98" type="line"/>
      <point x="754" y="98" type="line"/>
      <point x="609" y="232" type="line"/>
      <point x="711" y="758" type="line"/>
      <point x="863" y="902" type="line"/>
      <point x="1050" y="902" type="line"/>
      <point x="1148" y="812" type="line"/>
      <point x="1121" y="674" type="line"/>
      <point x="990" y="594" type="line"/>
      <point x="626" y="594" type="line"/>
      <point x="608" y="497" type="line"/>
      <point x="1021" y="497" type="line"/>
      <point x="1211" y="621" type="line"/>
      <point x="1256" y="855" type="line"/>
      <point x="1112" y="1000" type="line"/>
    </contour>
    <contour>
      <point x="820" y="1274" type="line"/>
      <point x="711" y="1274" type="line"/>
      <point x="995" y="1597" type="line"/>
      <point x="1135" y="1597" type="line"/>
    </contour>
  </outline>
</glyph>
<glyph name="ampersand.alt1" format="2">
  <advance width="1240"/>
  <outline>
    <contour>
      <point x="962" y="726" type="line" smooth="yes"/>
      <point x="905" y="432"/>
      <point x="744" y="94"/>
      <point x="446" y="94" type="curve" smooth="yes"/>
      <point x="265" y="94"/>
      <point x="193" y="219"/>
      <point x="225" y="386" type="curve" smooth="yes"/>
      <point x="259" y="560"/>
      <point x="389" y="690"/>
      <point x="573" y="763" type="curve"/>
      <point x="526" y="833" type="line"/>
      <point x="315" y="748"/>
      <point x="132" y="611"/>
      <point x="86" y="375" type="curve" smooth="yes"/>
      <point x="43" y="153"/>
      <point x="156" y="-24"/>
      <point x="418" y="-24" type="curve" smooth="yes"/>
      <point x="807" y="-24"/>
      <point x="996" y="349"/>
      <point x="1087" y="746" type="curve"/>
      <point x="1034" y="708" type="line"/>
      <point x="1210" y="708" type="line"/>
      <point x="1231" y="818" type="line"/>
      <point x="980" y="818" type="line"/>
    </contour>
    <contour>
      <point x="1083" y="1232" type="line"/>
      <point x="1050" y="1403"/>
      <point x="948" y="1483"/>
      <point x="764" y="1483" type="curve" smooth="yes"/>
      <point x="534" y="1483"/>
      <point x="389" y="1368"/>
      <point x="350" y="1166" type="curve" smooth="yes"/>
      <point x="309" y="958"/>
      <point x="422" y="808"/>
      <point x="518" y="657" type="curve" smooth="yes"/>
      <point x="934" y="0" type="line"/>
      <point x="1093" y="0" type="line"/>
      <point x="633" y="734" type="line" smooth="yes"/>
      <point x="557" y="855"/>
      <point x="450" y="1001"/>
      <point x="480" y="1156" type="curve" smooth="yes"/>
      <point x="504" y="1283"/>
      <point x="613" y="1370"/>
      <point x="752" y="1370" type="curve" smooth="yes"/>
      <point x="880" y="1370"/>
      <point x="930" y="1296"/>
      <point x="958" y="1191" type="curve"/>
    </contour>
  </outline>
</glyph>
<glyph name="angle.alt1" format="2">
  <advance width="1240"/>
  <outline>
    <contour>
      <point x="943" y="0" type="line"/>
      <point x="964" y="110" type="line"/>
      <point x="256" y="110" type="line"/>
      <point x="252" y="123" type="line"/>
      <point x="855" y="965" type="line"/>
      <point x="754" y="1013" type="line"/>
      <point x="61" y="41" type="line"/>
      <point x="70" y="0" type="line"/>
    </contour>
  </outline>
</glyph>
<glyph name="anticlockwiseOpenCircleArrow.alt1" format="2">
  <advance width="1240"/>
  <outline>
    <contour>
      <point x="750" y="1355" type="line"/>
      <point x="638" y="785" type="line"/>
      <point x="753" y="785" type="line"/>
      <point x="846" y="1280" type="line"/>
      <point x="804" y="1245" type="line"/>
      <point x="1308" y="1242" type="line"/>
      <point x="1331" y="1357" type="line"/>
    </contour>
    <contour>
      <point x="742" y="1114" type="line"/>
      <point x="909" y="1183" type="line"/>
      <point x="1009" y="1337" type="line"/>
      <point x="840" y="1269" type="line"/>
    </contour>
    <contour>
      <point x="731" y="1188" type="line"/>
      <point x="956" y="1127"/>
      <point x="1159" y="966"/>
      <point x="1098" y="651" type="curve" smooth="yes"/>
      <point x="1047" y="391"/>
      <point x="839" y="190"/>
      <point x="559" y="190" type="curve" smooth="yes"/>
      <point x="279" y="190"/>
      <point x="149" y="391"/>
      <point x="200" y="651" type="curve" smooth="yes"/>
      <point x="225" y="783"/>
      <point x="287" y="881"/>
      <point x="364" y="964" type="curve"/>
      <point x="278" y="1028" type="line"/>
      <point x="184" y="932"/>
      <point x="109" y="810"/>
      <point x="79" y="651" type="curve" smooth="yes"/>
      <point x="16" y="331"/>
      <point x="187" y="78"/>
      <point x="547" y="78" type="curve" smooth="yes"/>
      <point x="907" y="78"/>
      <point x="1156" y="331"/>
      <point x="1219" y="651" type="curve" smooth="yes"/>
      <point x="1291" y="1026"/>
      <point x="1056" y="1226"/>
      <point x="779" y="1286" type="curve"/>
    </contour>
  </outline>
</glyph>
<glyph name="approxequal.alt5" format="2">
  <advance width="1240"/>
  <outline>
    <contour>
      <point x="888" y="739" type="curve" smooth="yes"/>
      <point x="1023" y="739"/>
      <point x="1138" y="829"/>
      <point x="1217" y="1108" type="curve"/>
      <point x="1107" y="1122" type="line"/>
      <point x="1045" y="924"/>
      <point x="987" y="855"/>
      <point x="906" y="855" type="curve" smooth="yes"/>
      <point x="739" y="855"/>
      <point x="767" y="1149"/>
      <point x="526" y="1149" type="curve" smooth="yes"/>
      <point x="392" y="1149"/>
      <point x="275" y="1059"/>
      <point x="196" y="780" type="curve"/>
      <point x="306" y="766" type="line"/>
      <point x="368" y="964"/>
      <point x="427" y="1033"/>
      <point x="508" y="1033" type="curve" smooth="yes"/>
      <point x="675" y="1033"/>
      <point x="646" y="739"/>
    </contour>
    <contour>
      <point x="771" y="141" type="curve" smooth="yes"/>
      <point x="906" y="141"/>
      <point x="1022" y="231"/>
      <point x="1101" y="510" type="curve"/>
      <point x="991" y="524" type="line"/>
      <point x="928" y="326"/>
      <point x="871" y="257"/>
      <point x="790" y="257" type="curve" smooth="yes"/>
      <point x="623" y="257"/>
      <point x="651" y="551"/>
      <point x="410" y="551" type="curve" smooth="yes"/>
      <point x="276" y="551"/>
      <point x="159" y="461"/>
      <point x="79" y="182" type="curve"/>
      <point x="190" y="168" type="line"/>
      <point x="252" y="366"/>
      <point x="311" y="435"/>
      <point x="392" y="435" type="curve" smooth="yes"/>
      <point x="559" y="435"/>
      <point x="529" y="141"/>
    </contour>
  </outline>
</glyph>
<glyph name="asciicircum.alt1" format="2">
  <advance width="1240"/>
  <outline>
    <contour>
      <point x="171" y="750" type="line"/>
      <point x="264" y="696" type="line"/>
      <point x="794" y="1383" type="line"/>
      <point x="807" y="1383" type="line"/>
      <point x="1069" y="696" type="line"/>
      <point x="1168" y="750" type="line"/>
      <point x="869" y="1530" type="line"/>
      <point x="772" y="1530" type="line"/>
    </contour>
  </outline>
</glyph>
<glyph name="asterisk.alt2" format="2">
  <advance width="1240"/>
  <outline>
    <contour>
      <point x="765" y="1014" type="line"/>
      <point x="892" y="1530" type="line"/>
      <point x="748" y="1530" type="line"/>
      <point x="675" y="1014" type="line"/>
    </contour>
    <contour>
      <point x="725" y="973" type="line"/>
      <point x="1253" y="1103" type="line"/>
      <point x="1235" y="1240" type="line"/>
      <point x="714" y="1057" type="line"/>
    </contour>
    <contour>
      <point x="678" y="988" type="line"/>
      <point x="877" y="548" type="line"/>
      <point x="1008" y="634" type="line"/>
      <point x="761" y="1041" type="line"/>
    </contour>
    <contour>
      <point x="688" y="1041" type="line"/>
      <point x="283" y="634" type="line"/>
      <point x="382" y="548" type="line"/>
      <point x="751" y="988" type="line"/>
    </contour>
    <contour>
      <point x="742" y="1057" type="line"/>
      <point x="293" y="1240" type="line"/>
      <point x="221" y="1103" type="line"/>
      <point x="699" y="973" type="line"/>
    </contour>
  </outline>
</glyph>
<glyph name="at.alt1" format="2">
  <advance width="1240"/>
  <outline>
    <contour>
      <point x="918" y="181" type="line"/>
      <point x="923" y="181" type="line"/>
      <point x="901" y="65"/>
      <point x="899" y="-24"/>
      <point x="1011" y="-24" type="curve" smooth="yes"/>
      <point x="1040" y="-24"/>
      <point x="1068" y="-18"/>
      <point x="1091" y="-6" type="curve"/>
      <point x="1109" y="90" type="line"/>
      <point x="1039" y="68"/>
      <point x="1026" y="86"/>
      <point x="1048" y="199" type="curve" smooth="yes"/>
      <point x="1176" y="859" type="line" smooth="yes"/>
      <point x="1260" y="1291"/>
      <point x="1094" y="1434"/>
      <point x="821" y="1434" type="curve" smooth="yes"/>
      <point x="471" y="1434"/>
      <point x="245" y="1213"/>
      <point x="154" y="744" type="curve" smooth="yes"/>
      <point x="61" y="270" type="line" smooth="yes"/>
      <point x="-42" y="-262"/>
      <point x="184" y="-424"/>
      <point x="535" y="-424" type="curve" smooth="yes"/>
      <point x="683" y="-424"/>
      <point x="802" y="-397"/>
      <point x="935" y="-342" type="curve"/>
      <point x="957" y="-219" type="line"/>
      <point x="839" y="-266"/>
      <point x="702" y="-303"/>
      <point x="552" y="-303" type="curve" smooth="yes"/>
      <point x="284" y="-303"/>
      <point x="99" y="-185"/>
      <point x="185" y="255" type="curve" smooth="yes"/>
      <point x="280" y="745" type="line" smooth="yes"/>
      <point x="355" y="1131"/>
      <point x="541" y="1313"/>
      <point x="813" y="1313" type="curve" smooth="yes"/>
      <point x="1016" y="1313"/>
      <point x="1118" y="1211"/>
      <point x="1057" y="897" type="curve" smooth="yes"/>
    </contour>
    <contour>
      <point x="456" y="429" type="line" smooth="yes"/>
      <point x="392" y="98"/>
      <point x="483" y="-24"/>
      <point x="644" y="-24" type="curve" smooth="yes"/>
      <point x="753" y="-24"/>
      <point x="817" y="27"/>
      <point x="891" y="96" type="curve"/>
      <point x="922" y="96" type="line"/>
      <point x="953" y="256" type="line"/>
      <point x="861" y="129"/>
      <point x="789" y="91"/>
      <point x="705" y="91" type="curve" smooth="yes"/>
      <point x="577" y="91"/>
      <point x="539" y="178"/>
      <point x="593" y="459" type="curve" smooth="yes"/>
      <point x="611" y="548" type="line" smooth="yes"/>
      <point x="666" y="832"/>
      <point x="743" y="910"/>
      <point x="866" y="910" type="curve" smooth="yes"/>
      <point x="954" y="910"/>
      <point x="1012" y="870"/>
      <point x="1047" y="742" type="curve"/>
      <point x="1079" y="903" type="line"/>
      <point x="1047" y="903" type="line"/>
      <point x="1004" y="971"/>
      <point x="950" y="1024"/>
      <point x="838" y="1024" type="curve" smooth="yes"/>
      <point x="684" y="1024"/>
      <point x="555" y="935"/>
      <point x="489" y="599" type="curve" smooth="yes"/>
    </contour>
  </outline>
</glyph>
<glyph name="b.alt1" format="2">
  <advance width="1240"/>
  <outline>
    <contour>
      <point x="104" y="0" type="line"/>
      <point x="218" y="0" type="line"/>
      <point x="384" y="853" type="line"/>
      <point x="397" y="867" type="line"/>
      <point x="525" y="1530" type="line"/>
      <point x="398" y="1510" type="line"/>
    </contour>
    <contour>
      <point x="181" y="0" type="line"/>
      <point x="666" y="0" type="line"/>
      <point x="1028" y="308" type="line"/>
      <point x="1118" y="772" type="line"/>
      <point x="876" y="1023" type="line"/>
      <point x="349" y="864" type="line"/>
      <point x="332" y="776" type="line"/>
      <point x="814" y="901" type="line"/>
      <point x="987" y="731" type="line"/>
      <point x="913" y="349" type="line"/>
      <point x="617" y="94" type="line"/>
      <point x="199" y="94" type="line"/>
    </contour>
  </outline>
</glyph>
<glyph name="bowl.alt5" format="2">
  <advance width="1230"/>
  <outline>
    <contour>
      <point x="162" y="0" type="line"/>
      <point x="647" y="0" type="line"/>
      <point x="1009" y="308" type="line"/>
      <point x="1099" y="772" type="line"/>
      <point x="857" y="1023" type="line"/>
      <point x="330" y="864" type="line"/>
      <point x="313" y="776" type="line"/>
      <point x="795" y="901" type="line"/>
      <point x="968" y="731" type="line"/>
      <point x="894" y="349" type="line"/>
      <point x="598" y="94" type="line"/>
      <point x="180" y="94" type="line"/>
    </contour>
  </outline>
</glyph>
<glyph name="braceright.alt5" format="2">
  <advance width="1240"/>
  <outline>
    <contour>
      <point x="995" y="592" type="curve"/>
      <point x="999" y="610" type="line"/>
      <point x="691" y="610"/>
      <point x="464" y="463"/>
      <point x="490" y="133" type="curve" smooth="yes"/>
      <point x="497" y="45" type="line" smooth="yes"/>
      <point x="518" y="-227"/>
      <point x="396" y="-300"/>
      <point x="224" y="-300" type="curve" smooth="yes"/>
      <point x="-11" y="-300" type="line"/>
      <point x="-31" y="-400" type="line"/>
      <point x="227" y="-400" type="line" smooth="yes"/>
      <point x="506" y="-400"/>
      <point x="654" y="-236"/>
      <point x="623" y="61" type="curve" smooth="yes"/>
      <point x="615" y="138" type="line" smooth="yes"/>
      <point x="589" y="389"/>
      <point x="737" y="532"/>
      <point x="1103" y="537" type="curve"/>
      <point x="1128" y="665" type="line"/>
      <point x="764" y="670"/>
      <point x="671" y="813"/>
      <point x="795" y="1064" type="curve" smooth="yes"/>
      <point x="833" y="1141" type="line" smooth="yes"/>
      <point x="980" y="1438"/>
      <point x="895" y="1602"/>
      <point x="616" y="1602" type="curve" smooth="yes"/>
      <point x="358" y="1602" type="line"/>
      <point x="339" y="1502" type="line"/>
      <point x="574" y="1502" type="line" smooth="yes"/>
      <point x="746" y="1502"/>
      <point x="840" y="1429"/>
      <point x="713" y="1157" type="curve" smooth="yes"/>
      <point x="672" y="1069" type="line" smooth="yes"/>
      <point x="518" y="740"/>
      <point x="687" y="592"/>
    </contour>
  </outline>
</glyph>
<glyph name="bracketright.alt1" format="2">
  <advance width="1240"/>
  <outline>
    <contour>
      <point x="698" y="-400" type="line"/>
      <point x="1087" y="1602" type="line"/>
      <point x="461" y="1602" type="line"/>
      <point x="442" y="1502" type="line"/>
      <point x="987" y="1502" type="line"/>
      <point x="949" y="1537" type="line"/>
      <point x="585" y="-335" type="line"/>
      <point x="637" y="-300" type="line"/>
      <point x="92" y="-300" type="line"/>
      <point x="72" y="-400" type="line"/>
    </contour>
  </outline>
</glyph>
<glyph name="brevecomb.case" format="2">
  <outline>
    <contour>
      <point x="695" y="1643" type="line"/>
      <point x="989" y="1643" type="line"/>
      <point x="1132" y="1760" type="line"/>
      <point x="1156" y="1883" type="line"/>
      <point x="1066" y="1883" type="line"/>
      <point x="1049" y="1797" type="line"/>
      <point x="966" y="1731" type="line"/>
      <point x="752" y="1731" type="line"/>
      <point x="695" y="1797" type="line"/>
      <point x="712" y="1883" type="line"/>
      <point x="622" y="1883" type="line"/>
      <point x="598" y="1759" type="line"/>
    </contour>
  </outline>
</glyph>
<glyph name="caroncomb.alt" format="2">
  <outline>
    <contour>
      <point x="1045" y="1282" type="line"/>
      <point x="1142" y="1282" type="line"/>
      <point x="1249" y="1618" type="line"/>
      <point x="1128" y="1618" type="line"/>
    </contour>
  </outline>
</glyph>
<glyph name="caroncomb.case" format="2">
  <outline>
    <contour>
      <point x="567" y="1883" type="line"/>
      <point x="698" y="1883" type="line"/>
      <point x="877" y="1679" type="line"/>
      <point x="821" y="1679" type="line"/>
      <point x="1080" y="1883" type="line"/>
      <point x="1211" y="1883" type="line"/>
      <point x="902" y="1650" type="line"/>
      <point x="786" y="1650" type="line"/>
    </contour>
  </outline>
</glyph>
<glyph name="cedillacomb.alt5" format="2">
  <outline>
    <contour>
      <point x="307" y="-565" type="line"/>
      <point x="491" y="-565" type="line"/>
      <point x="649" y="-455" type="line"/>
      <point x="683" y="-279" type="line"/>
      <point x="567" y="-169" type="line"/>
      <point x="499" y="-169" type="line"/>
      <point x="513" y="-196" type="line"/>
      <point x="560" y="48" type="line"/>
      <point x="466" y="48" type="line"/>
      <point x="407" y="-259" type="line"/>
      <point x="513" y="-259" type="line"/>
      <point x="585" y="-329" type="line"/>
      <point x="570" y="-405" type="line"/>
      <point x="471" y="-475" type="line"/>
      <point x="325" y="-475" type="line"/>
    </contour>
  </outline>
</glyph>
<glyph name="circumflexcomb.alt5" format="2">
  <outline>
    <contour>
      <point x="448" y="1274" type="line"/>
      <point x="569" y="1274" type="line"/>
      <point x="854" y="1562" type="line"/>
      <point x="798" y="1562" type="line"/>
      <point x="971" y="1274" type="line"/>
      <point x="1092" y="1274" type="line"/>
      <point x="880" y="1597" type="line"/>
      <point x="784" y="1597" type="line"/>
    </contour>
  </outline>
</glyph>
<glyph name="circumflexcomb.case" format="2">
  <outline>
    <contour>
      <point x="522" y="1650" type="line"/>
      <point x="653" y="1650" type="line"/>
      <point x="911" y="1854" type="line"/>
      <point x="855" y="1854" type="line"/>
      <point x="1035" y="1650" type="line"/>
      <point x="1166" y="1650" type="line"/>
      <point x="947" y="1883" type="line"/>
      <point x="831" y="1883" type="line"/>
    </contour>
  </outline>
</glyph>
<glyph name="colon.alt5" format="2">
  <advance width="1240"/>
  <outline>
    <contour>
      <point x="521" y="-30" type="curve" smooth="yes"/>
      <point x="610" y="-30"/>
      <point x="687" y="24"/>
      <point x="706" y="121" type="curve" smooth="yes"/>
      <point x="725" y="220"/>
      <point x="662" y="280"/>
      <point x="573" y="280" type="curve" smooth="yes"/>
      <point x="485" y="280"/>
      <point x="409" y="228"/>
      <point x="390" y="129" type="curve" smooth="yes"/>
      <point x="371" y="32"/>
      <point x="433" y="-30"/>
    </contour>
    <contour>
      <point x="673" y="753" type="curve" smooth="yes"/>
      <point x="762" y="753"/>
      <point x="839" y="807"/>
      <point x="858" y="904" type="curve" smooth="yes"/>
      <point x="877" y="1003"/>
      <point x="815" y="1063"/>
      <point x="726" y="1063" type="curve" smooth="yes"/>
      <point x="638" y="1063"/>
      <point x="562" y="1011"/>
      <point x="542" y="912" type="curve" smooth="yes"/>
      <point x="523" y="815"/>
      <point x="585" y="753"/>
    </contour>
  </outline>
</glyph>
<glyph name="copyright.alt1" format="2">
  <advance width="1240"/>
  <outline>
    <contour>
      <point x="533" y="730" type="curve" smooth="yes"/>
      <point x="568" y="910"/>
      <point x="654" y="983"/>
      <point x="737" y="983" type="curve" smooth="yes"/>
      <point x="811" y="983"/>
      <point x="848" y="925"/>
      <point x="839" y="839" type="curve"/>
      <point x="938" y="847" type="line"/>
      <point x="952" y="996"/>
      <point x="882" y="1081"/>
      <point x="752" y="1081" type="curve" smooth="yes"/>
      <point x="602" y="1081"/>
      <point x="479" y="964"/>
      <point x="434" y="731" type="curve" smooth="yes"/>
      <point x="389" y="500"/>
      <point x="466" y="382"/>
      <point x="616" y="382" type="curve" smooth="yes"/>
      <point x="746" y="382"/>
      <point x="849" y="467"/>
      <point x="893" y="616" type="curve"/>
      <point x="794" y="623" type="line"/>
      <point x="768" y="538"/>
      <point x="713" y="479"/>
      <point x="639" y="479" type="curve" smooth="yes"/>
      <point x="556" y="479"/>
      <point x="499" y="554"/>
    </contour>
    <contour>
      <point x="1224" y="727" type="curve" smooth="yes"/>
      <point x="1316" y="1201"/>
      <point x="1130" y="1484"/>
      <point x="804" y="1484" type="curve" smooth="yes"/>
      <point x="477" y="1484"/>
      <point x="198" y="1211"/>
      <point x="106" y="737" type="curve" smooth="yes"/>
      <point x="13" y="259"/>
      <point x="198" y="-24"/>
      <point x="525" y="-24" type="curve" smooth="yes"/>
      <point x="851" y="-24"/>
      <point x="1131" y="249"/>
    </contour>
    <contour>
      <point x="1155" y="732" type="curve" smooth="yes"/>
      <point x="1068" y="281"/>
      <point x="810" y="41"/>
      <point x="531" y="41" type="curve" smooth="yes"/>
      <point x="252" y="41"/>
      <point x="88" y="281"/>
      <point x="175" y="732" type="curve" smooth="yes"/>
      <point x="262" y="1180"/>
      <point x="520" y="1419"/>
      <point x="799" y="1419" type="curve" smooth="yes"/>
      <point x="1078" y="1419"/>
      <point x="1242" y="1180"/>
    </contour>
  </outline>
</glyph>
<glyph name="currency.alt5" format="2">
  <advance width="1240"/>
  <outline>
    <contour>
      <point x="573" y="209" type="curve" smooth="yes"/>
      <point x="826" y="209"/>
      <point x="1024" y="385"/>
      <point x="1073" y="638" type="curve" smooth="yes"/>
      <point x="1122" y="891"/>
      <point x="976" y="1084"/>
      <point x="723" y="1084" type="curve" smooth="yes"/>
      <point x="471" y="1084"/>
      <point x="272" y="911"/>
      <point x="223" y="658" type="curve" smooth="yes"/>
      <point x="174" y="405"/>
      <point x="321" y="209"/>
    </contour>
    <contour>
      <point x="584" y="321" type="curve" smooth="yes"/>
      <point x="395" y="321"/>
      <point x="306" y="459"/>
      <point x="343" y="648" type="curve" smooth="yes"/>
      <point x="380" y="837"/>
      <point x="522" y="974"/>
      <point x="711" y="974" type="curve" smooth="yes"/>
      <point x="900" y="974"/>
      <point x="992" y="837"/>
      <point x="955" y="648" type="curve" smooth="yes"/>
      <point x="918" y="459"/>
      <point x="773" y="321"/>
    </contour>
    <contour>
      <point x="812" y="338" type="line"/>
      <point x="975" y="132" type="line"/>
      <point x="1079" y="219" type="line"/>
      <point x="913" y="422" type="line"/>
    </contour>
    <contour>
      <point x="995" y="865" type="line"/>
      <point x="1245" y="1073" type="line"/>
      <point x="1174" y="1160" type="line"/>
      <point x="926" y="951" type="line"/>
    </contour>
    <contour>
      <point x="217" y="1073" type="line"/>
      <point x="382" y="870" type="line"/>
      <point x="484" y="955" type="line"/>
      <point x="320" y="1160" type="line"/>
    </contour>
    <contour>
      <point x="121" y="132" type="line"/>
      <point x="369" y="341" type="line"/>
      <point x="300" y="427" type="line"/>
      <point x="51" y="219" type="line"/>
    </contour>
  </outline>
</glyph>
<glyph name="d.alt" format="2">
  <advance width="1240"/>
  <outline>
    <contour>
      <point x="852" y="0" type="line"/>
      <point x="942" y="0" type="line"/>
      <point x="1239" y="1530" type="line"/>
      <point x="1112" y="1510" type="line"/>
      <point x="1007" y="974" type="line"/>
      <point x="1011" y="943" type="line"/>
      <point x="854" y="136" type="line"/>
    </contour>
    <contour>
      <point x="1059" y="1000" type="line"/>
      <point x="574" y="1000" type="line"/>
      <point x="213" y="692" type="line"/>
      <point x="122" y="228" type="line"/>
      <point x="365" y="-23" type="line"/>
      <point x="891" y="136" type="line"/>
      <point x="909" y="224" type="line"/>
      <point x="426" y="99" type="line"/>
      <point x="253" y="269" type="line"/>
      <point x="328" y="651" type="line"/>
      <point x="623" y="906" type="line"/>
      <point x="1041" y="906" type="line"/>
    </contour>
  </outline>
</glyph>
<glyph name="dagger.alt1" format="2">
  <advance width="1240"/>
  <outline>
    <contour>
      <point x="547" y="-200" type="line"/>
      <point x="870" y="1460" type="line"/>
      <point x="744" y="1460" type="line"/>
      <point x="421" y="-200" type="line"/>
    </contour>
    <contour>
      <point x="245" y="900" type="line"/>
      <point x="1151" y="900" type="line"/>
      <point x="1172" y="1010" type="line"/>
      <point x="266" y="1010" type="line"/>
    </contour>
  </outline>
</glyph>
<glyph name="dagger.alt5" format="2">
  <advance width="1240"/>
  <outline>
    <contour>
      <point x="547" y="-200" type="line"/>
      <point x="870" y="1460" type="line"/>
      <point x="744" y="1460" type="line"/>
      <point x="421" y="-200" type="line"/>
    </contour>
    <contour>
      <point x="245" y="900" type="line"/>
      <point x="1151" y="900" type="line"/>
      <point x="1172" y="1010" type="line"/>
      <point x="266" y="1010" type="line"/>
    </contour>
  </outline>
</glyph>
<glyph name="dieresis.alt1" format="2">
  <advance width="1240"/>
  <outline>
    <contour>
      <point x="524" y="1276" type="line"/>
      <point x="683" y="1406" type="line"/>
      <point x="574" y="1536" type="line"/>
      <point x="415" y="1406" type="line"/>
    </contour>
    <contour>
      <point x="1017" y="1276" type="line"/>
      <point x="1176" y="1406" type="line"/>
      <point x="1067" y="1536" type="line"/>
      <point x="908" y="1406" type="line"/>
    </contour>
  </outline>
</glyph>
<glyph name="dieresiscomb.case" format="2">
  <outline>
    <contour>
      <point x="592" y="1626" type="line"/>
      <point x="751" y="1756" type="line"/>
      <point x="642" y="1886" type="line"/>
      <point x="483" y="1756" type="line"/>
    </contour>
    <contour>
      <point x="1085" y="1626" type="line"/>
      <point x="1244" y="1756" type="line"/>
      <point x="1135" y="1886" type="line"/>
      <point x="976" y="1756" type="line"/>
    </contour>
  </outline>
</glyph>
<glyph name="dotaccent.alt1" format="2">
  <advance width="1240"/>
  <outline>
    <contour>
      <point x="771" y="1276" type="line"/>
      <point x="933" y="1406" type="line"/>
      <point x="822" y="1536" type="line"/>
      <point x="659" y="1406" type="line"/>
    </contour>
  </outline>
</glyph>
<glyph name="dotaccentcomb.case" format="2">
  <outline>
    <contour>
      <point x="839" y="1626" type="line"/>
      <point x="1001" y="1756" type="line"/>
      <point x="890" y="1886" type="line"/>
      <point x="727" y="1756" type="line"/>
    </contour>
  </outline>
</glyph>
<glyph name="dotbelowcomb.alt1" format="2">
  <outline>
    <contour>
      <point x="417" y="-546" type="line"/>
      <point x="579" y="-416" type="line"/>
      <point x="467" y="-286" type="line"/>
      <point x="305" y="-416" type="line"/>
    </contour>
  </outline>
</glyph>
<glyph name="downArrow.alt1" format="2">
  <advance width="1240"/>
  <outline>
    <contour>
      <point x="570" y="242" type="line"/>
      <point x="1137" y="715" type="line"/>
      <point x="1072" y="796" type="line"/>
      <point x="571" y="373" type="line"/>
      <point x="621" y="373" type="line"/>
      <point x="284" y="796" type="line"/>
      <point x="187" y="715" type="line"/>
    </contour>
    <contour>
      <point x="652" y="361" type="line"/>
      <point x="816" y="1204" type="line"/>
      <point x="698" y="1204" type="line"/>
      <point x="534" y="361" type="line"/>
    </contour>
    <contour>
      <point x="450" y="435" type="line"/>
      <point x="596" y="373" type="line"/>
      <point x="766" y="436" type="line"/>
      <point x="619" y="495" type="line"/>
    </contour>
  </outline>
</glyph>
<glyph name="ecaron.alt5" format="2">
  <advance width="1240"/>
  <outline>
    <contour>
      <point x="403" y="0" type="line"/>
      <point x="892" y="0" type="line"/>
      <point x="931" y="98" type="line"/>
      <point x="468" y="98" type="line"/>
      <point x="260" y="365" type="line"/>
      <point x="311" y="627" type="line"/>
      <point x="584" y="902" type="line"/>
      <point x="934" y="902" type="line"/>
      <point x="1012" y="814" type="line"/>
      <point x="985" y="674" type="line"/>
      <point x="874" y="594" type="line"/>
      <point x="246" y="594" type="line"/>
      <point x="228" y="497" type="line"/>
      <point x="921" y="497" type="line"/>
      <point x="1081" y="621" type="line"/>
      <point x="1126" y="855" type="line"/>
      <point x="1002" y="1000" type="line"/>
      <point x="547" y="1000" type="line"/>
      <point x="203" y="670" type="line"/>
      <point x="137" y="330" type="line"/>
    </contour>
    <contour>
      <point x="551" y="1597" type="line"/>
      <point x="672" y="1597" type="line"/>
      <point x="845" y="1309" type="line"/>
      <point x="789" y="1309" type="line"/>
      <point x="1074" y="1597" type="line"/>
      <point x="1195" y="1597" type="line"/>
      <point x="859" y="1274" type="line"/>
      <point x="763" y="1274" type="line"/>
    </contour>
  </outline>
</glyph>
<glyph name="eight.alt5" format="2">
  <advance width="1240"/>
  <outline>
    <contour>
      <point x="350" y="0" type="line"/>
      <point x="696" y="0" type="line"/>
      <point x="1043" y="258" type="line"/>
      <point x="1101" y="556" type="line"/>
      <point x="885" y="763" type="line"/>
      <point x="1143" y="976" type="line"/>
      <point x="1188" y="1210" type="line"/>
      <point x="980" y="1460" type="line"/>
      <point x="634" y="1460" type="line"/>
      <point x="328" y="1210" type="line"/>
      <point x="283" y="976" type="line"/>
      <point x="457" y="763" type="line"/>
      <point x="161" y="556" type="line"/>
      <point x="103" y="258" type="line"/>
    </contour>
    <contour>
      <point x="418" y="100" type="line"/>
      <point x="235" y="288" type="line"/>
      <point x="280" y="521" type="line"/>
      <point x="545" y="702" type="line"/>
      <point x="783" y="702" type="line"/>
      <point x="970" y="531" type="line"/>
      <point x="925" y="297" type="line"/>
      <point x="656" y="100" type="line"/>
    </contour>
    <contour>
      <point x="557" y="812" type="line"/>
      <point x="414" y="1002" type="line"/>
      <point x="447" y="1171" type="line"/>
      <point x="673" y="1360" type="line"/>
      <point x="911" y="1360" type="line"/>
      <point x="1057" y="1181" type="line"/>
      <point x="1024" y="1011" type="line"/>
      <point x="795" y="812" type="line"/>
    </contour>
  </outline>
</glyph>
<glyph name="eightsuperior.alt1" format="2">
  <advance width="1240"/>
  <outline>
    <contour>
      <point x="840" y="1664" type="curve" smooth="yes"/>
      <point x="716" y="1664"/>
      <point x="627" y="1628"/>
      <point x="607" y="1522" type="curve" smooth="yes"/>
      <point x="592" y="1448"/>
      <point x="643" y="1390"/>
      <point x="745" y="1352" type="curve" smooth="yes"/>
      <point x="845" y="1315"/>
      <point x="903" y="1294"/>
      <point x="893" y="1245" type="curve" smooth="yes"/>
      <point x="884" y="1198"/>
      <point x="831" y="1169"/>
      <point x="753" y="1169" type="curve" smooth="yes"/>
      <point x="677" y="1169"/>
      <point x="618" y="1186"/>
      <point x="630" y="1252" type="curve" smooth="yes"/>
      <point x="644" y="1323"/>
      <point x="733" y="1351"/>
      <point x="796" y="1372" type="curve"/>
      <point x="759" y="1402" type="line"/>
      <point x="633" y="1376"/>
      <point x="550" y="1333"/>
      <point x="534" y="1251" type="curve" smooth="yes"/>
      <point x="513" y="1144"/>
      <point x="586" y="1091"/>
      <point x="741" y="1091" type="curve" smooth="yes"/>
      <point x="886" y="1091"/>
      <point x="973" y="1134"/>
      <point x="995" y="1245" type="curve" smooth="yes"/>
      <point x="1011" y="1327"/>
      <point x="943" y="1380"/>
      <point x="828" y="1417" type="curve" smooth="yes"/>
      <point x="732" y="1448"/>
      <point x="693" y="1478"/>
      <point x="701" y="1520" type="curve" smooth="yes"/>
      <point x="711" y="1568"/>
      <point x="760" y="1587"/>
      <point x="829" y="1587" type="curve" smooth="yes"/>
      <point x="903" y="1587"/>
      <point x="947" y="1564"/>
      <point x="937" y="1511" type="curve" smooth="yes"/>
      <point x="924" y="1447"/>
      <point x="844" y="1423"/>
      <point x="779" y="1402" type="curve"/>
      <point x="826" y="1367" type="line"/>
      <point x="912" y="1389"/>
      <point x="1010" y="1420"/>
      <point x="1028" y="1512" type="curve" smooth="yes"/>
      <point x="1048" y="1614"/>
      <point x="958" y="1664"/>
    </contour>
  </outline>
</glyph>
<glyph name="equivalence.alt1" format="2">
  <advance width="1240"/>
  <outline>
    <contour>
      <point x="271" y="1019" type="line"/>
      <point x="1171" y="1019" type="line"/>
      <point x="1192" y="1129" type="line"/>
      <point x="292" y="1129" type="line"/>
    </contour>
    <contour>
      <point x="187" y="589" type="line"/>
      <point x="1087" y="589" type="line"/>
      <point x="1109" y="699" type="line"/>
      <point x="209" y="699" type="line"/>
    </contour>
    <contour>
      <point x="104" y="159" type="line"/>
      <point x="1004" y="159" type="line"/>
      <point x="1025" y="269" type="line"/>
      <point x="125" y="269" type="line"/>
    </contour>
  </outline>
</glyph>
<glyph name="exclamdown.alt5" format="2">
  <advance width="1240"/>
  <outline>
    <contour>
      <point x="558" y="451" type="line"/>
      <point x="369" y="-459" type="line"/>
      <point x="499" y="-459" type="line"/>
      <point x="662" y="451" type="line"/>
    </contour>
    <contour>
      <point x="719" y="1025" type="curve" smooth="yes"/>
      <point x="648" y="1025"/>
      <point x="587" y="982"/>
      <point x="572" y="904" type="curve" smooth="yes"/>
      <point x="556" y="825"/>
      <point x="606" y="777"/>
      <point x="677" y="777" type="curve" smooth="yes"/>
      <point x="748" y="777"/>
      <point x="808" y="818"/>
      <point x="824" y="898" type="curve" smooth="yes"/>
      <point x="839" y="975"/>
      <point x="789" y="1025"/>
    </contour>
  </outline>
</glyph>
<glyph name="f.alt4" format="2">
  <advance width="1240"/>
  <outline>
    <contour>
      <point x="363" y="0" type="line"/>
      <point x="479" y="0" type="line"/>
      <point x="713" y="1204" type="line"/>
      <point x="944" y="1432" type="line"/>
      <point x="1331" y="1432" type="line"/>
      <point x="1330" y="1530" type="line"/>
      <point x="899" y="1530" type="line"/>
      <point x="604" y="1242" type="line"/>
    </contour>
    <contour>
      <point x="160" y="818" type="line"/>
      <point x="1173" y="818" type="line"/>
      <point x="1192" y="918" type="line"/>
      <point x="179" y="918" type="line"/>
    </contour>
  </outline>
</glyph>
<glyph name="five.alt1" format="2">
  <advance width="1240"/>
  <outline>
    <contour>
      <point x="119" y="0" type="line"/>
      <point x="632" y="0" type="line"/>
      <point x="1036" y="333" type="line"/>
      <point x="1089" y="609" type="line"/>
      <point x="886" y="852" type="line"/>
      <point x="350" y="852" type="line"/>
      <point x="348" y="797" type="line"/>
      <point x="498" y="1387" type="line"/>
      <point x="469" y="1350" type="line"/>
      <point x="1162" y="1350" type="line"/>
      <point x="1164" y="1460" type="line"/>
      <point x="406" y="1460" type="line"/>
      <point x="227" y="744" type="line"/>
      <point x="813" y="744" type="line"/>
      <point x="959" y="570" type="line"/>
      <point x="921" y="373" type="line"/>
      <point x="597" y="110" type="line"/>
      <point x="120" y="110" type="line"/>
    </contour>
  </outline>
</glyph>
<glyph name="foursuperior.alt1" format="2">
  <advance width="1240"/>
  <outline>
    <contour>
      <point x="893" y="1100" type="line"/>
      <point x="1001" y="1655" type="line"/>
      <point x="899" y="1655" type="line"/>
      <point x="543" y="1320" type="line"/>
      <point x="527" y="1241" type="line"/>
      <point x="993" y="1241" type="line"/>
      <point x="1009" y="1320" type="line"/>
      <point x="891" y="1320" type="line"/>
      <point x="868" y="1310" type="line"/>
      <point x="599" y="1310" type="line"/>
      <point x="619" y="1297" type="line"/>
      <point x="916" y="1569" type="line"/>
      <point x="889" y="1573" type="line"/>
      <point x="797" y="1100" type="line"/>
    </contour>
  </outline>
</glyph>
